{
.formatVersion = 3;
axes = (
{
name = Weight;
tag = wght;
}
);
classes = (
{

glyphs = (
{
glyphname = .notdef;
layers = (
{
background = {
shapes = (
{
closed = 1;
nodes = (
(829,0,l),
(829,1197,l),
(71,1197,l),
(71,0,l)
);
},
{
closed = 1;
nodes = (
(155,1113,l),
(745,1113,l),
(745,84,l),
(155,84,l)
);
}
);
};
layerId = "A6411EC5-7A77-465E-9F2B-2C7729D1C516";
shapes = (
{
closed = 1;
nodes = (
(829,0,l),
(829,1197,l),
(71,1197,l),
(71,0,l)
);
},
{
closed = 1;
nodes = (
(155,1113,l),
(745,1113,l),
(745,84,l),
(155,84,l)
);
}
);
width = 900;
}
);
},
{
glyphname = bar;
layers = (
{
background = {
shapes = (
{
closed = 1;
nodes = (
(90,-164,l),
(90,1140,l),
(26,1140,l),
(26,-164,l)
);
}
);
};
layerId = "A6411EC5-7A77-465E-9F2B-2C7729D1C516";
shapes = (
{
closed = 1;
nodes = (
(90,-164,l),
(90,1140,l),
(26,1140,l),
(26,-164,l)
);
}
);
width = 116;
}
);
unicode = 124;
},
{
glyphname = uni200C;
layers = (
{
background = {
shapes = (
{
closed = 1;
nodes = (
(32,161,l),
(32,1465,l),
(-32,1465,l),
(-32,161,l)
);
}
);
};
layerId = "A6411EC5-7A77-465E-9F2B-2C7729D1C516";
shapes = (
{
closed = 1;
nodes = (
(32,161,l),
(32,1465,l),
(-32,1465,l),
(-32,161,l)
);
}
);
width = 0;
}
);
unicode = 8204;
},
{
glyphname = uni200D;
layers = (
{
background = {
shapes = (
{
closed = 1;
nodes = (
(32,161,l),
(32,1202,l),
(149,1083,l),
(192,1126,l),
(42,1274,l),
(192,1422,l),
(149,1465,l),
(0,1315,l),
(-149,1465,l),
(-192,1422,l),
(-42,1274,l),
(-192,1126,l),
(-149,1083,l),
(-32,1202,l),
(-32,161,l)
);
}
);
};
layerId = "A6411EC5-7A77-465E-9F2B-2C7729D1C516";
shapes = (
{
closed = 1;
nodes = (
(32,161,l),
(32,1202,l),
(149,1083,l),
(192,1126,l),
(42,1274,l),
(192,1422,l),
(149,1465,l),
(0,1315,l),
(-149,1465,l),
(-192,1422,l),
(-42,1274,l),
(-192,1126,l),
(-149,1083,l),
(-32,1202,l),
(-32,161,l)
);
}
);
width = 0;
}
);
unicode = 8205;
},
{
glyphname = uni200E;
layers = (
{
background = {
shapes = (
{
closed = 1;
nodes = (
(31,161,l),
(31,1246,l),
(265,1246,l),
(144,1131,l),
(187,1088,l),
(378,1276,l),
(187,1465,l),
(144,1422,l),
(265,1308,l),
(-32,1308,l),
(-32,161,l)
);
}
);
};
layerId = "A6411EC5-7A77-465E-9F2B-2C7729D1C516";
shapes = (
{
closed = 1;
nodes = (
(31,161,l),
(31,1246,l),
(265,1246,l),
(144,1131,l),
(187,1088,l),
(378,1276,l),
(187,1465,l),
(144,1422,l),
(265,1308,l),
(-32,1308,l),
(-32,161,l)
);
}
);
width = 0;
}
);
unicode = 8206;
},
{
glyphname = uni200F;
layers = (
{
background = {
shapes = (
{
closed = 1;
nodes = (
(31,161,l),
(31,1308,l),
(-266,1308,l),
(-145,1422,l),
(-188,1465,l),
(-379,1276,l),
(-188,1088,l),
(-145,1131,l),
(-266,1246,l),
(-32,1246,l),
(-32,161,l)
);
}
);
};
layerId = "A6411EC5-7A77-465E-9F2B-2C7729D1C516";
shapes = (
{
closed = 1;
nodes = (
(31,161,l),
(31,1308,l),
(-266,1308,l),
(-145,1422,l),
(-188,1465,l),
(-379,1276,l),
(-188,1088,l),
(-145,1131,l),
(-266,1246,l),
(-32,1246,l),
(-32,161,l)
);
}
);
width = 0;
}
);
unicode = 8207;
},
{
glyphname = OneDotAboveNS;
layers = (
{
anchors = (
{
name = Anchor31;
position = "{0, 1081}";
},
{
name = _Anchor31;
position = "{-4, 832}";
},
{
name = _Anchor5;
position = "{0, 921}";
}
);
background = {
shapes = (
{
closed = 1;
nodes = (
(3,823,l),
(49,855,o),
(95,895,o),
(95,928,cs),
(95,960,o),
(64,985,o),
(9,1020,c),
(-1,1020,l),
(-18,1009,o),
(-79,942,o),
(-97,914,c),
(-97,904,l),
(-68,883,o),
(-59,875,o),
(-5,823,c)
);
}
);
};
layerId = "A6411EC5-7A77-465E-9F2B-2C7729D1C516";
shapes = (
{
closed = 1;
nodes = (
(3,823,l),
(49,855,o),
(95,895,o),
(95,928,cs),
(95,960,o),
(64,985,o),
(9,1020,c),
(-1,1020,l),
(-18,1009,o),
(-79,942,o),
(-97,914,c),
(-97,904,l),
(-68,883,o),
(-59,875,o),
(-5,823,c)
);
}
);
width = 0;
}
);
},
{
glyphname = TwoDotsAboveNS;
layers = (
{
anchors = (
{
name = Anchor31;
position = "{0, 1142}";
},
{
name = _Anchor31;
position = "{0, 820}";
},
{
name = _Anchor5;
position = "{0, 923}";
}
);
background = {
shapes = (
{
closed = 1;
nodes = (
(-87,815,l),
(-50,840,o),
(-22,865,o),
(-7,888,c),
(9,875,o),
(25,860,o),
(53,833,c),
(61,833,l),
(107,865,o),
(153,905,o),
(153,938,cs),
(153,970,o),
(122,995,o),
(67,1030,c),
(57,1030,l),
(45,1022,o),
(15,991,o),
(-13,958,c),
(-26,973,o),
(-47,990,o),
(-81,1012,c),
(-91,1012,l),
(-108,1001,o),
(-169,934,o),
(-187,906,c),
(-187,896,l),
(-158,875,o),
(-144,862,o),
(-95,815,c)
);
}
);
};
layerId = "A6411EC5-7A77-465E-9F2B-2C7729D1C516";
shapes = (
{
closed = 1;
nodes = (
(-87,815,l),
(-50,840,o),
(-22,865,o),
(-7,888,c),
(9,875,o),
(25,860,o),
(53,833,c),
(61,833,l),
(107,865,o),
(153,905,o),
(153,938,cs),
(153,970,o),
(122,995,o),
(67,1030,c),
(57,1030,l),
(45,1022,o),
(15,991,o),
(-13,958,c),
(-26,973,o),
(-47,990,o),
(-81,1012,c),
(-91,1012,l),
(-108,1001,o),
(-169,934,o),
(-187,906,c),
(-187,896,l),
(-158,875,o),
(-144,862,o),
(-95,815,c)
);
}
);
width = 0;
}
);
},
{
glyphname = ThreeDotsUpAboveNS;
layers = (
{
anchors = (
{
name = Anchor31;
position = "{0, 1235}";
},
{
name = _Anchor31;
position = "{0, 820}";
},
{
name = _Anchor5;
position = "{0, 922}";
}
);
background = {
shapes = (
{
closed = 1;
nodes = (
(-70,814,l),
(-33,839,o),
(-5,864,o),
(10,887,c),
(26,874,o),
(42,859,o),
(70,832,c),
(78,832,l),
(124,864,o),
(170,904,o),
(170,937,cs),
(170,967,o),
(146,991,o),
(86,1029,c),
(76,1029,l),
(64,1021,o),
(32,990,o),
(4,957,c),
(-9,973,o),
(-31,991,o),
(-62,1011,c),
(-72,1011,l),
(-85,1003,o),
(-149,936,o),
(-170,905,c),
(-170,895,l),
(-141,874,o),
(-133,866,o),
(-78,814,c)
);
},
{
closed = 1;
nodes = (
(3,997,l),
(59,1041,o),
(81,1069,o),
(81,1089,cs),
(81,1107,o),
(64,1126,o),
(7,1164,c),
(-1,1164,l),
(-19,1152,o),
(-66,1102,o),
(-84,1076,c),
(-84,1068,l),
(-43,1034,o),
(-34,1025,o),
(-6,997,c)
);
}
);
};
layerId = "A6411EC5-7A77-465E-9F2B-2C7729D1C516";
shapes = (
{
closed = 1;
nodes = (
(-70,814,l),
(-33,839,o),
(-5,864,o),
(10,887,c),
(26,874,o),
(42,859,o),
(70,832,c),
(78,832,l),
(124,864,o),
(170,904,o),
(170,937,cs),
(170,967,o),
(146,991,o),
(86,1029,c),
(76,1029,l),
(64,1021,o),
(32,990,o),
(4,957,c),
(-9,973,o),
(-31,991,o),
(-62,1011,c),
(-72,1011,l),
(-85,1003,o),
(-149,936,o),
(-170,905,c),
(-170,895,l),
(-141,874,o),
(-133,866,o),
(-78,814,c)
);
},
{
closed = 1;
nodes = (
(3,997,l),
(59,1041,o),
(81,1069,o),
(81,1089,cs),
(81,1107,o),
(64,1126,o),
(7,1164,c),
(-1,1164,l),
(-19,1152,o),
(-66,1102,o),
(-84,1076,c),
(-84,1068,l),
(-43,1034,o),
(-34,1025,o),
(-6,997,c)
);
}
);
width = 0;
}
);
},
{
glyphname = OneDotBelowNS;
layers = (
{
anchors = (
{
name = Anchor33;
position = "{0, -257}";
},
{
name = _Anchor33;
position = "{0, -8}";
},
{
name = _Anchor9;
position = "{0, -99}";
}
);
background = {
shapes = (
{
closed = 1;
nodes = (
(3,-196,l),
(49,-164,o),
(95,-124,o),
(95,-91,cs),
(95,-59,o),
(64,-34,o),
(9,1,c),
(-1,1,l),
(-18,-10,o),
(-79,-77,o),
(-97,-105,c),
(-97,-115,l),
(-68,-136,o),
(-56,-147,o),
(-5,-196,c)
);
}
);
};
layerId = "A6411EC5-7A77-465E-9F2B-2C7729D1C516";
shapes = (
{
closed = 1;
nodes = (
(3,-196,l),
(49,-164,o),
(95,-124,o),
(95,-91,cs),
(95,-59,o),
(64,-34,o),
(9,1,c),
(-1,1,l),
(-18,-10,o),
(-79,-77,o),
(-97,-105,c),
(-97,-115,l),
(-68,-136,o),
(-56,-147,o),
(-5,-196,c)
);
}
);
width = 0;
}
);
},
{
glyphname = TwoDotsBelowNS;
layers = (
{
anchors = (
{
name = Anchor33;
position = "{0, -268}";
},
{
name = _Anchor33;
position = "{0, -2}";
},
{
name = _Anchor9;
position = "{0, -99}";
}
);
background = {
shapes = (
{
closed = 1;
nodes = (
(-70,-207,l),
(-33,-182,o),
(-5,-157,o),
(10,-134,c),
(26,-147,o),
(42,-162,o),
(70,-189,c),
(78,-189,l),
(124,-157,o),
(170,-117,o),
(170,-84,cs),
(170,-52,o),
(139,-27,o),
(84,8,c),
(74,8,l),
(62,0,o),
(32,-31,o),
(4,-64,c),
(-9,-49,o),
(-30,-32,o),
(-64,-10,c),
(-74,-10,l),
(-91,-21,o),
(-152,-88,o),
(-170,-116,c),
(-170,-126,l),
(-141,-147,o),
(-132,-155,o),
(-78,-207,c)
);
}
);
};
layerId = "A6411EC5-7A77-465E-9F2B-2C7729D1C516";
shapes = (
{
closed = 1;
nodes = (
(-70,-207,l),
(-33,-182,o),
(-5,-157,o),
(10,-134,c),
(26,-147,o),
(42,-162,o),
(70,-189,c),
(78,-189,l),
(124,-157,o),
(170,-117,o),
(170,-84,cs),
(170,-52,o),
(139,-27,o),
(84,8,c),
(74,8,l),
(62,0,o),
(32,-31,o),
(4,-64,c),
(-9,-49,o),
(-30,-32,o),
(-64,-10,c),
(-74,-10,l),
(-91,-21,o),
(-152,-88,o),
(-170,-116,c),
(-170,-126,l),
(-141,-147,o),
(-132,-155,o),
(-78,-207,c)
);
}
);
width = 0;
}
);
},
{
glyphname = ThreeDotsDownBelowNS;
layers = (
{
anchors = (
{
name = Anchor33;
position = "{0, -412}";
},
{
name = _Anchor33;
position = "{0, 0}";
},
{
name = _Anchor9;
position = "{0, -98}";
}
);
background = {
shapes = (
{
closed = 1;
nodes = (
(-72,-207,l),
(-35,-180,o),
(-8,-154,o),
(6,-133,c),
(53,-174,o),
(60,-180,o),
(68,-189,c),
(76,-189,l),
(122,-157,o),
(168,-117,o),
(168,-84,cs),
(168,-52,o),
(137,-27,o),
(82,8,c),
(72,8,l),
(61,1,o),
(32,-29,o),
(2,-63,c),
(-11,-49,o),
(-32,-32,o),
(-66,-10,c),
(-76,-10,l),
(-93,-21,o),
(-154,-88,o),
(-172,-116,c),
(-172,-126,l),
(-143,-147,o),
(-136,-155,o),
(-80,-207,c)
);
},
{
closed = 1;
nodes = (
(4,-343,l),
(56,-304,o),
(82,-280,o),
(82,-256,cs),
(82,-229,o),
(43,-198,o),
(11,-176,c),
(3,-176,l),
(-19,-193,o),
(-62,-233,o),
(-83,-264,c),
(-83,-272,l),
(-49,-300,o),
(-39,-309,o),
(-5,-343,c)
);
}
);
};
layerId = "A6411EC5-7A77-465E-9F2B-2C7729D1C516";
shapes = (
{
closed = 1;
nodes = (
(-72,-207,l),
(-35,-180,o),
(-8,-154,o),
(6,-133,c),
(53,-174,o),
(60,-180,o),
(68,-189,c),
(76,-189,l),
(122,-157,o),
(168,-117,o),
(168,-84,cs),
(168,-52,o),
(137,-27,o),
(82,8,c),
(72,8,l),
(61,1,o),
(32,-29,o),
(2,-63,c),
(-11,-49,o),
(-32,-32,o),
(-66,-10,c),
(-76,-10,l),
(-93,-21,o),
(-154,-88,o),
(-172,-116,c),
(-172,-126,l),
(-143,-147,o),
(-136,-155,o),
(-80,-207,c)
);
},
{
closed = 1;
nodes = (
(4,-343,l),
(56,-304,o),
(82,-280,o),
(82,-256,cs),
(82,-229,o),
(43,-198,o),
(11,-176,c),
(3,-176,l),
(-19,-193,o),
(-62,-233,o),
(-83,-264,c),
(-83,-272,l),
(-49,-300,o),
(-39,-309,o),
(-5,-343,c)
);
}
);
width = 0;
}
);
},
{
glyphname = ThreeDotsDownAboveNS;
layers = (
{
anchors = (
{
name = Anchor31;
position = "{0, 1231}";
},
{
name = _Anchor31;
position = "{-5, 831}";
},
{
name = _Anchor5;
position = "{0, 914}";
}
);
background = {
shapes = (
{
closed = 1;
nodes = (
(-72,967,l),
(-35,994,o),
(-8,1020,o),
(6,1041,c),
(53,1000,o),
(60,994,o),
(68,985,c),
(76,985,l),
(122,1017,o),
(168,1057,o),
(168,1090,cs),
(168,1122,o),
(137,1147,o),
(82,1182,c),
(72,1182,l),
(61,1175,o),
(32,1145,o),
(2,1111,c),
(-11,1125,o),
(-32,1142,o),
(-66,1164,c),
(-76,1164,l),
(-93,1153,o),
(-154,1086,o),
(-172,1058,c),
(-172,1048,l),
(-143,1027,o),
(-129,1014,o),
(-80,967,c)
);
},
{
closed = 1;
nodes = (
(4,831,l),
(56,870,o),
(82,894,o),
(82,918,cs),
(82,945,o),
(43,976,o),
(11,998,c),
(3,998,l),
(-19,982,o),
(-62,941,o),
(-83,910,c),
(-83,902,l),
(-59,883,o),
(-42,868,o),
(-5,831,c)
);
}
);
};
layerId = "A6411EC5-7A77-465E-9F2B-2C7729D1C516";
shapes = (
{
closed = 1;
nodes = (
(-72,967,l),
(-35,994,o),
(-8,1020,o),
(6,1041,c),
(53,1000,o),
(60,994,o),
(68,985,c),
(76,985,l),
(122,1017,o),
(168,1057,o),
(168,1090,cs),
(168,1122,o),
(137,1147,o),
(82,1182,c),
(72,1182,l),
(61,1175,o),
(32,1145,o),
(2,1111,c),
(-11,1125,o),
(-32,1142,o),
(-66,1164,c),
(-76,1164,l),
(-93,1153,o),
(-154,1086,o),
(-172,1058,c),
(-172,1048,l),
(-143,1027,o),
(-129,1014,o),
(-80,967,c)
);
},
{
closed = 1;
nodes = (
(4,831,l),
(56,870,o),
(82,894,o),
(82,918,cs),
(82,945,o),
(43,976,o),
(11,998,c),
(3,998,l),
(-19,982,o),
(-62,941,o),
(-83,910,c),
(-83,902,l),
(-59,883,o),
(-42,868,o),
(-5,831,c)
);
}
);
width = 0;
}
);
},
{
glyphname = OneDotEnclNS;
layers = (
{
anchors = (
{
name = _Anchor17;
position = "{0, 217}";
}
);
background = {
shapes = (
{
closed = 1;
nodes = (
(3,120,l),
(49,152,o),
(95,192,o),
(95,225,cs),
(95,257,o),
(64,282,o),
(9,317,c),
(-1,317,l),
(-18,306,o),
(-79,239,o),
(-97,211,c),
(-97,201,l),
(-70,181,o),
(-45,160,o),
(-5,120,c)
);
}
);
};
layerId = "A6411EC5-7A77-465E-9F2B-2C7729D1C516";
shapes = (
{
closed = 1;
nodes = (
(3,120,l),
(49,152,o),
(95,192,o),
(95,225,cs),
(95,257,o),
(64,282,o),
(9,317,c),
(-1,317,l),
(-18,306,o),
(-79,239,o),
(-97,211,c),
(-97,201,l),
(-70,181,o),
(-45,160,o),
(-5,120,c)
);
}
);
width = 0;
}
);
},
{
glyphname = OneDotEnclTNS;
layers = (
{
anchors = (
{
name = _Anchor19;
position = "{0, 217}";
}
);
background = {
shapes = (
{
closed = 1;
nodes = (
(3,120,l),
(49,152,o),
(95,192,o),
(95,225,cs),
(95,257,o),
(64,282,o),
(9,317,c),
(-1,317,l),
(-18,306,o),
(-79,239,o),
(-97,211,c),
(-97,201,l),
(-70,181,o),
(-45,160,o),
(-5,120,c)
);
}
);
};
layerId = "A6411EC5-7A77-465E-9F2B-2C7729D1C516";
shapes = (
{
closed = 1;
nodes = (
(3,120,l),
(49,152,o),
(95,192,o),
(95,225,cs),
(95,257,o),
(64,282,o),
(9,317,c),
(-1,317,l),
(-18,306,o),
(-79,239,o),
(-97,211,c),
(-97,201,l),
(-70,181,o),
(-45,160,o),
(-5,120,c)
);
}
);
width = 0;
}
);
},
{
glyphname = ThreeDotsDownEnclNS;
layers = (
{
anchors = (
{
name = _Anchor17;
position = "{0, 217}";
}
);
background = {
shapes = (
{
closed = 1;
nodes = (
(-73,110,l),
(-36,137,o),
(-9,163,o),
(5,184,c),
(52,143,o),
(59,137,o),
(67,128,c),
(75,128,l),
(121,160,o),
(167,200,o),
(167,233,cs),
(167,265,o),
(136,290,o),
(81,325,c),
(71,325,l),
(60,318,o),
(31,288,o),
(1,254,c),
(-12,268,o),
(-33,285,o),
(-67,307,c),
(-77,307,l),
(-94,296,o),
(-155,229,o),
(-173,201,c),
(-173,191,l),
(-144,170,o),
(-125,152,o),
(-81,110,c)
);
},
{
closed = 1;
nodes = (
(3,-26,l),
(55,13,o),
(81,37,o),
(81,61,cs),
(81,88,o),
(42,119,o),
(10,141,c),
(2,141,l),
(-20,124,o),
(-63,84,o),
(-84,53,c),
(-84,45,l),
(-49,17,o),
(-40,7,o),
(-6,-26,c)
);
}
);
};
layerId = "A6411EC5-7A77-465E-9F2B-2C7729D1C516";
shapes = (
{
closed = 1;
nodes = (
(-73,110,l),
(-36,137,o),
(-9,163,o),
(5,184,c),
(52,143,o),
(59,137,o),
(67,128,c),
(75,128,l),
(121,160,o),
(167,200,o),
(167,233,cs),
(167,265,o),
(136,290,o),
(81,325,c),
(71,325,l),
(60,318,o),
(31,288,o),
(1,254,c),
(-12,268,o),
(-33,285,o),
(-67,307,c),
(-77,307,l),
(-94,296,o),
(-155,229,o),
(-173,201,c),
(-173,191,l),
(-144,170,o),
(-125,152,o),
(-81,110,c)
);
},
{
closed = 1;
nodes = (
(3,-26,l),
(55,13,o),
(81,37,o),
(81,61,cs),
(81,88,o),
(42,119,o),
(10,141,c),
(2,141,l),
(-20,124,o),
(-63,84,o),
(-84,53,c),
(-84,45,l),
(-49,17,o),
(-40,7,o),
(-6,-26,c)
);
}
);
width = 0;
}
);
},
{
glyphname = TwoDotsEnclNS;
layers = (
{
anchors = (
{
name = _Anchor17;
position = "{0, 217}";
},
{
name = _Anchor19;
position = "{-60, 217}";
}
);
background = {
shapes = (
{
closed = 1;
nodes = (
(-70,109,l),
(-33,134,o),
(-5,159,o),
(10,182,c),
(26,169,o),
(42,154,o),
(70,127,c),
(78,127,l),
(124,159,o),
(170,199,o),
(170,232,cs),
(170,264,o),
(139,289,o),
(84,324,c),
(74,324,l),
(62,316,o),
(32,285,o),
(4,252,c),
(-9,267,o),
(-30,284,o),
(-64,306,c),
(-74,306,l),
(-91,295,o),
(-152,228,o),
(-170,200,c),
(-170,190,l),
(-143,170,o),
(-129,158,o),
(-78,109,c)
);
}
);
};
layerId = "A6411EC5-7A77-465E-9F2B-2C7729D1C516";
shapes = (
{
closed = 1;
nodes = (
(-70,109,l),
(-33,134,o),
(-5,159,o),
(10,182,c),
(26,169,o),
(42,154,o),
(70,127,c),
(78,127,l),
(124,159,o),
(170,199,o),
(170,232,cs),
(170,264,o),
(139,289,o),
(84,324,c),
(74,324,l),
(62,316,o),
(32,285,o),
(4,252,c),
(-9,267,o),
(-30,284,o),
(-64,306,c),
(-74,306,l),
(-91,295,o),
(-152,228,o),
(-170,200,c),
(-170,190,l),
(-143,170,o),
(-129,158,o),
(-78,109,c)
);
}
);
width = 0;
}
);
},
{
glyphname = TwoDotsVertEnclNS;
layers = (
{
anchors = (
{
name = _Anchor17;
position = "{0, 236}";
}
);
background = {
shapes = (
{
closed = 1;
nodes = (
(-1,-16,l),
(50,18,o),
(90,60,o),
(90,89,cs),
(90,111,o),
(73,131,o),
(36,160,c),
(68,188,o),
(88,214,o),
(88,235,cs),
(88,268,o),
(53,295,o),
(2,327,c),
(-8,327,l),
(-25,316,o),
(-86,249,o),
(-104,221,c),
(-104,211,l),
(-85,197,o),
(-73,187,o),
(-36,153,c),
(-60,129,o),
(-83,101,o),
(-102,75,c),
(-102,65,l),
(-73,44,o),
(-58,31,o),
(-10,-16,c)
);
}
);
};
layerId = "A6411EC5-7A77-465E-9F2B-2C7729D1C516";
shapes = (
{
closed = 1;
nodes = (
(-1,-16,l),
(50,18,o),
(90,60,o),
(90,89,cs),
(90,111,o),
(73,131,o),
(36,160,c),
(68,188,o),
(88,214,o),
(88,235,cs),
(88,268,o),
(53,295,o),
(2,327,c),
(-8,327,l),
(-25,316,o),
(-86,249,o),
(-104,221,c),
(-104,211,l),
(-85,197,o),
(-73,187,o),
(-36,153,c),
(-60,129,o),
(-83,101,o),
(-102,75,c),
(-102,65,l),
(-73,44,o),
(-58,31,o),
(-10,-16,c)
);
}
);
width = 0;
}
);
},
{
glyphname = FourDotsEnclNS;
layers = (
{
anchors = (
{
name = _Anchor17;
position = "{-15, 204}";
}
);
background = {
shapes = (
{
closed = 1;
nodes = (
(-70,8,l),
(-59,16,o),
(-48,24,o),
(-38,33,cs),
(-27,43,o),
(-18,52,o),
(-11,62,c),
(10,44,o),
(29,27,o),
(34,22,c),
(40,22,l),
(57,33,o),
(73,45,o),
(85,58,cs),
(99,73,o),
(109,87,o),
(109,100,cs),
(109,112,o),
(103,121,o),
(83,141,cs),
(78,146,o),
(71,151,o),
(63,157,c),
(94,183,o),
(105,202,o),
(105,216,cs),
(105,234,o),
(93,250,o),
(72,264,cs),
(62,271,o),
(51,277,o),
(41,284,c),
(33,284,l),
(29,281,o),
(19,271,o),
(7,259,cs),
(-2,250,o),
(-11,240,o),
(-19,230,c),
(-28,243,o),
(-41,252,o),
(-69,271,c),
(-77,271,l),
(-82,267,o),
(-95,254,o),
(-110,238,cs),
(-123,224,o),
(-138,208,o),
(-149,192,c),
(-149,184,l),
(-139,177,o),
(-130,171,o),
(-122,163,cs),
(-114,155,o),
(-104,147,o),
(-93,137,c),
(-118,110,o),
(-135,90,o),
(-145,76,c),
(-145,68,l),
(-131,57,o),
(-120,49,o),
(-110,40,cs),
(-99,30,o),
(-89,21,o),
(-77,8,c)
);
},
{
closed = 1;
nodes = (
(-20,112,o),
(-26,118,o),
(-34,124,cs),
(-41,129,o),
(-48,137,o),
(-56,143,c),
(-47,150,o),
(-39,157,o),
(-31,165,cs),
(-25,171,o),
(-19,178,o),
(-15,185,c),
(-2,173,o),
(11,162,o),
(24,150,c),
(15,141,o),
(9,135,o),
(4,129,cs),
(-8,115,o),
(-11,113,o),
(-15,107,c)
);
}
);
};
layerId = "A6411EC5-7A77-465E-9F2B-2C7729D1C516";
shapes = (
{
closed = 1;
nodes = (
(-70,8,l),
(-59,16,o),
(-48,24,o),
(-38,33,cs),
(-27,43,o),
(-18,52,o),
(-11,62,c),
(10,44,o),
(29,27,o),
(34,22,c),
(40,22,l),
(57,33,o),
(73,45,o),
(85,58,cs),
(99,73,o),
(109,87,o),
(109,100,cs),
(109,112,o),
(103,121,o),
(83,141,cs),
(78,146,o),
(71,151,o),
(63,157,c),
(94,183,o),
(105,202,o),
(105,216,cs),
(105,234,o),
(93,250,o),
(72,264,cs),
(62,271,o),
(51,277,o),
(41,284,c),
(33,284,l),
(29,281,o),
(19,271,o),
(7,259,cs),
(-2,250,o),
(-11,240,o),
(-19,230,c),
(-28,243,o),
(-41,252,o),
(-69,271,c),
(-77,271,l),
(-82,267,o),
(-95,254,o),
(-110,238,cs),
(-123,224,o),
(-138,208,o),
(-149,192,c),
(-149,184,l),
(-139,177,o),
(-130,171,o),
(-122,163,cs),
(-114,155,o),
(-104,147,o),
(-93,137,c),
(-118,110,o),
(-135,90,o),
(-145,76,c),
(-145,68,l),
(-131,57,o),
(-120,49,o),
(-110,40,cs),
(-99,30,o),
(-89,21,o),
(-77,8,c)
);
},
{
closed = 1;
nodes = (
(-20,112,o),
(-26,118,o),
(-34,124,cs),
(-41,129,o),
(-48,137,o),
(-56,143,c),
(-47,150,o),
(-39,157,o),
(-31,165,cs),
(-25,171,o),
(-19,178,o),
(-15,185,c),
(-2,173,o),
(11,162,o),
(24,150,c),
(15,141,o),
(9,135,o),
(4,129,cs),
(-8,115,o),
(-11,113,o),
(-15,107,c)
);
}
);
width = 0;
}
);
},
{
glyphname = TwoDotsVertAboveNS;
layers = (
{
anchors = (
{
name = Anchor31;
position = "{112, 406}";
},
{
name = _Anchor31;
position = "{109, 2}";
},
{
name = _Anchor5;
position = "{119, 106}";
}
);
background = {
shapes = (
{
closed = 1;
nodes = (
(118,2,l),
(169,36,o),
(209,78,o),
(209,107,cs),
(209,129,o),
(192,149,o),
(155,178,c),
(187,206,o),
(207,232,o),
(207,253,cs),
(207,286,o),
(172,313,o),
(121,345,c),
(111,345,l),
(94,334,o),
(33,267,o),
(15,239,c),
(15,229,l),
(34,215,o),
(46,205,o),
(83,171,c),
(59,147,o),
(36,119,o),
(17,93,c),
(17,83,l),
(46,62,o),
(55,54,o),
(109,2,c)
);
}
);
};
layerId = "A6411EC5-7A77-465E-9F2B-2C7729D1C516";
shapes = (
{
closed = 1;
nodes = (
(118,2,l),
(169,36,o),
(209,78,o),
(209,107,cs),
(209,129,o),
(192,149,o),
(155,178,c),
(187,206,o),
(207,232,o),
(207,253,cs),
(207,286,o),
(172,313,o),
(121,345,c),
(111,345,l),
(94,334,o),
(33,267,o),
(15,239,c),
(15,229,l),
(34,215,o),
(46,205,o),
(83,171,c),
(59,147,o),
(36,119,o),
(17,93,c),
(17,83,l),
(46,62,o),
(55,54,o),
(109,2,c)
);
}
);
width = 0;
}
);
},
{
glyphname = TwoDotsVertBelowNS;
layers = (
{
anchors = (
{
name = Anchor33;
position = "{117, -413}";
},
{
name = _Anchor33;
position = "{111, -7}";
},
{
name = _Anchor9;
position = "{119, -98}";
}
);
background = {
shapes = (
{
closed = 1;
nodes = (
(118,-350,l),
(169,-316,o),
(209,-274,o),
(209,-245,cs),
(209,-223,o),
(192,-203,o),
(155,-174,c),
(187,-146,o),
(207,-120,o),
(207,-99,cs),
(207,-66,o),
(172,-39,o),
(121,-7,c),
(111,-7,l),
(94,-18,o),
(33,-85,o),
(15,-113,c),
(15,-123,l),
(34,-137,o),
(46,-147,o),
(83,-181,c),
(59,-205,o),
(36,-233,o),
(17,-259,c),
(17,-269,l),
(46,-290,o),
(55,-298,o),
(109,-350,c)
);
}
);
};
layerId = "A6411EC5-7A77-465E-9F2B-2C7729D1C516";
shapes = (
{
closed = 1;
nodes = (
(119,-349,l),
(170,-315,o),
(210,-273,o),
(210,-244,cs),
(210,-222,o),
(193,-202,o),
(156,-173,c),
(188,-145,o),
(208,-119,o),
(208,-98,cs),
(208,-65,o),
(173,-38,o),
(122,-6,c),
(112,-6,l),
(95,-17,o),
(34,-84,o),
(16,-112,c),
(16,-122,l),
(35,-136,o),
(47,-146,o),
(84,-180,c),
(60,-204,o),
(37,-232,o),
(18,-258,c),
(18,-268,l),
(29,-276,o),
(43,-286,o),
(67,-308,cs),
(110,-349,l)
);
}
);
width = 0;
}
);
},
{
glyphname = FourDotsAboveNS;
layers = (
{
anchors = (
{
name = Anchor31;
position = "{145, 388}";
},
{
name = _Anchor31;
position = "{145, 8}";
},
{
name = _Anchor5;
position = "{145, 129}";
}
);
background = {
shapes = (
{
closed = 1;
nodes = (
(83,9,l),
(104,24,o),
(133,45,o),
(149,69,c),
(165,55,o),
(177,46,o),
(199,24,c),
(206,24,l),
(245,50,o),
(282,84,o),
(282,111,cs),
(282,131,o),
(268,147,o),
(231,174,c),
(252,192,o),
(278,216,o),
(278,240,cs),
(278,267,o),
(252,287,o),
(207,316,c),
(198,316,l),
(190,309,o),
(163,283,o),
(140,256,c),
(130,270,o),
(113,282,o),
(84,301,c),
(76,301,l),
(54,283,o),
(13,239,o),
(-4,213,c),
(-4,205,l),
(19,190,o),
(38,171,o),
(58,152,c),
(35,129,o),
(19,111,o),
(0,84,c),
(0,76,l),
(25,57,o),
(51,36,o),
(76,9,c)
);
},
{
closed = 1;
nodes = (
(134,131,o),
(115,146,o),
(99,159,c),
(119,174,o),
(134,190,o),
(145,206,c),
(159,193,o),
(174,180,o),
(188,167,c),
(161,139,o),
(152,129,o),
(144,119,c)
);
}
);
};
layerId = "A6411EC5-7A77-465E-9F2B-2C7729D1C516";
shapes = (
{
closed = 1;
nodes = (
(83,9,l),
(104,24,o),
(133,45,o),
(149,69,c),
(165,55,o),
(177,46,o),
(199,24,c),
(206,24,l),
(245,50,o),
(282,84,o),
(282,111,cs),
(282,131,o),
(268,147,o),
(231,174,c),
(252,192,o),
(278,216,o),
(278,240,cs),
(278,267,o),
(252,287,o),
(207,316,c),
(198,316,l),
(190,309,o),
(163,283,o),
(140,256,c),
(130,270,o),
(113,282,o),
(84,301,c),
(76,301,l),
(54,283,o),
(13,239,o),
(-4,213,c),
(-4,205,l),
(19,190,o),
(38,171,o),
(58,152,c),
(35,129,o),
(19,111,o),
(0,84,c),
(0,76,l),
(25,57,o),
(51,36,o),
(76,9,c)
);
},
{
closed = 1;
nodes = (
(134,131,o),
(115,146,o),
(99,159,c),
(119,174,o),
(134,190,o),
(145,206,c),
(159,193,o),
(174,180,o),
(188,167,c),
(161,139,o),
(152,129,o),
(144,119,c)
);
}
);
width = 0;
}
);
},
{
glyphname = FourDotsBelowNS;
layers = (
{
anchors = (
{
name = Anchor33;
position = "{130, -381}";
},
{
name = _Anchor33;
position = "{130, -40}";
},
{
name = _Anchor9;
position = "{130, -121}";
}
);
background = {
shapes = (
{
closed = 1;
nodes = (
(75,-317,l),
(88,-307,o),
(101,-297,o),
(113,-287,cs),
(122,-280,o),
(128,-271,o),
(134,-263,c),
(155,-281,o),
(174,-298,o),
(179,-303,c),
(185,-303,l),
(203,-291,o),
(219,-279,o),
(231,-266,cs),
(244,-251,o),
(254,-237,o),
(254,-225,cs),
(254,-214,o),
(251,-204,o),
(233,-189,cs),
(226,-183,o),
(218,-176,o),
(208,-168,c),
(239,-142,o),
(250,-123,o),
(250,-109,cs),
(250,-93,o),
(240,-79,o),
(223,-66,cs),
(213,-58,o),
(200,-50,o),
(186,-41,c),
(178,-41,l),
(174,-44,o),
(165,-53,o),
(155,-64,cs),
(146,-74,o),
(135,-84,o),
(126,-95,c),
(117,-82,o),
(104,-73,o),
(76,-54,c),
(68,-54,l),
(63,-58,o),
(50,-71,o),
(35,-87,cs),
(22,-101,o),
(7,-117,o),
(-4,-133,c),
(-4,-141,l),
(6,-147,o),
(15,-155,o),
(24,-162,cs),
(35,-170,o),
(43,-180,o),
(52,-188,c),
(42,-199,o),
(33,-209,o),
(23,-220,cs),
(13,-232,o),
(5,-241,o),
(0,-249,c),
(0,-257,l),
(11,-265,o),
(22,-273,o),
(32,-282,cs),
(44,-292,o),
(56,-303,o),
(68,-317,c)
);
},
{
closed = 1;
nodes = (
(126,-214,o),
(120,-208,o),
(113,-202,cs),
(105,-195,o),
(98,-189,o),
(89,-182,c),
(98,-175,o),
(105,-169,o),
(112,-162,cs),
(119,-155,o),
(125,-147,o),
(130,-140,c),
(143,-152,o),
(156,-163,o),
(169,-175,c),
(161,-184,o),
(153,-191,o),
(147,-198,cs),
(139,-207,o),
(133,-213,o),
(130,-218,c)
);
}
);
};
layerId = "A6411EC5-7A77-465E-9F2B-2C7729D1C516";
shapes = (
{
closed = 1;
nodes = (
(75,-317,l),
(88,-307,o),
(101,-297,o),
(113,-287,cs),
(122,-280,o),
(128,-271,o),
(134,-263,c),
(155,-281,o),
(174,-298,o),
(179,-303,c),
(185,-303,l),
(203,-291,o),
(219,-279,o),
(231,-266,cs),
(244,-251,o),
(254,-237,o),
(254,-225,cs),
(254,-214,o),
(251,-204,o),
(233,-189,cs),
(226,-183,o),
(218,-176,o),
(208,-168,c),
(239,-142,o),
(250,-123,o),
(250,-109,cs),
(250,-93,o),
(240,-79,o),
(223,-66,cs),
(213,-58,o),
(200,-50,o),
(186,-41,c),
(178,-41,l),
(174,-44,o),
(165,-53,o),
(155,-64,cs),
(146,-74,o),
(135,-84,o),
(126,-95,c),
(117,-82,o),
(104,-73,o),
(76,-54,c),
(68,-54,l),
(63,-58,o),
(50,-71,o),
(35,-87,cs),
(22,-101,o),
(7,-117,o),
(-4,-133,c),
(-4,-141,l),
(6,-147,o),
(15,-155,o),
(24,-162,cs),
(35,-170,o),
(43,-180,o),
(52,-188,c),
(42,-199,o),
(33,-209,o),
(23,-220,c),
(13,-232,o),
(5,-241,o),
(0,-249,c),
(0,-257,l),
(11,-265,o),
(22,-273,o),
(32,-282,c),
(44,-292,o),
(56,-303,o),
(68,-317,c)
);
},
{
closed = 1;
nodes = (
(126,-214,o),
(120,-208,o),
(113,-202,cs),
(105,-195,o),
(98,-189,o),
(89,-182,c),
(98,-175,o),
(105,-169,o),
(112,-162,cs),
(119,-155,o),
(125,-147,o),
(130,-140,c),
(143,-152,o),
(156,-163,o),
(169,-175,c),
(161,-184,o),
(153,-191,o),
(147,-198,cs),
(139,-207,o),
(133,-213,o),
(130,-218,c)
);
}
);
width = 0;
}
);
},
{
glyphname = MaddaNS;
layers = (
{
anchors = (
{
name = Anchor31;
position = "{40, 1148}";
},
{
name = _Anchor31;
position = "{-11, 907}";
},
{
name = _Anchor5;
position = "{0, 980}";
}
);
background = {
shapes = (
{
closed = 1;
nodes = (
(-255,875,l),
(-234,902,o),
(-223,921,o),
(-190,921,cs),
(-161,921,o),
(-108,900,o),
(-13,900,cs),
(94,900,o),
(207,943,o),
(295,1063,c),
(278,1077,l),
(220,1029,o),
(160,1012,o),
(64,1012,cs),
(-34,1012,o),
(-92,1034,o),
(-130,1034,cs),
(-185,1034,o),
(-235,974,o),
(-277,885,c)
);
}
);
};
layerId = "A6411EC5-7A77-465E-9F2B-2C7729D1C516";
shapes = (
{
closed = 1;
nodes = (
(-255,875,l),
(-234,902,o),
(-223,921,o),
(-190,921,cs),
(-161,921,o),
(-108,900,o),
(-13,900,cs),
(94,900,o),
(207,943,o),
(295,1063,c),
(278,1077,l),
(220,1029,o),
(160,1012,o),
(64,1012,cs),
(-34,1012,o),
(-92,1034,o),
(-130,1034,cs),
(-185,1034,o),
(-235,974,o),
(-277,885,c)
);
}
);
width = 0;
}
);
unicode = 1619;
},
{
glyphname = Madda.shortNS;
layers = (
{
anchors = (
{
name = Anchor31;
position = "{80, 1160}";
},
{
name = _Anchor31;
position = "{17, 907}";
},
{
name = _Anchor5;
position = "{0, 980}";
}
);
background = {
shapes = (
{
closed = 1;
nodes = (
(-206,875,l),
(-186,903,o),
(-170,921,o),
(-141,921,cs),
(-112,921,o),
(-49,901,o),
(16,901,cs),
(140,901,o),
(197,944,o),
(282,1053,c),
(265,1067,l),
(216,1023,o),
(164,1013,o),
(85,1013,cs),
(28,1013,o),
(-44,1035,o),
(-84,1035,cs),
(-126,1035,o),
(-176,997,o),
(-229,885,c)
);
}
);
};
layerId = "A6411EC5-7A77-465E-9F2B-2C7729D1C516";
shapes = (
{
closed = 1;
nodes = (
(-206,875,l),
(-186,903,o),
(-170,921,o),
(-141,921,cs),
(-112,921,o),
(-49,901,o),
(16,901,cs),
(140,901,o),
(197,944,o),
(282,1053,c),
(265,1067,l),
(216,1023,o),
(164,1013,o),
(85,1013,cs),
(28,1013,o),
(-44,1035,o),
(-84,1035,cs),
(-126,1035,o),
(-176,997,o),
(-229,885,c)
);
}
);
width = 0;
}
);
},
{
glyphname = Madda.shorterNS;
layers = (
{
anchors = (
{
name = Anchor31;
position = "{80, 1160}";
},
{
name = _Anchor31;
position = "{27, 907}";
},
{
name = _Anchor5;
position = "{0, 980}";
}
);
background = {
shapes = (
{
closed = 1;
nodes = (
(-149,883,l),
(-131,914,o),
(-117,926,o),
(-98,926,cs),
(-83,926,o),
(-16,907,o),
(27,907,cs),
(123,907,o),
(183,951,o),
(242,1043,c),
(224,1057,l),
(183,1016,o),
(145,1009,o),
(87,1009,cs),
(35,1009,o),
(-7,1027,o),
(-47,1027,cs),
(-92,1027,o),
(-133,984,o),
(-172,892,c)
);
}
);
};
layerId = "A6411EC5-7A77-465E-9F2B-2C7729D1C516";
shapes = (
{
closed = 1;
nodes = (
(-149,883,l),
(-131,914,o),
(-117,926,o),
(-98,926,cs),
(-83,926,o),
(-16,907,o),
(27,907,cs),
(123,907,o),
(183,951,o),
(242,1043,c),
(224,1057,l),
(183,1016,o),
(145,1009,o),
(87,1009,cs),
(35,1009,o),
(-7,1027,o),
(-47,1027,cs),
(-92,1027,o),
(-133,984,o),
(-172,892,c)
);
}
);
width = 0;
}
);
},
{
glyphname = WaslaNS;
layers = (
{
anchors = (
{
name = Anchor31;
position = "{0, 1117}";
},
{
name = _Anchor31;
position = "{-14, 881}";
},
{
name = _Anchor5;
position = "{1, 973}";
}
);
background = {
shapes = (
{
closed = 1;
nodes = (
(-129,865,l),
(-114,885,o),
(-101,891,o),
(-85,891,cs),
(-77,891,o),
(-68,887,o),
(-58,883,cs),
(-45,878,o),
(-31,872,o),
(-15,872,cs),
(66,872,o),
(136,950,o),
(136,1025,cs),
(136,1041,o),
(123,1058,o),
(94,1058,cs),
(65,1058,o),
(37,1045,o),
(12,1020,cs),
(-14,995,o),
(-35,970,o),
(-50,947,c),
(-56,949,o),
(-64,950,o),
(-74,950,cs),
(-107,950,o),
(-132,909,o),
(-146,872,c)
);
},
{
closed = 1;
nodes = (
(-11,934,o),
(-20,936,o),
(-27,939,c),
(-20,948,ls),
(7,983,o),
(38,996,o),
(66,996,cs),
(76,996,o),
(100,993,o),
(100,979,cs),
(100,956,o),
(24,934,o),
(-2,934,cs)
);
}
);
};
layerId = "A6411EC5-7A77-465E-9F2B-2C7729D1C516";
shapes = (
{
closed = 1;
nodes = (
(-129,865,l),
(-114,885,o),
(-101,891,o),
(-85,891,cs),
(-77,891,o),
(-68,887,o),
(-58,883,cs),
(-45,878,o),
(-31,872,o),
(-15,872,cs),
(66,872,o),
(136,950,o),
(136,1025,cs),
(136,1041,o),
(123,1058,o),
(94,1058,cs),
(65,1058,o),
(37,1045,o),
(12,1020,cs),
(-14,995,o),
(-35,970,o),
(-50,947,c),
(-56,949,o),
(-64,950,o),
(-74,950,cs),
(-107,950,o),
(-132,909,o),
(-146,872,c)
);
},
{
closed = 1;
nodes = (
(-11,934,o),
(-20,936,o),
(-27,939,c),
(-20,948,ls),
(7,983,o),
(38,996,o),
(66,996,cs),
(76,996,o),
(100,993,o),
(100,979,cs),
(100,956,o),
(24,934,o),
(-2,934,cs)
);
}
);
width = 0;
}
);
},
{
glyphname = HamzaAboveNS;
layers = (
{
anchors = (
{
name = Anchor31;
position = "{0, 1091}";
},
{
name = _Anchor31;
position = "{0, 856}";
},
{
name = _Anchor5;
position = "{0, 940}";
}
);
background = {
shapes = (
{
closed = 1;
nodes = (
(-68,837,o),
(-40,860,o),
(-13,907,cs),
(-1,927,o),
(9,943,o),
(19,954,cs),
(33,969,o),
(45,977,o),
(56,977,cs),
(78,977,o),
(87,964,o),
(82,942,c),
(100,937,l),
(117,957,o),
(134,1002,o),
(134,1029,cs),
(134,1065,o),
(112,1075,o),
(92,1075,cs),
(62,1075,o),
(42,1054,o),
(17,1015,cs),
(-12,970,ls),
(-30,943,o),
(-45,935,o),
(-59,935,cs),
(-80,935,o),
(-88,948,o),
(-82,970,c),
(-101,975,l),
(-116,957,o),
(-137,919,o),
(-137,882,cs),
(-137,853,o),
(-121,837,o),
(-98,837,cs)
);
}
);
};
layerId = "A6411EC5-7A77-465E-9F2B-2C7729D1C516";
shapes = (
{
closed = 1;
nodes = (
(-68,837,o),
(-40,860,o),
(-13,907,cs),
(-1,927,o),
(9,943,o),
(19,954,cs),
(33,969,o),
(45,977,o),
(56,977,cs),
(78,977,o),
(87,964,o),
(82,942,c),
(100,937,l),
(117,957,o),
(134,1002,o),
(134,1029,cs),
(134,1065,o),
(112,1075,o),
(92,1075,cs),
(62,1075,o),
(42,1054,o),
(17,1015,cs),
(-12,970,ls),
(-30,943,o),
(-45,935,o),
(-59,935,cs),
(-80,935,o),
(-88,948,o),
(-82,970,c),
(-101,975,l),
(-116,957,o),
(-137,919,o),
(-137,882,cs),
(-137,853,o),
(-121,837,o),
(-98,837,cs)
);
}
);
width = 0;
}
);
unicode = 1620;
},
{
glyphname = HamzaBelowNS;
layers = (
{
anchors = (
{
name = Anchor33;
position = "{0, -269}";
},
{
name = _Anchor33;
position = "{0, -67}";
},
{
name = _Anchor9;
position = "{0, -161}";
}
);
background = {
shapes = (
{
closed = 1;
nodes = (
(-68,-288,o),
(-40,-265,o),
(-13,-218,cs),
(-7,-207,o),
(0,-197,o),
(5,-189,cs),
(25,-161,o),
(41,-148,o),
(56,-148,cs),
(78,-148,o),
(87,-161,o),
(82,-183,c),
(100,-188,l),
(117,-168,o),
(134,-123,o),
(134,-96,cs),
(134,-60,o),
(112,-50,o),
(92,-50,cs),
(62,-50,o),
(42,-71,o),
(17,-110,cs),
(-12,-155,ls),
(-30,-182,o),
(-45,-190,o),
(-59,-190,cs),
(-80,-190,o),
(-88,-177,o),
(-82,-155,c),
(-101,-150,l),
(-116,-168,o),
(-137,-206,o),
(-137,-243,cs),
(-137,-272,o),
(-121,-288,o),
(-98,-288,cs)
);
}
);
};
layerId = "A6411EC5-7A77-465E-9F2B-2C7729D1C516";
shapes = (
{
closed = 1;
nodes = (
(-68,-288,o),
(-40,-265,o),
(-13,-218,cs),
(-7,-207,o),
(0,-197,o),
(5,-189,cs),
(25,-161,o),
(41,-148,o),
(56,-148,cs),
(78,-148,o),
(87,-161,o),
(82,-183,c),
(100,-188,l),
(117,-168,o),
(134,-123,o),
(134,-96,cs),
(134,-60,o),
(112,-50,o),
(92,-50,cs),
(62,-50,o),
(42,-71,o),
(17,-110,cs),
(-12,-155,ls),
(-30,-182,o),
(-45,-190,o),
(-59,-190,cs),
(-80,-190,o),
(-88,-177,o),
(-82,-155,c),
(-101,-150,l),
(-116,-168,o),
(-137,-206,o),
(-137,-243,cs),
(-137,-272,o),
(-121,-288,o),
(-98,-288,cs)
);
}
);
width = 0;
}
);
unicode = 1621;
},
{
glyphname = HamzaAboveAF_NS;
layers = (
{
anchors = (
{
name = Anchor31;
position = "{0, 1099}";
},
{
name = _Anchor31;
position = "{0, 835}";
},
{
name = _Anchor5;
position = "{0, 947}";
}
);
background = {
shapes = (
{
closed = 1;
nodes = (
(-107,805,l),
(-79,826,o),
(-42,847,o),
(4,868,cs),
(93,909,o),
(125,923,o),
(145,983,c),
(131,992,l),
(104,967,o),
(67,946,o),
(46,946,cs),
(11,946,o),
(-13,962,o),
(-13,986,cs),
(-13,1011,o),
(10,1030,o),
(39,1030,cs),
(53,1030,o),
(69,1023,o),
(77,1011,c),
(85,1011,l),
(93,1017,o),
(103,1027,o),
(103,1046,cs),
(103,1069,o),
(83,1078,o),
(58,1078,cs),
(5,1078,o),
(-81,993,o),
(-81,940,cs),
(-81,927,o),
(-77,916,o),
(-71,908,cs),
(-66,902,o),
(-62,898,o),
(-57,895,c),
(-58,891,l),
(-82,877,o),
(-108,852,o),
(-119,816,c)
);
}
);
};
layerId = "A6411EC5-7A77-465E-9F2B-2C7729D1C516";
shapes = (
{
closed = 1;
nodes = (
(-107,805,l),
(-79,826,o),
(-42,847,o),
(4,868,cs),
(93,909,o),
(125,923,o),
(145,983,c),
(131,992,l),
(104,967,o),
(67,946,o),
(46,946,cs),
(11,946,o),
(-13,962,o),
(-13,986,cs),
(-13,1011,o),
(10,1030,o),
(39,1030,cs),
(53,1030,o),
(69,1023,o),
(77,1011,c),
(85,1011,l),
(93,1017,o),
(103,1027,o),
(103,1046,cs),
(103,1069,o),
(83,1078,o),
(58,1078,cs),
(5,1078,o),
(-81,993,o),
(-81,940,cs),
(-81,927,o),
(-77,916,o),
(-71,908,cs),
(-66,902,o),
(-62,898,o),
(-57,895,c),
(-58,891,l),
(-82,877,o),
(-108,852,o),
(-119,816,c)
);
}
);
width = 0;
}
);
},
{
glyphname = HamzaBelowAF_NS;
layers = (
{
anchors = (
{
name = Anchor33;
position = "{0, -308}";
},
{
name = _Anchor33;
position = "{0, -44}";
},
{
name = _Anchor9;
position = "{0, -173}";
}
);
background = {
shapes = (
{
closed = 1;
nodes = (
(-107,-338,l),
(-79,-317,o),
(-42,-296,o),
(4,-275,cs),
(93,-234,o),
(125,-220,o),
(145,-160,c),
(131,-151,l),
(104,-176,o),
(67,-197,o),
(46,-197,cs),
(11,-197,o),
(-13,-181,o),
(-13,-157,cs),
(-13,-132,o),
(10,-113,o),
(39,-113,cs),
(53,-113,o),
(69,-120,o),
(77,-132,c),
(85,-132,l),
(93,-126,o),
(103,-116,o),
(103,-97,cs),
(103,-74,o),
(83,-65,o),
(58,-65,cs),
(5,-65,o),
(-81,-150,o),
(-81,-203,cs),
(-81,-216,o),
(-76,-228,o),
(-70,-236,cs),
(-66,-241,o),
(-61,-245,o),
(-57,-248,c),
(-58,-252,l),
(-82,-266,o),
(-108,-291,o),
(-119,-327,c)
);
}
);
};
layerId = "A6411EC5-7A77-465E-9F2B-2C7729D1C516";
shapes = (
{
closed = 1;
nodes = (
(-107,-338,l),
(-79,-317,o),
(-42,-296,o),
(4,-275,cs),
(93,-234,o),
(125,-220,o),
(145,-160,c),
(131,-151,l),
(104,-176,o),
(67,-197,o),
(46,-197,cs),
(11,-197,o),
(-13,-181,o),
(-13,-157,cs),
(-13,-132,o),
(10,-113,o),
(39,-113,cs),
(53,-113,o),
(69,-120,o),
(77,-132,c),
(85,-132,l),
(93,-126,o),
(103,-116,o),
(103,-97,cs),
(103,-74,o),
(83,-65,o),
(58,-65,cs),
(5,-65,o),
(-81,-150,o),
(-81,-203,cs),
(-81,-216,o),
(-76,-228,o),
(-70,-236,cs),
(-66,-241,o),
(-61,-245,o),
(-57,-248,c),
(-58,-252,l),
(-82,-266,o),
(-108,-291,o),
(-119,-327,c)
);
}
);
width = 0;
}
);
},
{
glyphname = AlayhissalamNS;
layers = (
{
anchors = (
{
name = Anchor31;
position = "{0, 1202}";
},
{
name = _Anchor31;
position = "{0, 826}";
},
{
name = _Anchor5;
position = "{0, 918}";
}
);
background = {
shapes = (
{
closed = 1;
nodes = (
(-100,810,l),
(-79,859,o),
(-76,879,o),
(-76,948,c),
(-63,938,o),
(-48,933,o),
(-29,933,cs),
(45,933,o),
(134,989,o),
(163,1065,c),
(152,1074,l),
(129,1050,o),
(96,1022,o),
(66,1022,cs),
(38,1022,o),
(3,1035,o),
(3,1059,cs),
(3,1084,o),
(32,1099,o),
(53,1099,cs),
(71,1099,o),
(86,1092,o),
(93,1080,c),
(101,1080,l),
(109,1086,o),
(119,1096,o),
(119,1115,cs),
(119,1138,o),
(99,1147,o),
(74,1147,cs),
(21,1147,o),
(-54,1072,o),
(-54,1020,cs),
(-54,1011,o),
(-53,1006,o),
(-49,999,c),
(-70,1004,o),
(-81,1023,o),
(-83,1056,cs),
(-85,1089,o),
(-89,1112,o),
(-94,1124,c),
(-104,1124,l),
(-115,1099,o),
(-124,1077,o),
(-129,1062,c),
(-128,1050,o),
(-126,1033,o),
(-121,1001,cs),
(-116,969,o),
(-113,901,o),
(-113,868,cs),
(-113,849,o),
(-114,830,o),
(-115,811,c)
);
}
);
};
layerId = "A6411EC5-7A77-465E-9F2B-2C7729D1C516";
shapes = (
{
closed = 1;
nodes = (
(-100,810,l),
(-79,859,o),
(-76,879,o),
(-76,948,c),
(-63,938,o),
(-48,933,o),
(-29,933,cs),
(45,933,o),
(134,989,o),
(163,1065,c),
(152,1074,l),
(129,1050,o),
(96,1022,o),
(66,1022,cs),
(38,1022,o),
(3,1035,o),
(3,1059,cs),
(3,1084,o),
(32,1099,o),
(53,1099,cs),
(71,1099,o),
(86,1092,o),
(93,1080,c),
(101,1080,l),
(109,1086,o),
(119,1096,o),
(119,1115,cs),
(119,1138,o),
(99,1147,o),
(74,1147,cs),
(21,1147,o),
(-54,1072,o),
(-54,1020,cs),
(-54,1011,o),
(-53,1006,o),
(-49,999,c),
(-70,1004,o),
(-81,1023,o),
(-83,1056,cs),
(-85,1089,o),
(-89,1112,o),
(-94,1124,c),
(-104,1124,l),
(-115,1099,o),
(-124,1077,o),
(-129,1062,c),
(-128,1050,o),
(-126,1033,o),
(-121,1001,cs),
(-116,969,o),
(-113,901,o),
(-113,868,cs),
(-113,849,o),
(-114,830,o),
(-115,811,c)
);
}
);
width = 0;
}
);
unicode = 1553;
},
{
glyphname = AlefSuperiorNS;
layers = (
{
anchors = (
{
name = Anchor31;
position = "{0, 1181}";
},
{
name = _Anchor31;
position = "{-5, 851}";
},
{
name = _Anchor5;
position = "{0, 950}";
}
);
background = {
shapes = (
{
closed = 1;
nodes = (
(-6,838,l),
(16,890,o),
(31,942,o),
(34,990,cs),
(35,1010,ls),
(38,1085,o),
(40,1108,o),
(45,1120,c),
(28,1123,l),
(0,1069,o),
(-8,1051,o),
(-11,994,cs),
(-16,902,o),
(-18,865,o),
(-23,841,c)
);
}
);
};
layerId = "A6411EC5-7A77-465E-9F2B-2C7729D1C516";
shapes = (
{
closed = 1;
nodes = (
(-6,838,l),
(16,890,o),
(31,942,o),
(34,990,cs),
(35,1010,ls),
(38,1085,o),
(40,1108,o),
(45,1120,c),
(28,1123,l),
(0,1069,o),
(-8,1051,o),
(-11,994,cs),
(-16,902,o),
(-18,865,o),
(-23,841,c)
);
}
);
width = 0;
}
);
unicode = 1648;
},
{
glyphname = AlefInferiorNS;
layers = (
{
anchors = (
{
name = Anchor33;
position = "{1, -338}";
},
{
name = _Anchor33;
position = "{29, -8}";
},
{
name = _Anchor9;
position = "{2, -108}";
}
);
background = {
shapes = (
{
closed = 1;
nodes = (
(-6,-281,l),
(16,-229,o),
(31,-177,o),
(34,-129,cs),
(35,-109,ls),
(38,-34,o),
(40,-11,o),
(45,1,c),
(28,4,l),
(0,-50,o),
(-8,-68,o),
(-11,-125,cs),
(-16,-218,o),
(-18,-254,o),
(-23,-278,c)
);
}
);
};
layerId = "A6411EC5-7A77-465E-9F2B-2C7729D1C516";
shapes = (
{
closed = 1;
nodes = (
(-6,-281,l),
(16,-229,o),
(31,-177,o),
(34,-129,cs),
(35,-109,ls),
(38,-34,o),
(40,-11,o),
(45,1,c),
(28,4,l),
(0,-50,o),
(-8,-68,o),
(-11,-125,cs),
(-16,-218,o),
(-18,-254,o),
(-23,-278,c)
);
}
);
width = 0;
}
);
unicode = 1622;
},
{
glyphname = DammaNS;
layers = (
{
anchors = (
{
name = Anchor31;
position = "{0, 1172}";
},
{
name = _Anchor31;
position = "{0, 926}";
},
{
name = _Anchor5;
position = "{-2, 958}";
}
);
background = {
shapes = (
{
closed = 1;
nodes = (
(-119,846,l),
(-25,888,o),
(120,961,o),
(120,1067,cs),
(120,1092,o),
(108,1118,o),
(76,1118,cs),
(25,1118,o),
(-9,1066,o),
(-9,1022,cs),
(-9,1010,o),
(-5,994,o),
(13,973,c),
(-37,934,ls),
(-66,911,o),
(-97,885,o),
(-127,857,c)
);
},
{
closed = 1;
nodes = (
(37,1026,o),
(28,1037,o),
(28,1049,cs),
(28,1063,o),
(37,1076,o),
(56,1076,cs),
(74,1076,o),
(83,1063,o),
(83,1050,cs),
(83,1033,o),
(71,1020,o),
(59,1009,c)
);
}
);
};
layerId = "A6411EC5-7A77-465E-9F2B-2C7729D1C516";
shapes = (
{
closed = 1;
nodes = (
(-119,846,l),
(-25,888,o),
(120,961,o),
(120,1067,cs),
(120,1092,o),
(108,1118,o),
(76,1118,cs),
(25,1118,o),
(-9,1066,o),
(-9,1022,cs),
(-9,1010,o),
(-5,994,o),
(13,973,c),
(-37,934,ls),
(-66,911,o),
(-97,885,o),
(-127,857,c)
);
},
{
closed = 1;
nodes = (
(37,1026,o),
(28,1037,o),
(28,1049,cs),
(28,1063,o),
(37,1076,o),
(56,1076,cs),
(74,1076,o),
(83,1063,o),
(83,1050,cs),
(83,1033,o),
(71,1020,o),
(59,1009,c)
);
}
);
width = 0;
}
);
unicode = 1615;
},
{
glyphname = UltapeshNS;
layers = (
{
anchors = (
{
name = Anchor31;
position = "{0, 1120}";
},
{
name = _Anchor31;
position = "{0, 865}";
},
{
name = _Anchor5;
position = "{-18, 958}";
}
);
background = {
shapes = (
{
closed = 1;
nodes = (
(-37,846,o),
(3,891,o),
(3,942,cs),
(3,958,o),
(-4,972,o),
(-19,991,c),
(59,1052,o),
(91,1079,o),
(121,1107,c),
(113,1118,l),
(92,1111,o),
(22,1074,o),
(-17,1049,cs),
(-60,1022,o),
(-126,968,o),
(-126,897,cs),
(-126,874,o),
(-114,846,o),
(-82,846,cs)
);
},
{
closed = 1;
nodes = (
(-78,888,o),
(-89,897,o),
(-89,914,cs),
(-89,927,o),
(-82,940,o),
(-65,955,c),
(-44,939,o),
(-34,927,o),
(-34,915,cs),
(-34,907,o),
(-37,900,o),
(-43,895,cs),
(-48,891,o),
(-55,888,o),
(-62,888,cs)
);
}
);
};
layerId = "A6411EC5-7A77-465E-9F2B-2C7729D1C516";
shapes = (
{
closed = 1;
nodes = (
(-37,846,o),
(3,891,o),
(3,942,cs),
(3,958,o),
(-4,972,o),
(-19,991,c),
(59,1052,o),
(91,1079,o),
(121,1107,c),
(113,1118,l),
(92,1111,o),
(22,1074,o),
(-17,1049,cs),
(-60,1022,o),
(-126,968,o),
(-126,897,cs),
(-126,874,o),
(-114,846,o),
(-82,846,cs)
);
},
{
closed = 1;
nodes = (
(-78,888,o),
(-89,897,o),
(-89,914,cs),
(-89,927,o),
(-82,940,o),
(-65,955,c),
(-44,939,o),
(-34,927,o),
(-34,915,cs),
(-34,907,o),
(-37,900,o),
(-43,895,cs),
(-48,891,o),
(-55,888,o),
(-62,888,cs)
);
}
);
width = 0;
}
);
unicode = 1623;
},
{
glyphname = DammatanNS;
layers = (
{
anchors = (
{
name = Anchor31;
position = "{0, 1141}";
},
{
name = _Anchor31;
position = "{0, 845}";
},
{
name = _Anchor5;
position = "{0, 968}";
}
);
background = {
shapes = (
{
closed = 1;
nodes = (
(6,859,o),
(46,879,o),
(89,918,cs),
(132,957,o),
(154,997,o),
(154,1038,cs),
(154,1060,o),
(142,1089,o),
(110,1089,cs),
(59,1089,o),
(25,1037,o),
(25,993,cs),
(25,981,o),
(29,965,o),
(47,944,c),
(22,925,o),
(-1,915,o),
(-23,915,cs),
(-55,915,o),
(-65,931,o),
(-65,963,cs),
(-65,984,o),
(-58,1010,o),
(-58,1020,cs),
(-58,1032,o),
(-64,1038,o),
(-79,1038,cs),
(-98,1038,o),
(-141,1017,o),
(-168,984,c),
(-160,971,l),
(-141,984,o),
(-109,988,o),
(-97,988,cs),
(-93,988,l),
(-99,973,o),
(-103,950,o),
(-103,931,cs),
(-103,884,o),
(-81,859,o),
(-31,859,cs)
);
},
{
closed = 1;
nodes = (
(71,997,o),
(62,1008,o),
(62,1020,cs),
(62,1033,o),
(70,1047,o),
(90,1047,cs),
(108,1047,o),
(117,1034,o),
(117,1022,cs),
(117,1007,o),
(112,999,o),
(93,980,c)
);
}
);
};
layerId = "A6411EC5-7A77-465E-9F2B-2C7729D1C516";
shapes = (
{
closed = 1;
nodes = (
(6,859,o),
(46,879,o),
(89,918,cs),
(132,957,o),
(154,997,o),
(154,1038,cs),
(154,1060,o),
(142,1089,o),
(110,1089,cs),
(59,1089,o),
(25,1037,o),
(25,993,cs),
(25,981,o),
(29,965,o),
(47,944,c),
(22,925,o),
(-1,915,o),
(-23,915,cs),
(-55,915,o),
(-65,931,o),
(-65,963,cs),
(-65,984,o),
(-58,1010,o),
(-58,1020,cs),
(-58,1032,o),
(-64,1038,o),
(-79,1038,cs),
(-98,1038,o),
(-141,1017,o),
(-168,984,c),
(-160,971,l),
(-141,984,o),
(-109,988,o),
(-97,988,cs),
(-93,988,l),
(-99,973,o),
(-103,950,o),
(-103,931,cs),
(-103,884,o),
(-81,859,o),
(-31,859,cs)
);
},
{
closed = 1;
nodes = (
(71,997,o),
(62,1008,o),
(62,1020,cs),
(62,1033,o),
(70,1047,o),
(90,1047,cs),
(108,1047,o),
(117,1034,o),
(117,1022,cs),
(117,1007,o),
(112,999,o),
(93,980,c)
);
}
);
width = 0;
}
);
unicode = 1612;
},
{
glyphname = FathaNS;
layers = (
{
anchors = (
{
name = Anchor31;
position = "{0, 1093}";
},
{
name = _Anchor31;
position = "{0, 926}";
},
{
name = _Anchor5;
position = "{0, 959}";
}
);
background = {
shapes = (
{
closed = 1;
nodes = (
(-117,855,l),
(-106,867,o),
(-87,879,o),
(-59,894,cs),
(94,978,ls),
(125,995,o),
(142,1017,o),
(154,1053,c),
(141,1060,l),
(137,1057,o),
(128,1051,o),
(91,1030,cs),
(65,1015,o),
(25,994,o),
(-36,959,cs),
(-103,921,o),
(-120,901,o),
(-129,863,c)
);
}
);
};
layerId = "A6411EC5-7A77-465E-9F2B-2C7729D1C516";
shapes = (
{
closed = 1;
nodes = (
(-117,855,l),
(-106,867,o),
(-87,879,o),
(-59,894,cs),
(94,978,ls),
(125,995,o),
(142,1017,o),
(154,1053,c),
(141,1060,l),
(137,1057,o),
(128,1051,o),
(91,1030,cs),
(65,1015,o),
(25,994,o),
(-36,959,cs),
(-103,921,o),
(-120,901,o),
(-129,863,c)
);
}
);
width = 0;
}
);
unicode = 1614;
},
{
glyphname = FathatanNS;
layers = (
{
anchors = (
{
name = Anchor31;
position = "{0, 1193}";
},
{
name = _Anchor31;
position = "{0, 926}";
},
{
name = _Anchor5;
position = "{0, 959}";
}
);
background = {
shapes = (
{
closed = 1;
nodes = (
(-107,957,l),
(-96,969,o),
(-77,981,o),
(-49,996,cs),
(104,1080,ls),
(135,1097,o),
(152,1119,o),
(164,1155,c),
(151,1162,l),
(147,1159,o),
(138,1153,o),
(101,1132,cs),
(75,1117,o),
(35,1096,o),
(-26,1061,cs),
(-93,1023,o),
(-110,1003,o),
(-119,965,c)
);
},
{
closed = 1;
nodes = (
(-117,855,l),
(-106,867,o),
(-87,879,o),
(-59,894,cs),
(94,978,ls),
(125,995,o),
(142,1017,o),
(154,1053,c),
(141,1060,l),
(137,1057,o),
(128,1051,o),
(91,1030,cs),
(65,1015,o),
(25,994,o),
(-36,959,cs),
(-103,921,o),
(-120,901,o),
(-129,863,c)
);
}
);
};
layerId = "A6411EC5-7A77-465E-9F2B-2C7729D1C516";
shapes = (
{
alignment = -1;
ref = FathaNS;
},
{
alignment = -1;
pos = (10,102);
ref = FathaNS;
}
);
width = 0;
}
);
unicode = 1611;
},
{
glyphname = KasraNS;
layers = (
{
anchors = (
{
name = Anchor33;
position = "{0, -229}";
},
{
name = _Anchor33;
position = "{0, -24}";
},
{
name = _Anchor9;
position = "{0, -81}";
}
);
background = {
shapes = (
{
closed = 1;
nodes = (
(-121,-197,l),
(-110,-185,o),
(-91,-173,o),
(-63,-158,cs),
(90,-74,ls),
(121,-57,o),
(138,-35,o),
(150,1,c),
(137,8,l),
(133,5,o),
(124,-1,o),
(87,-22,cs),
(61,-37,o),
(21,-58,o),
(-40,-93,cs),
(-107,-131,o),
(-124,-151,o),
(-133,-189,c)
);
}
);
};
layerId = "A6411EC5-7A77-465E-9F2B-2C7729D1C516";
shapes = (
{
alignment = -1;
pos = (-4,-1052);
ref = FathaNS;
}
);
width = 0;
}
);
unicode = 1616;
},
{
glyphname = KasratanNS;
layers = (
{
anchors = (
{
name = Anchor33;
position = "{0, -328}";
},
{
name = _Anchor33;
position = "{0, -44}";
},
{
name = _Anchor9;
position = "{0, -81}";
}
);
background = {
shapes = (
{
closed = 1;
nodes = (
(-121,-197,l),
(-110,-185,o),
(-91,-173,o),
(-63,-158,cs),
(90,-74,ls),
(121,-57,o),
(138,-35,o),
(150,1,c),
(137,8,l),
(133,5,o),
(124,-1,o),
(87,-22,cs),
(61,-37,o),
(21,-58,o),
(-40,-93,cs),
(-107,-131,o),
(-124,-151,o),
(-133,-189,c)
);
},
{
closed = 1;
nodes = (
(-131,-300,l),
(-120,-288,o),
(-101,-276,o),
(-73,-261,cs),
(80,-177,ls),
(111,-160,o),
(128,-138,o),
(140,-102,c),
(127,-95,l),
(123,-98,o),
(114,-104,o),
(77,-125,cs),
(51,-140,o),
(11,-161,o),
(-50,-196,cs),
(-117,-234,o),
(-134,-254,o),
(-143,-292,c)
);
}
);
};
layerId = "A6411EC5-7A77-465E-9F2B-2C7729D1C516";
shapes = (
{
alignment = -1;
pos = (-4,-1052);
ref = FathaNS;
},
{
alignment = -1;
pos = (-14,-1155);
ref = FathaNS;
}
);
width = 0;
}
);
unicode = 1613;
},
{
glyphname = NoonGhunnaMarkNS;
layers = (
{
anchors = (
{
name = Anchor31;
position = "{2, 1066}";
},
{
name = _Anchor31;
position = "{-9, 906}";
},
{
name = _Anchor5;
position = "{2, 973}";
}
);
background = {
shapes = (
{
closed = 1;
nodes = (
(56,901,o),
(103,966,o),
(105,1028,c),
(87,1028,l),
(76,985,o),
(46,959,o),
(-7,959,cs),
(-50,959,o),
(-66,976,o),
(-66,1011,cs),
(-66,1015,o),
(-65,1019,o),
(-64,1022,c),
(-82,1024,l),
(-87,1011,o),
(-89,993,o),
(-89,981,cs),
(-89,927,o),
(-62,901,o),
(-10,901,cs)
);
}
);
};
layerId = "A6411EC5-7A77-465E-9F2B-2C7729D1C516";
shapes = (
{
closed = 1;
nodes = (
(56,901,o),
(103,966,o),
(105,1028,c),
(87,1028,l),
(76,985,o),
(46,959,o),
(-7,959,cs),
(-50,959,o),
(-66,976,o),
(-66,1011,cs),
(-66,1015,o),
(-65,1019,o),
(-64,1022,c),
(-82,1024,l),
(-87,1011,o),
(-89,993,o),
(-89,981,cs),
(-89,927,o),
(-62,901,o),
(-10,901,cs)
);
}
);
width = 0;
}
);
unicode = 1624;
},
{
glyphname = NoonGhunnaMarkKshmrNS;
layers = (
{
anchors = (
{
name = Anchor31;
position = "{15, 1147}";
},
{
name = _Anchor31;
position = "{2, 931}";
},
{
name = _Anchor5;
position = "{0, 977}";
}
);
background = {
shapes = (
{
closed = 1;
nodes = (
(-117,936,l),
(-101,1000,o),
(-56,1033,o),
(15,1033,cs),
(79,1033,o),
(98,1004,o),
(98,960,cs),
(98,954,o),
(97,949,o),
(96,945,c),
(121,942,l),
(128,959,o),
(130,985,o),
(130,1002,cs),
(130,1078,o),
(92,1115,o),
(20,1115,cs),
(-75,1115,o),
(-140,1021,o),
(-142,936,c)
);
}
);
};
layerId = "A6411EC5-7A77-465E-9F2B-2C7729D1C516";
shapes = (
{
closed = 1;
nodes = (
(-117,936,l),
(-101,1000,o),
(-56,1033,o),
(15,1033,cs),
(79,1033,o),
(98,1004,o),
(98,960,cs),
(98,954,o),
(97,949,o),
(96,945,c),
(121,942,l),
(128,959,o),
(130,985,o),
(130,1002,cs),
(130,1078,o),
(92,1115,o),
(20,1115,cs),
(-75,1115,o),
(-140,1021,o),
(-142,936,c)
);
}
);
width = 0;
}
);
},
{
glyphname = RadiallahNS;
layers = (
{
anchors = (
{
name = Anchor31;
position = "{0, 1272}";
},
{
name = _Anchor31;
position = "{0, 831}";
},
{
name = _Anchor5;
position = "{0, 918}";
}
);
background = {
shapes = (
{
closed = 1;
nodes = (
(-161,812,l),
(-142,862,o),
(-137,883,o),
(-137,946,c),
(-122,934,o),
(-102,932,o),
(-82,932,cs),
(-31,932,o),
(14,953,o),
(51,995,cs),
(88,1037,o),
(106,1076,o),
(106,1112,cs),
(106,1142,o),
(82,1153,o),
(60,1153,cs),
(-10,1153,o),
(-60,1088,o),
(-118,1010,c),
(-134,1015,o),
(-143,1031,o),
(-144,1057,cs),
(-145,1083,o),
(-149,1106,o),
(-155,1126,c),
(-165,1126,l),
(-180,1091,o),
(-185,1078,o),
(-190,1065,c),
(-190,1055,o),
(-186,1036,o),
(-182,1005,cs),
(-178,974,o),
(-174,937,o),
(-174,870,cs),
(-174,857,o),
(-175,836,o),
(-176,813,c)
);
},
{
closed = 1;
nodes = (
(-81,1002,o),
(-86,1002,o),
(-91,1002,c),
(-75,1021,ls),
(-39,1064,o),
(-9,1083,o),
(24,1083,cs),
(39,1083,o),
(59,1079,o),
(59,1062,cs),
(59,1038,o),
(-3,1001,o),
(-74,1001,c)
);
},
{
closed = 1;
nodes = (
(-15,841,l),
(23,850,o),
(79,864,o),
(113,879,c),
(143,904,o),
(184,987,o),
(207,1096,c),
(191,1099,l),
(174,1053,o),
(158,1019,o),
(143,996,cs),
(110,944,o),
(12,874,o),
(-19,857,c)
);
},
{
closed = 1;
nodes = (
(-44,1139,l),
(-20,1155,o),
(-7,1171,o),
(-7,1182,cs),
(-7,1192,o),
(-19,1204,o),
(-42,1219,c),
(-46,1219,l),
(-59,1205,o),
(-72,1190,o),
(-85,1176,c),
(-85,1171,l),
(-73,1162,o),
(-60,1151,o),
(-48,1139,c)
);
}
);
};
layerId = "A6411EC5-7A77-465E-9F2B-2C7729D1C516";
shapes = (
{
closed = 1;
nodes = (
(-161,812,l),
(-142,862,o),
(-137,883,o),
(-137,946,c),
(-122,934,o),
(-102,932,o),
(-82,932,cs),
(-31,932,o),
(14,953,o),
(51,995,cs),
(88,1037,o),
(106,1076,o),
(106,1112,cs),
(106,1142,o),
(82,1153,o),
(60,1153,cs),
(-10,1153,o),
(-60,1088,o),
(-118,1010,c),
(-134,1015,o),
(-143,1031,o),
(-144,1057,cs),
(-145,1083,o),
(-149,1106,o),
(-155,1126,c),
(-165,1126,l),
(-180,1091,o),
(-185,1078,o),
(-190,1065,c),
(-190,1055,o),
(-186,1036,o),
(-182,1005,cs),
(-178,974,o),
(-174,937,o),
(-174,870,cs),
(-174,857,o),
(-175,836,o),
(-176,813,c)
);
},
{
closed = 1;
nodes = (
(-81,1002,o),
(-86,1002,o),
(-91,1002,c),
(-75,1021,ls),
(-39,1064,o),
(-9,1083,o),
(24,1083,cs),
(39,1083,o),
(59,1079,o),
(59,1062,cs),
(59,1038,o),
(-3,1001,o),
(-74,1001,c)
);
},
{
closed = 1;
nodes = (
(-15,841,l),
(23,850,o),
(79,864,o),
(113,879,c),
(143,904,o),
(184,987,o),
(207,1096,c),
(191,1099,l),
(174,1053,o),
(158,1019,o),
(143,996,cs),
(110,944,o),
(12,874,o),
(-19,857,c)
);
},
{
closed = 1;
nodes = (
(-44,1139,l),
(-20,1155,o),
(-7,1171,o),
(-7,1182,cs),
(-7,1192,o),
(-19,1204,o),
(-42,1219,c),
(-46,1219,l),
(-59,1205,o),
(-72,1190,o),
(-85,1176,c),
(-85,1171,l),
(-73,1162,o),
(-60,1151,o),
(-48,1139,c)
);
}
);
width = 0;
}
);
unicode = 1555;
},
{
glyphname = RahmatullahNS;
layers = (
{
anchors = (
{
name = Anchor31;
position = "{0, 1208}";
},
{
name = _Anchor31;
position = "{0, 866}";
},
{
name = _Anchor5;
position = "{0, 962}";
}
);
background = {
shapes = (
{
closed = 1;
nodes = (
(-133,843,l),
(-122,890,o),
(-96,935,o),
(-56,976,cs),
(-16,1017,o),
(18,1045,o),
(47,1061,cs),
(75,1077,o),
(95,1098,o),
(107,1124,c),
(107,1132,l),
(86,1143,o),
(10,1152,o),
(-26,1152,cs),
(-93,1152,o),
(-117,1129,o),
(-138,1062,c),
(-120,1058,l),
(-109,1081,o),
(-96,1086,o),
(-60,1086,cs),
(-46,1086,ls),
(-10,1086,o),
(17,1082,o),
(22,1078,c),
(-93,1002,o),
(-138,940,o),
(-166,867,c),
(-143,843,l)
);
},
{
closed = 1;
nodes = (
(-39,856,l),
(16,870,o),
(45,877,o),
(89,894,c),
(119,919,o),
(160,1002,o),
(183,1111,c),
(167,1114,l),
(150,1068,o),
(134,1034,o),
(119,1011,cs),
(86,959,o),
(-12,889,o),
(-43,872,c)
);
}
);
};
layerId = "A6411EC5-7A77-465E-9F2B-2C7729D1C516";
shapes = (
{
closed = 1;
nodes = (
(-133,843,l),
(-122,890,o),
(-96,935,o),
(-56,976,cs),
(-16,1017,o),
(18,1045,o),
(47,1061,cs),
(75,1077,o),
(95,1098,o),
(107,1124,c),
(107,1132,l),
(86,1143,o),
(10,1152,o),
(-26,1152,cs),
(-93,1152,o),
(-117,1129,o),
(-138,1062,c),
(-120,1058,l),
(-109,1081,o),
(-96,1086,o),
(-60,1086,cs),
(-46,1086,ls),
(-10,1086,o),
(17,1082,o),
(22,1078,c),
(-93,1002,o),
(-138,940,o),
(-166,867,c),
(-143,843,l)
);
},
{
closed = 1;
nodes = (
(-39,856,l),
(16,870,o),
(45,877,o),
(89,894,c),
(119,919,o),
(160,1002,o),
(183,1111,c),
(167,1114,l),
(150,1068,o),
(134,1034,o),
(119,1011,cs),
(86,959,o),
(-12,889,o),
(-43,872,c)
);
}
);
width = 0;
}
);
unicode = 1554;
},
{
glyphname = SallallahNS;
layers = (
{
anchors = (
{
name = Anchor31;
position = "{0, 1185}";
},
{
name = _Anchor31;
position = "{0, 848}";
},
{
name = _Anchor5;
position = "{0, 921}";
}
);
background = {
shapes = (
{
closed = 1;
nodes = (
(-105,819,l),
(-86,869,o),
(-81,890,o),
(-81,953,c),
(-66,941,o),
(-46,939,o),
(-26,939,cs),
(25,939,o),
(70,960,o),
(107,1002,cs),
(144,1044,o),
(162,1083,o),
(162,1119,cs),
(162,1149,o),
(138,1160,o),
(116,1160,cs),
(46,1160,o),
(-4,1095,o),
(-62,1017,c),
(-78,1022,o),
(-87,1038,o),
(-88,1064,cs),
(-89,1090,o),
(-93,1113,o),
(-99,1133,c),
(-109,1133,l),
(-124,1098,o),
(-129,1085,o),
(-134,1072,c),
(-134,1062,o),
(-130,1043,o),
(-126,1012,cs),
(-122,981,o),
(-118,944,o),
(-118,877,cs),
(-118,864,o),
(-119,843,o),
(-120,820,c)
);
},
{
closed = 1;
nodes = (
(-25,1009,o),
(-30,1009,o),
(-35,1009,c),
(-19,1028,ls),
(17,1071,o),
(47,1090,o),
(80,1090,cs),
(95,1090,o),
(115,1086,o),
(115,1069,cs),
(115,1045,o),
(53,1008,o),
(-18,1008,c)
);
}
);
};
layerId = "A6411EC5-7A77-465E-9F2B-2C7729D1C516";
shapes = (
{
closed = 1;
nodes = (
(-105,819,l),
(-86,869,o),
(-81,890,o),
(-81,953,c),
(-66,941,o),
(-46,939,o),
(-26,939,cs),
(25,939,o),
(70,960,o),
(107,1002,cs),
(144,1044,o),
(162,1083,o),
(162,1119,cs),
(162,1149,o),
(138,1160,o),
(116,1160,cs),
(46,1160,o),
(-4,1095,o),
(-62,1017,c),
(-78,1022,o),
(-87,1038,o),
(-88,1064,cs),
(-89,1090,o),
(-93,1113,o),
(-99,1133,c),
(-109,1133,l),
(-124,1098,o),
(-129,1085,o),
(-134,1072,c),
(-134,1062,o),
(-130,1043,o),
(-126,1012,cs),
(-122,981,o),
(-118,944,o),
(-118,877,cs),
(-118,864,o),
(-119,843,o),
(-120,820,c)
);
},
{
closed = 1;
nodes = (
(-25,1009,o),
(-30,1009,o),
(-35,1009,c),
(-19,1028,ls),
(17,1071,o),
(47,1090,o),
(80,1090,cs),
(95,1090,o),
(115,1086,o),
(115,1069,cs),
(115,1045,o),
(53,1008,o),
(-18,1008,c)
);
}
);
width = 0;
}
);
unicode = 1552;
},
{
glyphname = ShaddaNS;
layers = (
{
anchors = (
{
name = Anchor31;
position = "{0, 1090}";
},
{
name = _Anchor31;
position = "{0, 892}";
},
{
name = _Anchor5;
position = "{0, 939}";
}
);
background = {
shapes = (
{
closed = 1;
nodes = (
(-45,862,o),
(-18,899,o),
(-6,938,c),
(1,932,o),
(15,928,o),
(27,928,cs),
(92,928,o),
(125,994,o),
(125,1060,cs),
(125,1077,l),
(98,1072,l),
(92,1023,o),
(75,996,o),
(45,996,cs),
(30,996,o),
(19,1003,o),
(13,1016,c),
(-10,1011,l),
(-22,956,o),
(-39,928,o),
(-74,928,cs),
(-93,928,o),
(-103,938,o),
(-105,958,cs),
(-106,970,l),
(-129,966,l),
(-136,948,o),
(-139,934,o),
(-139,917,cs),
(-139,883,o),
(-117,862,o),
(-88,862,cs)
);
}
);
};
layerId = "A6411EC5-7A77-465E-9F2B-2C7729D1C516";
shapes = (
{
closed = 1;
nodes = (
(-45,862,o),
(-18,899,o),
(-6,938,c),
(1,932,o),
(15,928,o),
(27,928,cs),
(92,928,o),
(125,994,o),
(125,1060,cs),
(125,1077,l),
(98,1072,l),
(92,1023,o),
(75,996,o),
(45,996,cs),
(30,996,o),
(19,1003,o),
(13,1016,c),
(-10,1011,l),
(-22,956,o),
(-39,928,o),
(-74,928,cs),
(-93,928,o),
(-103,938,o),
(-105,958,cs),
(-106,970,l),
(-129,966,l),
(-136,948,o),
(-139,934,o),
(-139,917,cs),
(-139,883,o),
(-117,862,o),
(-88,862,cs)
);
}
);
width = 0;
}
);
unicode = 1617;
},
{
glyphname = SharetKafNS;
layers = (
{
anchors = (
{
name = _Anchor17;
position = "{479, 549}";
}
);
background = {
shapes = (
{
closed = 1;
nodes = (
(352,371,l),
(397,381,o),
(428,392,o),
(445,405,cs),
(461,418,o),
(482,438,o),
(507,467,cs),
(532,496,o),
(545,522,o),
(545,546,cs),
(545,560,o),
(540,572,o),
(529,581,cs),
(518,590,o),
(512,599,o),
(512,608,cs),
(512,626,o),
(520,642,o),
(554,667,c),
(568,711,l),
(559,719,l),
(512,688,o),
(416,591,o),
(416,538,cs),
(416,525,o),
(421,513,o),
(431,502,cs),
(440,492,o),
(445,482,o),
(445,475,cs),
(445,456,o),
(405,427,o),
(343,388,c)
);
}
);
};
layerId = "A6411EC5-7A77-465E-9F2B-2C7729D1C516";
shapes = (
{
closed = 1;
nodes = (
(352,371,l),
(397,381,o),
(428,392,o),
(445,405,cs),
(461,418,o),
(482,438,o),
(507,467,cs),
(532,496,o),
(545,522,o),
(545,546,cs),
(545,560,o),
(540,572,o),
(529,581,cs),
(518,590,o),
(512,599,o),
(512,608,cs),
(512,626,o),
(520,642,o),
(554,667,c),
(568,711,l),
(559,719,l),
(512,688,o),
(416,591,o),
(416,538,cs),
(416,525,o),
(421,513,o),
(431,502,cs),
(440,492,o),
(445,482,o),
(445,475,cs),
(445,456,o),
(405,427,o),
(343,388,c)
);
}
);
width = 0;
}
);
},
{
glyphname = SharetYehPashtoNS;
layers = (
{
anchors = (
{
name = _Anchor21;
position = "{217, 355}";
}
);
background = {
shapes = (
{
closed = 1;
nodes = (
(-104,123,l),
(-68,160,o),
(-32,187,o),
(12,203,cs),
(40,213,o),
(70,218,o),
(106,218,cs),
(117,218,o),
(139,241,o),
(172,286,cs),
(205,331,o),
(221,358,o),
(221,369,cs),
(221,380,o),
(212,385,o),
(193,385,cs),
(109,385,o),
(-36,301,o),
(-131,140,c)
);
}
);
};
layerId = "A6411EC5-7A77-465E-9F2B-2C7729D1C516";
shapes = (
{
closed = 1;
nodes = (
(-104,123,l),
(-68,160,o),
(-32,187,o),
(12,203,cs),
(40,213,o),
(70,218,o),
(106,218,cs),
(117,218,o),
(139,241,o),
(172,286,cs),
(205,331,o),
(221,358,o),
(221,369,cs),
(221,380,o),
(212,385,o),
(193,385,cs),
(109,385,o),
(-36,301,o),
(-131,140,c)
);
}
);
width = 0;
}
);
},
{
glyphname = SukunHahNS;
layers = (
{
anchors = (
{
name = Anchor31;
position = "{0, 1103}";
},
{
name = _Anchor31;
position = "{0, 881}";
},
{
name = _Anchor5;
position = "{0, 969}";
}
);
background = {
shapes = (
{
closed = 1;
nodes = (
(-109,870,l),
(-72,874,o),
(-48,879,o),
(-13,886,cs),
(37,896,o),
(122,971,o),
(127,981,c),
(123,998,l),
(44,1032,o),
(-6,1038,o),
(-31,1038,cs),
(-71,1038,o),
(-96,998,o),
(-109,968,c),
(-92,963,l),
(-85,970,o),
(-77,974,o),
(-61,974,cs),
(-29,974,o),
(12,963,o),
(41,952,c),
(41,949,l),
(33,938,o),
(-24,916,o),
(-111,892,c)
);
}
);
};
layerId = "A6411EC5-7A77-465E-9F2B-2C7729D1C516";
shapes = (
{
closed = 1;
nodes = (
(-109,870,l),
(-72,874,o),
(-48,879,o),
(-13,886,cs),
(37,896,o),
(122,971,o),
(127,981,c),
(123,998,l),
(44,1032,o),
(-6,1038,o),
(-31,1038,cs),
(-71,1038,o),
(-96,998,o),
(-109,968,c),
(-92,963,l),
(-85,970,o),
(-77,974,o),
(-61,974,cs),
(-29,974,o),
(12,963,o),
(41,952,c),
(41,949,l),
(33,938,o),
(-24,916,o),
(-111,892,c)
);
}
);
width = 0;
}
);
unicode = 1761;
},
{
glyphname = SukunJazmNS;
layers = (
{
anchors = (
{
name = Anchor31;
position = "{0, 1123}";
},
{
name = _Anchor31;
position = "{0, 868}";
},
{
name = _Anchor5;
position = "{0, 976}";
}
);
background = {
shapes = (
{
closed = 1;
nodes = (
(-137,869,l),
(-105,905,o),
(-54,945,o),
(-6,982,c),
(88,923,o),
(103,916,o),
(133,891,c),
(148,899,l),
(145,925,o),
(138,946,o),
(125,962,cs),
(97,996,o),
(29,1045,o),
(-1,1063,c),
(-14,1061,l),
(-102,981,o),
(-150,931,o),
(-153,872,c)
);
}
);
};
layerId = "A6411EC5-7A77-465E-9F2B-2C7729D1C516";
shapes = (
{
closed = 1;
nodes = (
(-137,869,l),
(-105,905,o),
(-54,945,o),
(-6,982,c),
(88,923,o),
(103,916,o),
(133,891,c),
(148,899,l),
(145,925,o),
(138,946,o),
(125,962,cs),
(97,996,o),
(29,1045,o),
(-1,1063,c),
(-14,1061,l),
(-102,981,o),
(-150,931,o),
(-153,872,c)
);
}
);
width = 0;
}
);
unicode = 1618;
},
{
glyphname = SukunNS;
layers = (
{
anchors = (
{
name = Anchor31;
position = "{0, 1127}";
},
{
name = _Anchor31;
position = "{-9, 869}";
},
{
name = _Anchor5;
position = "{0, 967}";
}
);
background = {
shapes = (
{
closed = 1;
nodes = (
(44,860,o),
(82,901,o),
(82,962,cs),
(82,1016,o),
(50,1065,o),
(7,1065,cs),
(-50,1065,o),
(-84,998,o),
(-84,940,cs),
(-84,897,o),
(-59,860,o),
(-10,860,cs)
);
},
{
closed = 1;
nodes = (
(-27,920,o),
(-50,926,o),
(-50,956,cs),
(-50,983,o),
(-28,1003,o),
(-1,1003,cs),
(30,1003,o),
(49,987,o),
(49,964,cs),
(49,936,o),
(26,920,o),
(-3,920,cs)
);
}
);
};
layerId = "A6411EC5-7A77-465E-9F2B-2C7729D1C516";
shapes = (
{
closed = 1;
nodes = (
(44,860,o),
(82,901,o),
(82,962,cs),
(82,1016,o),
(50,1065,o),
(7,1065,cs),
(-50,1065,o),
(-84,998,o),
(-84,940,cs),
(-84,897,o),
(-59,860,o),
(-10,860,cs)
);
},
{
closed = 1;
nodes = (
(-27,920,o),
(-50,926,o),
(-50,956,cs),
(-50,983,o),
(-28,1003,o),
(-1,1003,cs),
(30,1003,o),
(49,987,o),
(49,964,cs),
(49,936,o),
(26,920,o),
(-3,920,cs)
);
}
);
width = 0;
}
);
},
{
glyphname = SukunZeroNS;
layers = (
{
anchors = (
{
name = Anchor31;
position = "{0, 1165}";
},
{
name = _Anchor31;
position = "{1, 857}";
},
{
name = _Anchor5;
position = "{0, 955}";
}
);
background = {
shapes = (
{
closed = 1;
nodes = (
(65,845,o),
(111,894,o),
(111,968,cs),
(111,1047,o),
(75,1105,o),
(-3,1105,cs),
(-66,1105,o),
(-113,1054,o),
(-113,983,cs),
(-113,895,o),
(-70,845,o),
(1,845,cs)
);
},
{
closed = 1;
nodes = (
(-23,872,o),
(-35,918,o),
(-35,1011,cs),
(-35,1061,o),
(-25,1078,o),
(-3,1078,cs),
(21,1078,o),
(33,1032,o),
(33,939,cs),
(33,889,o),
(23,872,o),
(1,872,cs)
);
}
);
};
layerId = "A6411EC5-7A77-465E-9F2B-2C7729D1C516";
shapes = (
{
closed = 1;
nodes = (
(65,845,o),
(111,894,o),
(111,968,cs),
(111,1047,o),
(75,1105,o),
(-3,1105,cs),
(-66,1105,o),
(-113,1054,o),
(-113,983,cs),
(-113,895,o),
(-70,845,o),
(1,845,cs)
);
},
{
closed = 1;
nodes = (
(-23,872,o),
(-35,918,o),
(-35,1011,cs),
(-35,1061,o),
(-25,1078,o),
(-3,1078,cs),
(21,1078,o),
(33,1032,o),
(33,939,cs),
(33,889,o),
(23,872,o),
(1,872,cs)
);
}
);
width = 0;
}
);
unicode = 1760;
},
{
glyphname = TahSmallBelowNS;
layers = (
{
anchors = (
{
name = Anchor33;
position = "{0, -445}";
},
{
name = _Anchor33;
position = "{10, -36}";
},
{
name = _Anchor9;
position = "{-1, -118}";
}
);
background = {
shapes = (
{
closed = 1;
nodes = (
(13,-408,o),
(58,-390,o),
(92,-353,cs),
(125,-317,o),
(142,-281,o),
(142,-246,cs),
(142,-227,o),
(129,-210,o),
(101,-210,cs),
(65,-210,o),
(30,-229,o),
(-5,-271,c),
(-6,-268,l),
(6,-230,o),
(9,-214,o),
(10,-195,cs),
(12,-162,ls),
(16,-96,o),
(21,-58,o),
(27,-39,c),
(10,-36,l),
(-15,-77,o),
(-27,-109,o),
(-29,-144,cs),
(-32,-191,o),
(-34,-237,o),
(-37,-284,cs),
(-40,-324,o),
(-56,-342,o),
(-77,-363,cs),
(-79,-365,o),
(-80,-366,o),
(-82,-368,c),
(-99,-373,o),
(-123,-376,o),
(-150,-380,c),
(-152,-401,l),
(-123,-407,o),
(-82,-408,o),
(-44,-408,cs)
);
},
{
closed = 1;
nodes = (
(-15,-330,ls),
(14,-292,o),
(45,-273,o),
(72,-273,cs),
(82,-273,o),
(99,-276,o),
(99,-292,cs),
(99,-308,o),
(62,-336,o),
(-36,-358,c)
);
}
);
};
layerId = "A6411EC5-7A77-465E-9F2B-2C7729D1C516";
shapes = (
{
closed = 1;
nodes = (
(13,-408,o),
(58,-390,o),
(92,-353,cs),
(125,-317,o),
(142,-281,o),
(142,-246,cs),
(142,-227,o),
(129,-210,o),
(101,-210,cs),
(65,-210,o),
(30,-229,o),
(-5,-271,c),
(-6,-268,l),
(6,-230,o),
(9,-214,o),
(10,-195,cs),
(12,-162,ls),
(16,-96,o),
(21,-58,o),
(27,-39,c),
(10,-36,l),
(-15,-77,o),
(-27,-109,o),
(-29,-144,cs),
(-32,-191,o),
(-34,-237,o),
(-37,-284,cs),
(-40,-324,o),
(-56,-342,o),
(-77,-363,cs),
(-79,-365,o),
(-80,-366,o),
(-82,-368,c),
(-99,-373,o),
(-123,-376,o),
(-150,-380,c),
(-152,-401,l),
(-123,-407,o),
(-82,-408,o),
(-44,-408,cs)
);
},
{
closed = 1;
nodes = (
(-15,-330,ls),
(14,-292,o),
(45,-273,o),
(72,-273,cs),
(82,-273,o),
(99,-276,o),
(99,-292,cs),
(99,-308,o),
(62,-336,o),
(-36,-358,c)
);
}
);
width = 0;
}
);
},
{
glyphname = TahSmallEnclNS;
layers = (
{
anchors = (
{
name = _Anchor17;
position = "{-5, -271}";
}
);
background = {
shapes = (
{
closed = 1;
nodes = (
(13,-408,o),
(58,-390,o),
(92,-353,cs),
(125,-317,o),
(142,-281,o),
(142,-246,cs),
(142,-227,o),
(129,-210,o),
(101,-210,cs),
(65,-210,o),
(30,-229,o),
(-5,-271,c),
(-6,-268,l),
(6,-230,o),
(9,-214,o),
(10,-195,cs),
(12,-162,ls),
(16,-96,o),
(21,-58,o),
(27,-39,c),
(10,-36,l),
(-15,-77,o),
(-27,-109,o),
(-29,-144,cs),
(-37,-284,ls),
(-39,-316,o),
(-45,-331,o),
(-82,-368,c),
(-99,-373,o),
(-123,-376,o),
(-150,-380,c),
(-152,-401,l),
(-123,-407,o),
(-82,-408,o),
(-44,-408,cs)
);
},
{
closed = 1;
nodes = (
(-15,-330,ls),
(14,-292,o),
(45,-273,o),
(72,-273,cs),
(82,-273,o),
(99,-276,o),
(99,-292,cs),
(99,-308,o),
(62,-336,o),
(-36,-358,c)
);
}
);
};
layerId = "A6411EC5-7A77-465E-9F2B-2C7729D1C516";
shapes = (
{
alignment = -1;
ref = TahSmallBelowNS;
}
);
width = 0;
}
);
},
{
glyphname = Tah2DotsEnclNS;
layers = (
{
anchors = (
{
name = _Anchor17;
position = "{5, -190}";
}
);
background = {
shapes = (
{
closed = 1;
nodes = (
(65,-282,o),
(121,-197,o),
(121,-147,cs),
(121,-124,o),
(110,-112,o),
(87,-112,cs),
(53,-112,o),
(24,-131,o),
(-3,-165,c),
(6,-138,o),
(8,-115,o),
(9,-100,cs),
(13,-38,l),
(16,-11,o),
(19,23,o),
(24,32,c),
(9,35,l),
(-10,-1,o),
(-19,-19,o),
(-22,-53,cs),
(-25,-94,o),
(-28,-135,o),
(-31,-177,cs),
(-32,-202,o),
(-37,-214,o),
(-62,-240,c),
(-69,-248,l),
(-85,-252,o),
(-100,-255,o),
(-127,-258,c),
(-128,-276,l),
(-106,-279,o),
(-74,-282,o),
(-37,-282,cs)
);
},
{
closed = 1;
nodes = (
(-46,-446,l),
(-15,-423,o),
(-3,-412,o),
(5,-400,c),
(21,-413,o),
(25,-416,o),
(43,-434,c),
(49,-434,l),
(84,-410,o),
(105,-384,o),
(105,-367,cs),
(105,-351,o),
(87,-332,o),
(52,-310,c),
(45,-310,l),
(33,-319,o),
(18,-335,o),
(0,-355,c),
(-19,-336,o),
(-20,-335,o),
(-43,-321,c),
(-49,-321,l),
(-63,-333,o),
(-93,-364,o),
(-109,-388,c),
(-109,-394,l),
(-96,-404,o),
(-65,-429,o),
(-52,-446,c)
);
},
{
closed = 1;
nodes = (
(0,-191,o),
(36,-166,o),
(62,-166,cs),
(73,-166,o),
(84,-169,o),
(84,-183,cs),
(84,-205,o),
(5,-230,o),
(-29,-239,c)
);
}
);
};
layerId = "A6411EC5-7A77-465E-9F2B-2C7729D1C516";
shapes = (
{
closed = 1;
nodes = (
(65,-282,o),
(121,-197,o),
(121,-147,cs),
(121,-124,o),
(110,-112,o),
(87,-112,cs),
(53,-112,o),
(24,-131,o),
(-3,-165,c),
(6,-138,o),
(8,-115,o),
(9,-100,c),
(13,-38,l),
(16,-11,o),
(19,23,o),
(24,32,c),
(9,35,l),
(-10,-1,o),
(-19,-19,o),
(-22,-53,cs),
(-25,-94,o),
(-28,-135,o),
(-31,-177,cs),
(-32,-202,o),
(-37,-214,o),
(-62,-240,c),
(-69,-248,l),
(-85,-252,o),
(-100,-255,o),
(-127,-258,c),
(-128,-276,l),
(-106,-279,o),
(-74,-282,o),
(-37,-282,cs)
);
},
{
closed = 1;
nodes = (
(-46,-446,l),
(-15,-423,o),
(-3,-412,o),
(5,-400,c),
(21,-413,o),
(25,-416,o),
(43,-434,c),
(49,-434,l),
(84,-410,o),
(105,-384,o),
(105,-367,cs),
(105,-351,o),
(87,-332,o),
(52,-310,c),
(45,-310,l),
(33,-319,o),
(18,-335,o),
(0,-355,c),
(-19,-336,o),
(-20,-335,o),
(-43,-321,c),
(-49,-321,l),
(-63,-333,o),
(-93,-364,o),
(-109,-388,c),
(-109,-394,l),
(-96,-404,o),
(-65,-429,o),
(-52,-446,c)
);
},
{
closed = 1;
nodes = (
(0,-191,o),
(36,-166,o),
(62,-166,cs),
(73,-166,o),
(84,-169,o),
(84,-183,cs),
(84,-205,o),
(5,-230,o),
(-29,-239,c)
);
}
);
width = 0;
}
);
},
{
glyphname = Tah2DotsBelowNS;
layers = (
{
anchors = (
{
name = Anchor33;
position = "{0, -424}";
},
{
name = _Anchor33;
position = "{5, -58}";
},
{
name = _Anchor9;
position = "{0, -158}";
}
);
background = {
shapes = (
{
closed = 1;
nodes = (
(43,-257,o),
(81,-200,o),
(81,-166,cs),
(81,-150,o),
(73,-142,o),
(58,-142,cs),
(35,-142,o),
(15,-155,o),
(-3,-178,c),
(3,-160,o),
(4,-144,o),
(5,-134,c),
(6,-117,l),
(8,-92,l),
(10,-74,o),
(12,-51,o),
(15,-45,c),
(5,-43,l),
(-8,-67,o),
(-14,-79,o),
(-16,-102,cs),
(-22,-186,ls),
(-23,-204,o),
(-26,-212,o),
(-48,-234,c),
(-59,-237,o),
(-69,-239,o),
(-87,-241,c),
(-88,-253,l),
(-73,-255,o),
(-51,-257,o),
(-26,-257,cs)
);
},
{
closed = 1;
nodes = (
(-32,-368,l),
(-11,-353,o),
(-3,-345,o),
(2,-337,c),
(13,-346,o),
(16,-348,o),
(28,-360,c),
(32,-360,l),
(56,-344,o),
(70,-326,o),
(70,-315,cs),
(70,-304,o),
(58,-291,o),
(34,-276,c),
(29,-276,l),
(21,-282,o),
(11,-293,o),
(-1,-307,c),
(-14,-294,o),
(-15,-293,o),
(-30,-284,c),
(-34,-284,l),
(-44,-292,o),
(-64,-313,o),
(-75,-329,c),
(-75,-333,l),
(-66,-340,o),
(-45,-357,o),
(-36,-368,c)
);
},
{
closed = 1;
nodes = (
(-1,-196,o),
(23,-179,o),
(41,-179,cs),
(48,-179,o),
(56,-181,o),
(56,-190,cs),
(56,-205,o),
(2,-222,o),
(-21,-228,c)
);
}
);
};
layerId = "A6411EC5-7A77-465E-9F2B-2C7729D1C516";
shapes = (
{
alignment = -1;
ref = Tah2DotsEnclNS;
}
);
width = 0;
}
);
},
{
glyphname = Tah2DotsAboveNS;
layers = (
{
anchors = (
{
name = Anchor31;
position = "{0, 1331}";
},
{
name = _Anchor31;
position = "{0, 811}";
},
{
name = _Anchor5;
position = "{0, 912}";
}
);
background = {
shapes = (
{
closed = 1;
nodes = (
(12,949,o),
(52,965,o),
(83,997,cs),
(114,1029,o),
(129,1062,o),
(129,1096,cs),
(129,1111,o),
(118,1128,o),
(92,1128,cs),
(53,1128,o),
(23,1106,o),
(-4,1073,c),
(2,1094,o),
(7,1109,o),
(9,1142,cs),
(11,1172,ls),
(14,1216,o),
(17,1260,o),
(25,1283,c),
(10,1286,l),
(-12,1248,o),
(-24,1221,o),
(-26,1187,cs),
(-27,1161,o),
(-29,1134,o),
(-30,1108,cs),
(-32,1077,o),
(-34,1056,o),
(-35,1043,cs),
(-36,1029,o),
(-49,1010,o),
(-74,985,c),
(-90,980,o),
(-121,976,o),
(-135,974,c),
(-137,955,l),
(-110,950,o),
(-70,949,o),
(-39,949,cs)
);
},
{
closed = 1;
nodes = (
(-50,780,l),
(-25,796,o),
(-6,814,o),
(3,828,c),
(28,805,o),
(36,798,o),
(41,792,c),
(47,792,l),
(87,818,o),
(108,843,o),
(108,860,cs),
(108,879,o),
(92,894,o),
(51,921,c),
(45,921,l),
(29,908,o),
(15,893,o),
(-1,874,c),
(-10,885,o),
(-25,897,o),
(-46,909,c),
(-52,909,l),
(-67,898,o),
(-102,861,o),
(-115,840,c),
(-115,833,l),
(-95,817,o),
(-76,802,o),
(-56,780,c)
);
},
{
closed = 1;
nodes = (
(-7,1030,o),
(28,1071,o),
(67,1071,cs),
(76,1071,o),
(92,1070,o),
(92,1054,cs),
(92,1039,o),
(62,1018,o),
(-3,1000,cs),
(-12,997,o),
(-22,996,o),
(-32,994,c)
);
}
);
};
layerId = "A6411EC5-7A77-465E-9F2B-2C7729D1C516";
shapes = (
{
closed = 1;
nodes = (
(12,949,o),
(52,965,o),
(83,997,cs),
(114,1029,o),
(129,1062,o),
(129,1096,cs),
(129,1111,o),
(118,1128,o),
(92,1128,cs),
(53,1128,o),
(23,1106,o),
(-4,1073,c),
(2,1094,o),
(7,1109,o),
(9,1142,cs),
(11,1172,ls),
(14,1216,o),
(17,1260,o),
(25,1283,c),
(10,1286,l),
(-12,1248,o),
(-24,1221,o),
(-26,1187,cs),
(-27,1161,o),
(-29,1134,o),
(-30,1108,cs),
(-32,1077,o),
(-34,1056,o),
(-35,1043,cs),
(-36,1029,o),
(-49,1010,o),
(-74,985,c),
(-90,980,o),
(-121,976,o),
(-135,974,c),
(-137,955,l),
(-110,950,o),
(-70,949,o),
(-39,949,cs)
);
},
{
closed = 1;
nodes = (
(-50,780,l),
(-25,796,o),
(-6,814,o),
(3,828,c),
(28,805,o),
(36,798,o),
(41,792,c),
(47,792,l),
(87,818,o),
(108,843,o),
(108,860,cs),
(108,879,o),
(92,894,o),
(51,921,c),
(45,921,l),
(29,908,o),
(15,893,o),
(-1,874,c),
(-10,885,o),
(-25,897,o),
(-46,909,c),
(-52,909,l),
(-67,898,o),
(-102,861,o),
(-115,840,c),
(-115,833,l),
(-95,817,o),
(-76,802,o),
(-56,780,c)
);
},
{
closed = 1;
nodes = (
(-7,1030,o),
(28,1071,o),
(67,1071,cs),
(76,1071,o),
(92,1070,o),
(92,1054,cs),
(92,1039,o),
(62,1018,o),
(-3,1000,cs),
(-12,997,o),
(-22,996,o),
(-32,994,c)
);
}
);
width = 0;
}
);
},
{
glyphname = TakhallusNS;
layers = (
{
anchors = (
{
name = Anchor31;
position = "{0, 1127}";
},
{
name = _Anchor31;
position = "{0, 908}";
},
{
name = _Anchor5;
position = "{0, 995}";
}
);
background = {
shapes = (
{
closed = 1;
nodes = (
(-105,882,o),
(-75,890,o),
(-47,902,cs),
(-24,911,o),
(-3,923,o),
(13,935,cs),
(42,956,o),
(61,973,o),
(66,973,cs),
(70,973,o),
(77,969,o),
(87,960,cs),
(97,951,o),
(109,947,o),
(123,947,cs),
(159,947,o),
(184,975,o),
(207,1055,c),
(185,1060,l),
(174,1032,o),
(163,1017,o),
(141,1017,cs),
(133,1017,o),
(125,1021,o),
(117,1029,cs),
(108,1037,o),
(100,1041,o),
(93,1041,cs),
(86,1041,o),
(77,1033,o),
(65,1020,cs),
(13,962,o),
(-96,946,o),
(-234,936,c),
(-237,925,l),
(-224,914,o),
(-149,882,o),
(-132,882,cs)
);
}
);
};
layerId = "A6411EC5-7A77-465E-9F2B-2C7729D1C516";
shapes = (
{
closed = 1;
nodes = (
(-105,882,o),
(-75,890,o),
(-47,902,cs),
(-24,911,o),
(-3,923,o),
(13,935,cs),
(42,956,o),
(61,973,o),
(66,973,cs),
(70,973,o),
(77,969,o),
(87,960,cs),
(97,951,o),
(109,947,o),
(123,947,cs),
(159,947,o),
(184,975,o),
(207,1055,c),
(185,1060,l),
(174,1032,o),
(163,1017,o),
(141,1017,cs),
(133,1017,o),
(125,1021,o),
(117,1029,c),
(108,1037,o),
(100,1041,o),
(93,1041,cs),
(86,1041,o),
(77,1033,o),
(65,1020,cs),
(13,962,o),
(-96,946,o),
(-234,936,c),
(-237,925,l),
(-224,914,o),
(-149,882,o),
(-132,882,cs)
);
}
);
width = 0;
}
);
unicode = 1556;
},
{
glyphname = AlefInferiorYB;
layers = (
{
anchors = (
{
name = Anchor28;
position = "{1, -338}";
},
{
name = _Anchor28;
position = "{29, -8}";
}
);
background = {
shapes = (
{
closed = 1;
nodes = (
(-6,-281,l),
(16,-229,o),
(31,-177,o),
(34,-129,cs),
(35,-109,ls),
(38,-34,o),
(40,-11,o),
(45,1,c),
(28,4,l),
(0,-50,o),
(-9,-68,o),
(-11,-125,cs),
(-13,-173,ls),
(-15,-226,o),
(-19,-259,o),
(-23,-278,c)
);
}
);
};
layerId = "A6411EC5-7A77-465E-9F2B-2C7729D1C516";
shapes = (
{
closed = 1;
nodes = (
(-6,-281,l),
(16,-229,o),
(31,-177,o),
(34,-129,cs),
(35,-109,ls),
(38,-34,o),
(40,-11,o),
(45,1,c),
(28,4,l),
(0,-50,o),
(-9,-68,o),
(-11,-125,cs),
(-13,-173,ls),
(-15,-226,o),
(-19,-259,o),
(-23,-278,c)
);
}
);
width = 0;
}
);
},
{
glyphname = KasraYB;
layers = (
{
anchors = (
{
name = Anchor28;
position = "{0, -229}";
},
{
name = _Anchor28;
position = "{0, -81}";
}
);
background = {
shapes = (
{
closed = 1;
nodes = (
(-121,-197,l),
(-110,-185,o),
(-91,-173,o),
(-63,-158,cs),
(90,-74,ls),
(121,-57,o),
(138,-35,o),
(150,1,c),
(137,8,l),
(132,4,o),
(124,-1,o),
(113,-7,cs),
(62,-37,o),
(11,-64,o),
(-40,-93,cs),
(-108,-132,o),
(-124,-151,o),
(-133,-189,c)
);
}
);
};
layerId = "A6411EC5-7A77-465E-9F2B-2C7729D1C516";
shapes = (
{
closed = 1;
nodes = (
(-121,-197,l),
(-110,-185,o),
(-91,-173,o),
(-63,-158,cs),
(90,-74,ls),
(121,-57,o),
(138,-35,o),
(150,1,c),
(137,8,l),
(132,4,o),
(124,-1,o),
(113,-7,cs),
(62,-37,o),
(11,-64,o),
(-40,-93,cs),
(-108,-132,o),
(-124,-151,o),
(-133,-189,c)
);
}
);
width = 0;
}
);
},
{
glyphname = KasratanYB;
layers = (
{
anchors = (
{
name = Anchor28;
position = "{0, -328}";
},
{
name = _Anchor28;
position = "{0, -81}";
}
);
background = {
shapes = (
{
closed = 1;
nodes = (
(-121,-197,l),
(-110,-185,o),
(-91,-173,o),
(-63,-158,cs),
(90,-74,ls),
(121,-57,o),
(138,-35,o),
(150,1,c),
(137,8,l),
(132,4,o),
(124,-1,o),
(113,-7,cs),
(62,-37,o),
(11,-64,o),
(-40,-93,cs),
(-108,-132,o),
(-124,-151,o),
(-133,-189,c)
);
},
{
closed = 1;
nodes = (
(-131,-300,l),
(-120,-288,o),
(-101,-276,o),
(-73,-261,cs),
(80,-177,ls),
(111,-160,o),
(128,-138,o),
(140,-102,c),
(127,-95,l),
(122,-99,o),
(114,-104,o),
(103,-110,cs),
(51,-138,o),
(1,-167,o),
(-50,-196,cs),
(-118,-235,o),
(-134,-254,o),
(-143,-292,c)
);
}
);
};
layerId = "A6411EC5-7A77-465E-9F2B-2C7729D1C516";
shapes = (
{
closed = 1;
nodes = (
(-121,-197,l),
(-110,-185,o),
(-91,-173,o),
(-63,-158,cs),
(90,-74,ls),
(121,-57,o),
(138,-35,o),
(150,1,c),
(137,8,l),
(132,4,o),
(124,-1,o),
(113,-7,cs),
(62,-37,o),
(11,-64,o),
(-40,-93,cs),
(-108,-132,o),
(-124,-151,o),
(-133,-189,c)
);
},
{
closed = 1;
nodes = (
(-131,-300,l),
(-120,-288,o),
(-101,-276,o),
(-73,-261,cs),
(80,-177,ls),
(111,-160,o),
(128,-138,o),
(140,-102,c),
(127,-95,l),
(122,-99,o),
(114,-104,o),
(103,-110,cs),
(51,-138,o),
(1,-167,o),
(-50,-196,cs),
(-118,-235,o),
(-134,-254,o),
(-143,-292,c)
);
}
);
width = 0;
}
);
},
{
glyphname = OneDotBelowYB;
layers = (
{
anchors = (
{
name = Anchor28;
position = "{0, -257}";
},
{
name = _Anchor28;
position = "{0, -99}";
}
);
background = {
shapes = (
{
closed = 1;
nodes = (
(3,-196,l),
(49,-164,o),
(95,-124,o),
(95,-91,cs),
(95,-59,o),
(64,-34,o),
(9,1,c),
(-1,1,l),
(-18,-10,o),
(-79,-77,o),
(-97,-105,c),
(-97,-115,l),
(-68,-136,o),
(-48,-154,o),
(-5,-196,c)
);
}
);
};
layerId = "A6411EC5-7A77-465E-9F2B-2C7729D1C516";
shapes = (
{
closed = 1;
nodes = (
(3,-196,l),
(49,-164,o),
(95,-124,o),
(95,-91,cs),
(95,-59,o),
(64,-34,o),
(9,1,c),
(-1,1,l),
(-18,-10,o),
(-79,-77,o),
(-97,-105,c),
(-97,-115,l),
(-68,-136,o),
(-48,-154,o),
(-5,-196,c)
);
}
);
width = 0;
}
);
},
{
glyphname = ThreeDotsDownBelowYB;
layers = (
{
anchors = (
{
name = Anchor28;
position = "{0, -412}";
},
{
name = _Anchor28;
position = "{0, -98}";
}
);
background = {
shapes = (
{
closed = 1;
nodes = (
(-72,-207,l),
(-35,-180,o),
(-8,-154,o),
(6,-133,c),
(53,-173,o),
(60,-180,o),
(68,-189,c),
(76,-189,l),
(122,-157,o),
(168,-117,o),
(168,-84,cs),
(168,-52,o),
(137,-27,o),
(82,8,c),
(72,8,l),
(61,1,o),
(32,-29,o),
(2,-63,c),
(-11,-49,o),
(-32,-32,o),
(-66,-10,c),
(-76,-10,l),
(-93,-21,o),
(-154,-88,o),
(-172,-116,c),
(-172,-126,l),
(-143,-147,o),
(-132,-157,o),
(-80,-207,c)
);
},
{
closed = 1;
nodes = (
(4,-343,l),
(56,-304,o),
(82,-280,o),
(82,-256,cs),
(82,-229,o),
(43,-198,o),
(11,-176,c),
(3,-176,l),
(-20,-193,o),
(-62,-233,o),
(-83,-264,c),
(-83,-272,l),
(-57,-292,o),
(-31,-317,o),
(-5,-343,c)
);
}
);
};
layerId = "A6411EC5-7A77-465E-9F2B-2C7729D1C516";
shapes = (
{
closed = 1;
nodes = (
(-72,-207,l),
(-35,-180,o),
(-8,-154,o),
(6,-133,c),
(53,-173,o),
(60,-180,o),
(68,-189,c),
(76,-189,l),
(122,-157,o),
(168,-117,o),
(168,-84,cs),
(168,-52,o),
(137,-27,o),
(82,8,c),
(72,8,l),
(61,1,o),
(32,-29,o),
(2,-63,c),
(-11,-49,o),
(-32,-32,o),
(-66,-10,c),
(-76,-10,l),
(-93,-21,o),
(-154,-88,o),
(-172,-116,c),
(-172,-126,l),
(-143,-147,o),
(-132,-157,o),
(-80,-207,c)
);
},
{
closed = 1;
nodes = (
(4,-343,l),
(56,-304,o),
(82,-280,o),
(82,-256,cs),
(82,-229,o),
(43,-198,o),
(11,-176,c),
(3,-176,l),
(-20,-193,o),
(-62,-233,o),
(-83,-264,c),
(-83,-272,l),
(-57,-292,o),
(-31,-317,o),
(-5,-343,c)
);
}
);
width = 0;
}
);
},
{
glyphname = TwoDotsBelowYB;
layers = (
{
anchors = (
{
name = Anchor28;
position = "{0, -268}";
},
{
name = _Anchor28;
position = "{0, -99}";
}
);
background = {
shapes = (
{
closed = 1;
nodes = (
(-70,-207,l),
(-33,-182,o),
(-5,-157,o),
(10,-134,c),
(26,-147,o),
(42,-162,o),
(70,-189,c),
(78,-189,l),
(124,-157,o),
(170,-117,o),
(170,-84,cs),
(170,-52,o),
(139,-27,o),
(84,8,c),
(74,8,l),
(62,0,o),
(32,-31,o),
(4,-64,c),
(-9,-49,o),
(-30,-32,o),
(-64,-10,c),
(-74,-10,l),
(-91,-21,o),
(-152,-88,o),
(-170,-116,c),
(-170,-126,l),
(-141,-147,o),
(-132,-155,o),
(-78,-207,c)
);
}
);
};
layerId = "A6411EC5-7A77-465E-9F2B-2C7729D1C516";
shapes = (
{
closed = 1;
nodes = (
(-70,-207,l),
(-33,-182,o),
(-5,-157,o),
(10,-134,c),
(26,-147,o),
(42,-162,o),
(70,-189,c),
(78,-189,l),
(124,-157,o),
(170,-117,o),
(170,-84,cs),
(170,-52,o),
(139,-27,o),
(84,8,c),
(74,8,l),
(62,0,o),
(32,-31,o),
(4,-64,c),
(-9,-49,o),
(-30,-32,o),
(-64,-10,c),
(-74,-10,l),
(-91,-21,o),
(-152,-88,o),
(-170,-116,c),
(-170,-126,l),
(-141,-147,o),
(-132,-155,o),
(-78,-207,c)
);
}
);
width = 0;
}
);
},
{
glyphname = HehCommaNS;
layers = (
{
anchors = (
{
name = Anchor33;
position = "{164, -565}";
},
{
name = _Anchor9;
position = "{157, -158}";
}
);
background = {
shapes = (
{
closed = 1;
nodes = (
(236,-510,o),
(277,-438,o),
(277,-376,cs),
(277,-335,o),
(266,-304,o),
(232,-304,cs),
(226,-304,o),
(222,-305,o),
(217,-308,c),
(189,-366,l),
(172,-361,o),
(165,-337,o),
(165,-304,cs),
(165,-257,o),
(178,-197,o),
(191,-167,c),
(157,-158,l),
(117,-236,o),
(85,-340,o),
(85,-408,cs),
(85,-475,o),
(117,-510,o),
(166,-510,cs)
);
}
);
};
layerId = "A6411EC5-7A77-465E-9F2B-2C7729D1C516";
shapes = (
{
closed = 1;
nodes = (
(236,-510,o),
(277,-438,o),
(277,-376,cs),
(277,-335,o),
(266,-304,o),
(232,-304,cs),
(226,-304,o),
(222,-305,o),
(217,-308,c),
(189,-366,l),
(172,-361,o),
(165,-337,o),
(165,-304,cs),
(165,-257,o),
(178,-197,o),
(191,-167,c),
(157,-158,l),
(117,-236,o),
(85,-340,o),
(85,-408,cs),
(85,-475,o),
(117,-510,o),
(166,-510,cs)
);
}
);
width = 0;
}
);
},
{
glyphname = HehCommaAltNS;
layers = (
{
anchors = (
{
name = Anchor33;
position = "{164, -565}";
},
{
name = _Anchor11;
position = "{157, -158}";
}
);
background = {
shapes = (
{
closed = 1;
nodes = (
(236,-510,o),
(277,-438,o),
(277,-376,cs),
(277,-335,o),
(266,-304,o),
(232,-304,cs),
(226,-304,o),
(222,-305,o),
(217,-308,c),
(189,-366,l),
(172,-361,o),
(165,-337,o),
(165,-304,cs),
(165,-257,o),
(178,-197,o),
(191,-167,c),
(157,-158,l),
(117,-236,o),
(85,-340,o),
(85,-408,cs),
(85,-475,o),
(117,-510,o),
(166,-510,cs)
);
}
);
};
layerId = "A6411EC5-7A77-465E-9F2B-2C7729D1C516";
shapes = (
{
closed = 1;
nodes = (
(236,-510,o),
(277,-438,o),
(277,-376,cs),
(277,-335,o),
(266,-304,o),
(232,-304,cs),
(226,-304,o),
(222,-305,o),
(217,-308,c),
(189,-366,l),
(172,-361,o),
(165,-337,o),
(165,-304,cs),
(165,-257,o),
(178,-197,o),
(191,-167,c),
(157,-158,l),
(117,-236,o),
(85,-340,o),
(85,-408,cs),
(85,-475,o),
(117,-510,o),
(166,-510,cs)
);
}
);
width = 0;
}
);
},
{
glyphname = HehCommaYB;
layers = (
{
anchors = (
{
name = Anchor28;
position = "{164, -565}";
},
{
name = _Anchor28;
position = "{157, -158}";
}
);
background = {
shapes = (
{
closed = 1;
nodes = (
(236,-510,o),
(277,-438,o),
(277,-376,cs),
(277,-335,o),
(266,-304,o),
(232,-304,cs),
(226,-304,o),
(222,-305,o),
(217,-308,c),
(189,-366,l),
(172,-361,o),
(165,-337,o),
(165,-304,cs),
(165,-257,o),
(178,-197,o),
(191,-167,c),
(157,-158,l),
(117,-236,o),
(85,-340,o),
(85,-408,cs),
(85,-475,o),
(117,-510,o),
(166,-510,cs)
);
}
);
};
layerId = "A6411EC5-7A77-465E-9F2B-2C7729D1C516";
shapes = (
{
closed = 1;
nodes = (
(236,-510,o),
(277,-438,o),
(277,-376,cs),
(277,-335,o),
(266,-304,o),
(232,-304,cs),
(226,-304,o),
(222,-305,o),
(217,-308,c),
(189,-366,l),
(172,-361,o),
(165,-337,o),
(165,-304,cs),
(165,-257,o),
(178,-197,o),
(191,-167,c),
(157,-158,l),
(117,-236,o),
(85,-340,o),
(85,-408,cs),
(85,-475,o),
(117,-510,o),
(166,-510,cs)
);
}
);
width = 0;
}
);
},
{
glyphname = WavyHamzaBelowNS;
layers = (
{
anchors = (
{
name = Anchor33;
position = "{0, -401}";
},
{
name = _Anchor33;
position = "{0, -83}";
},
{
name = _Anchor9;
position = "{0, -178}";
}
);
background = {
shapes = (
{
closed = 1;
nodes = (
(-141,-338,l),
(-133,-310,o),
(-113,-288,o),
(-66,-288,cs),
(-21,-288,o),
(23,-275,o),
(65,-256,cs),
(107,-237,o),
(136,-205,o),
(151,-163,c),
(137,-154,l),
(116,-174,o),
(78,-200,o),
(52,-200,cs),
(17,-200,o),
(-7,-184,o),
(-7,-160,cs),
(-7,-135,o),
(16,-116,o),
(45,-116,cs),
(59,-116,o),
(75,-123,o),
(83,-135,c),
(91,-135,l),
(99,-129,o),
(109,-119,o),
(109,-100,cs),
(109,-77,o),
(89,-68,o),
(64,-68,cs),
(11,-68,o),
(-75,-153,o),
(-75,-206,cs),
(-75,-217,o),
(-72,-227,o),
(-67,-234,c),
(-68,-237,l),
(-72,-237,ls),
(-132,-237,o),
(-159,-266,o),
(-159,-317,cs),
(-159,-325,o),
(-158,-330,o),
(-157,-338,c)
);
}
);
};
layerId = "A6411EC5-7A77-465E-9F2B-2C7729D1C516";
shapes = (
{
closed = 1;
nodes = (
(-141,-338,l),
(-133,-310,o),
(-113,-288,o),
(-66,-288,cs),
(-21,-288,o),
(23,-275,o),
(65,-256,cs),
(107,-237,o),
(136,-205,o),
(151,-163,c),
(137,-154,l),
(116,-174,o),
(78,-200,o),
(52,-200,cs),
(17,-200,o),
(-7,-184,o),
(-7,-160,cs),
(-7,-135,o),
(16,-116,o),
(45,-116,cs),
(59,-116,o),
(75,-123,o),
(83,-135,c),
(91,-135,l),
(99,-129,o),
(109,-119,o),
(109,-100,cs),
(109,-77,o),
(89,-68,o),
(64,-68,cs),
(11,-68,o),
(-75,-153,o),
(-75,-206,cs),
(-75,-217,o),
(-72,-227,o),
(-67,-234,c),
(-68,-237,l),
(-72,-237,ls),
(-132,-237,o),
(-159,-266,o),
(-159,-317,cs),
(-159,-325,o),
(-158,-330,o),
(-157,-338,c)
);
}
);
width = 0;
}
);
unicode = 1631;
},
{
glyphname = Small4UrduBelowYB;
layers = (
{
anchors = (
{
name = Anchor28;
position = "{0, -398}";
},
{
name = _Anchor28;
position = "{-6, -179}";
}
);
background = {
shapes = (
{
closed = 1;
nodes = (
(4,-322,l),
(9,-308,o),
(10,-279,o),
(10,-260,cs),
(10,-234,o),
(4,-199,o),
(0,-178,cs),
(-1,-170,o),
(-2,-164,o),
(-2,-162,cs),
(-2,-153,o),
(2,-149,o),
(10,-149,cs),
(32,-149,o),
(54,-199,o),
(60,-223,c),
(73,-223,l),
(88,-195,o),
(102,-173,o),
(117,-157,c),
(123,-137,o),
(128,-117,o),
(134,-96,cs),
(136,-88,o),
(138,-84,o),
(138,-80,c),
(130,-76,l),
(115,-90,o),
(108,-102,o),
(89,-141,c),
(85,-141,l),
(76,-111,o),
(62,-86,o),
(28,-86,cs),
(-11,-86,o),
(-30,-139,o),
(-30,-171,cs),
(-30,-182,o),
(-26,-201,o),
(-20,-228,cs),
(-14,-257,o),
(-11,-284,o),
(-11,-312,cs),
(-11,-321,l)
);
}
);
};
layerId = "A6411EC5-7A77-465E-9F2B-2C7729D1C516";
shapes = (
{
closed = 1;
nodes = (
(4,-322,l),
(9,-308,o),
(10,-279,o),
(10,-260,cs),
(10,-234,o),
(4,-199,o),
(0,-178,cs),
(-1,-170,o),
(-2,-164,o),
(-2,-162,cs),
(-2,-153,o),
(2,-149,o),
(10,-149,cs),
(32,-149,o),
(54,-199,o),
(60,-223,c),
(73,-223,l),
(88,-195,o),
(102,-173,o),
(117,-157,c),
(123,-137,o),
(128,-117,o),
(134,-96,cs),
(136,-88,o),
(138,-84,o),
(138,-80,c),
(130,-76,l),
(115,-90,o),
(108,-102,o),
(89,-141,c),
(85,-141,l),
(76,-111,o),
(62,-86,o),
(28,-86,cs),
(-11,-86,o),
(-30,-139,o),
(-30,-171,cs),
(-30,-182,o),
(-26,-201,o),
(-20,-228,cs),
(-14,-257,o),
(-11,-284,o),
(-11,-312,cs),
(-11,-321,l)
);
}
);
width = 0;
}
);
},
{
glyphname = Small4UrduAboveNS;
layers = (
{
anchors = (
{
name = Anchor31;
position = "{0, 771}";
},
{
name = _Anchor31;
position = "{4, 469}";
},
{
name = _Anchor5;
position = "{0, 560}";
}
);
background = {
shapes = (
{
closed = 1;
nodes = (
(4,469,l),
(9,483,o),
(10,512,o),
(10,531,cs),
(10,550,o),
(7,575,o),
(3,595,c),
(1,613,o),
(-2,626,o),
(-2,629,cs),
(-2,638,o),
(2,642,o),
(10,642,cs),
(32,642,o),
(54,592,o),
(60,568,c),
(73,568,l),
(88,596,o),
(102,618,o),
(117,634,c),
(123,654,o),
(129,674,o),
(134,695,cs),
(136,703,o),
(138,707,o),
(138,711,c),
(130,715,l),
(115,701,o),
(108,689,o),
(89,650,c),
(85,650,l),
(76,680,o),
(62,705,o),
(28,705,cs),
(-11,705,o),
(-30,652,o),
(-30,620,cs),
(-30,609,o),
(-26,590,o),
(-20,563,cs),
(-14,534,o),
(-11,507,o),
(-11,479,cs),
(-11,470,l)
);
}
);
};
layerId = "A6411EC5-7A77-465E-9F2B-2C7729D1C516";
shapes = (
{
closed = 1;
nodes = (
(4,469,l),
(9,483,o),
(10,512,o),
(10,531,cs),
(10,550,o),
(7,575,o),
(3,595,c),
(1,613,o),
(-2,626,o),
(-2,629,cs),
(-2,638,o),
(2,642,o),
(10,642,cs),
(32,642,o),
(54,592,o),
(60,568,c),
(73,568,l),
(88,596,o),
(102,618,o),
(117,634,c),
(123,654,o),
(129,674,o),
(134,695,cs),
(136,703,o),
(138,707,o),
(138,711,c),
(130,715,l),
(115,701,o),
(108,689,o),
(89,650,c),
(85,650,l),
(76,680,o),
(62,705,o),
(28,705,cs),
(-11,705,o),
(-30,652,o),
(-30,620,cs),
(-30,609,o),
(-26,590,o),
(-20,563,cs),
(-14,534,o),
(-11,507,o),
(-11,479,cs),
(-11,470,l)
);
}
);
width = 0;
}
);
},
{
glyphname = TwoDotsVertBelowYB;
layers = (
{
anchors = (
{
name = Anchor28;
position = "{117, -413}";
},
{
name = _Anchor28;
position = "{119, -98}";
}
);
background = {
shapes = (
{
closed = 1;
nodes = (
(118,-350,l),
(169,-316,o),
(209,-274,o),
(209,-245,cs),
(209,-223,o),
(192,-203,o),
(155,-174,c),
(187,-146,o),
(207,-120,o),
(207,-99,cs),
(207,-66,o),
(172,-39,o),
(121,-7,c),
(111,-7,l),
(94,-18,o),
(33,-85,o),
(15,-113,c),
(15,-123,l),
(34,-137,o),
(46,-147,o),
(83,-181,c),
(59,-205,o),
(36,-233,o),
(17,-259,c),
(17,-269,l),
(46,-290,o),
(55,-298,o),
(109,-350,c)
);
}
);
};
layerId = "A6411EC5-7A77-465E-9F2B-2C7729D1C516";
shapes = (
{
closed = 1;
nodes = (
(118,-350,l),
(169,-316,o),
(209,-274,o),
(209,-245,cs),
(209,-223,o),
(192,-203,o),
(155,-174,c),
(187,-146,o),
(207,-120,o),
(207,-99,cs),
(207,-66,o),
(172,-39,o),
(121,-7,c),
(111,-7,l),
(94,-18,o),
(33,-85,o),
(15,-113,c),
(15,-123,l),
(34,-137,o),
(46,-147,o),
(83,-181,c),
(59,-205,o),
(36,-233,o),
(17,-259,c),
(17,-269,l),
(46,-290,o),
(55,-298,o),
(109,-350,c)
);
}
);
width = 0;
}
);
},
{
glyphname = TahSmallBelowYB;
layers = (
{
anchors = (
{
name = Anchor28;
position = "{0, -445}";
},
{
name = _Anchor28;
position = "{10, -36}";
}
);
background = {
shapes = (
{
closed = 1;
nodes = (
(13,-408,o),
(58,-390,o),
(92,-353,cs),
(125,-317,o),
(142,-281,o),
(142,-246,cs),
(142,-227,o),
(129,-210,o),
(101,-210,cs),
(65,-210,o),
(30,-229,o),
(-5,-271,c),
(-6,-268,l),
(6,-230,o),
(9,-218,o),
(10,-195,cs),
(12,-162,ls),
(16,-96,o),
(21,-58,o),
(27,-39,c),
(10,-36,l),
(-15,-77,o),
(-27,-109,o),
(-29,-144,cs),
(-37,-284,ls),
(-39,-316,o),
(-45,-331,o),
(-82,-368,c),
(-99,-373,o),
(-123,-376,o),
(-150,-380,c),
(-152,-401,l),
(-123,-407,o),
(-82,-408,o),
(-44,-408,cs)
);
},
{
closed = 1;
nodes = (
(-15,-330,ls),
(14,-292,o),
(45,-273,o),
(72,-273,cs),
(82,-273,o),
(99,-276,o),
(99,-292,cs),
(99,-308,o),
(62,-336,o),
(-36,-358,c)
);
}
);
};
layerId = "A6411EC5-7A77-465E-9F2B-2C7729D1C516";
shapes = (
{
alignment = -1;
ref = TahSmallBelowNS;
}
);
width = 0;
}
);
},
{
glyphname = OneDotAboveAltNS;
layers = (
{
anchors = (
{
name = Anchor31;
position = "{0, 1081}";
},
{
name = _Anchor7;
position = "{0, 921}";
}
);
background = {
shapes = (
{
closed = 1;
nodes = (
(3,823,l),
(49,855,o),
(95,895,o),
(95,928,cs),
(95,960,o),
(64,985,o),
(9,1020,c),
(-1,1020,l),
(-18,1009,o),
(-79,942,o),
(-97,914,c),
(-97,904,l),
(-68,883,o),
(-60,875,o),
(-5,823,c)
);
}
);
};
layerId = "A6411EC5-7A77-465E-9F2B-2C7729D1C516";
shapes = (
{
closed = 1;
nodes = (
(3,823,l),
(49,855,o),
(95,895,o),
(95,928,cs),
(95,960,o),
(64,985,o),
(9,1020,c),
(-1,1020,l),
(-18,1009,o),
(-79,942,o),
(-97,914,c),
(-97,904,l),
(-68,883,o),
(-60,875,o),
(-5,823,c)
);
}
);
width = 0;
}
);
},
{
glyphname = TwoDotsAboveAltNS;
layers = (
{
anchors = (
{
name = Anchor31;
position = "{0, 1142}";
},
{
name = _Anchor7;
position = "{0, 923}";
}
);
background = {
shapes = (
{
closed = 1;
nodes = (
(-69,815,l),
(-32,840,o),
(-4,865,o),
(11,888,c),
(27,875,o),
(43,860,o),
(71,833,c),
(79,833,l),
(125,865,o),
(171,905,o),
(171,938,cs),
(171,970,o),
(140,995,o),
(85,1030,c),
(75,1030,l),
(63,1022,o),
(33,991,o),
(5,958,c),
(-8,973,o),
(-29,990,o),
(-63,1012,c),
(-73,1012,l),
(-90,1001,o),
(-151,934,o),
(-169,906,c),
(-169,896,l),
(-140,875,o),
(-131,867,o),
(-77,815,c)
);
}
);
};
layerId = "A6411EC5-7A77-465E-9F2B-2C7729D1C516";
shapes = (
{
closed = 1;
nodes = (
(-69,815,l),
(-32,840,o),
(-4,865,o),
(11,888,c),
(27,875,o),
(43,860,o),
(71,833,c),
(79,833,l),
(125,865,o),
(171,905,o),
(171,938,cs),
(171,970,o),
(140,995,o),
(85,1030,c),
(75,1030,l),
(63,1022,o),
(33,991,o),
(5,958,c),
(-8,973,o),
(-29,990,o),
(-63,1012,c),
(-73,1012,l),
(-90,1001,o),
(-151,934,o),
(-169,906,c),
(-169,896,l),
(-140,875,o),
(-131,867,o),
(-77,815,c)
);
}
);
width = 0;
}
);
},
{
glyphname = ThreeDotsUpAboveAltNS;
layers = (
{
anchors = (
{
name = Anchor31;
position = "{0, 1235}";
},
{
name = _Anchor7;
position = "{0, 922}";
}
);
background = {
shapes = (
{
closed = 1;
nodes = (
(-70,814,l),
(-33,839,o),
(-5,864,o),
(10,887,c),
(26,874,o),
(42,859,o),
(70,832,c),
(78,832,l),
(124,864,o),
(170,904,o),
(170,937,cs),
(170,967,o),
(146,991,o),
(86,1029,c),
(76,1029,l),
(64,1021,o),
(32,990,o),
(4,957,c),
(-9,973,o),
(-31,991,o),
(-62,1011,c),
(-72,1011,l),
(-85,1003,o),
(-149,936,o),
(-170,905,c),
(-170,895,l),
(-141,874,o),
(-120,855,o),
(-78,814,c)
);
},
{
closed = 1;
nodes = (
(3,997,l),
(59,1041,o),
(81,1069,o),
(81,1089,cs),
(81,1107,o),
(64,1126,o),
(7,1164,c),
(-1,1164,l),
(-19,1152,o),
(-66,1102,o),
(-84,1076,c),
(-84,1068,l),
(-47,1037,o),
(-38,1029,o),
(-6,997,c)
);
}
);
};
layerId = "A6411EC5-7A77-465E-9F2B-2C7729D1C516";
shapes = (
{
closed = 1;
nodes = (
(-70,814,l),
(-33,839,o),
(-5,864,o),
(10,887,c),
(26,874,o),
(42,859,o),
(70,832,c),
(78,832,l),
(124,864,o),
(170,904,o),
(170,937,cs),
(170,967,o),
(146,991,o),
(86,1029,c),
(76,1029,l),
(64,1021,o),
(32,990,o),
(4,957,c),
(-9,973,o),
(-31,991,o),
(-62,1011,c),
(-72,1011,l),
(-85,1003,o),
(-149,936,o),
(-170,905,c),
(-170,895,l),
(-141,874,o),
(-120,855,o),
(-78,814,c)
);
},
{
closed = 1;
nodes = (
(3,997,l),
(59,1041,o),
(81,1069,o),
(81,1089,cs),
(81,1107,o),
(64,1126,o),
(7,1164,c),
(-1,1164,l),
(-19,1152,o),
(-66,1102,o),
(-84,1076,c),
(-84,1068,l),
(-47,1037,o),
(-38,1029,o),
(-6,997,c)
);
}
);
width = 0;
}
);
},
{
glyphname = MaddaAltNS;
layers = (
{
anchors = (
{
name = Anchor31;
position = "{0, 1148}";
},
{
name = _Anchor7;
position = "{0, 980}";
}
);
background = {
shapes = (
{
closed = 1;
nodes = (
(-255,875,l),
(-235,902,o),
(-222,921,o),
(-190,921,cs),
(-153,921,o),
(-118,900,o),
(-13,900,cs),
(94,900,o),
(207,943,o),
(295,1063,c),
(278,1077,l),
(220,1029,o),
(160,1012,o),
(64,1012,cs),
(-18,1012,o),
(-99,1034,o),
(-130,1034,cs),
(-185,1034,o),
(-235,974,o),
(-277,885,c)
);
}
);
};
layerId = "A6411EC5-7A77-465E-9F2B-2C7729D1C516";
shapes = (
{
closed = 1;
nodes = (
(-255,875,l),
(-235,902,o),
(-222,921,o),
(-190,921,cs),
(-153,921,o),
(-118,900,o),
(-13,900,cs),
(94,900,o),
(207,943,o),
(295,1063,c),
(278,1077,l),
(220,1029,o),
(160,1012,o),
(64,1012,cs),
(-18,1012,o),
(-99,1034,o),
(-130,1034,cs),
(-185,1034,o),
(-235,974,o),
(-277,885,c)
);
}
);
width = 0;
}
);
},
{
glyphname = Madda.shortAltNS;
layers = (
{
anchors = (
{
name = Anchor31;
position = "{0, 1100}";
},
{
name = _Anchor7;
position = "{0, 980}";
}
);
background = {
shapes = (
{
closed = 1;
nodes = (
(-206,875,l),
(-186,902,o),
(-170,921,o),
(-141,921,cs),
(-113,921,o),
(-45,901,o),
(16,901,cs),
(139,901,o),
(195,942,o),
(282,1053,c),
(265,1067,l),
(216,1023,o),
(164,1013,o),
(85,1013,cs),
(31,1013,o),
(-44,1035,o),
(-84,1035,cs),
(-126,1035,o),
(-176,997,o),
(-229,885,c)
);
}
);
};
layerId = "A6411EC5-7A77-465E-9F2B-2C7729D1C516";
shapes = (
{
closed = 1;
nodes = (
(-206,875,l),
(-186,902,o),
(-170,921,o),
(-141,921,cs),
(-113,921,o),
(-45,901,o),
(16,901,cs),
(139,901,o),
(195,942,o),
(282,1053,c),
(265,1067,l),
(216,1023,o),
(164,1013,o),
(85,1013,cs),
(31,1013,o),
(-44,1035,o),
(-84,1035,cs),
(-126,1035,o),
(-176,997,o),
(-229,885,c)
);
}
);
width = 0;
}
);
},
{
glyphname = Madda.shorterAltNS;
layers = (
{
anchors = (
{
name = Anchor31;
position = "{0, 1100}";
},
{
name = _Anchor7;
position = "{0, 980}";
}
);
background = {
shapes = (
{
closed = 1;
nodes = (
(-149,883,l),
(-131,914,o),
(-117,926,o),
(-98,926,cs),
(-81,926,o),
(-18,907,o),
(27,907,cs),
(123,907,o),
(183,951,o),
(242,1043,c),
(224,1057,l),
(183,1016,o),
(145,1009,o),
(87,1009,cs),
(33,1009,o),
(-7,1027,o),
(-47,1027,cs),
(-92,1027,o),
(-133,984,o),
(-172,892,c)
);
}
);
};
layerId = "A6411EC5-7A77-465E-9F2B-2C7729D1C516";
shapes = (
{
closed = 1;
nodes = (
(-149,883,l),
(-131,914,o),
(-117,926,o),
(-98,926,cs),
(-81,926,o),
(-18,907,o),
(27,907,cs),
(123,907,o),
(183,951,o),
(242,1043,c),
(224,1057,l),
(183,1016,o),
(145,1009,o),
(87,1009,cs),
(33,1009,o),
(-7,1027,o),
(-47,1027,cs),
(-92,1027,o),
(-133,984,o),
(-172,892,c)
);
}
);
width = 0;
}
);
},
{
glyphname = AlefSuperiorAltNS;
layers = (
{
anchors = (
{
name = Anchor31;
position = "{0, 1181}";
},
{
name = _Anchor7;
position = "{0, 950}";
}
);
background = {
shapes = (
{
closed = 1;
nodes = (
(-6,838,l),
(16,890,o),
(31,942,o),
(34,990,cs),
(35,1010,ls),
(38,1085,o),
(40,1108,o),
(45,1120,c),
(28,1123,l),
(0,1069,o),
(-9,1051,o),
(-11,994,cs),
(-13,946,ls),
(-15,893,o),
(-19,860,o),
(-23,841,c)
);
}
);
};
layerId = "A6411EC5-7A77-465E-9F2B-2C7729D1C516";
shapes = (
{
closed = 1;
nodes = (
(-6,838,l),
(16,890,o),
(31,942,o),
(34,990,cs),
(35,1010,ls),
(38,1085,o),
(40,1108,o),
(45,1120,c),
(28,1123,l),
(0,1069,o),
(-9,1051,o),
(-11,994,cs),
(-13,946,ls),
(-15,893,o),
(-19,860,o),
(-23,841,c)
);
}
);
width = 0;
}
);
},
{
glyphname = DammaAltNS;
layers = (
{
anchors = (
{
name = Anchor31;
position = "{0, 1172}";
},
{
name = _Anchor7;
position = "{-2, 958}";
}
);
background = {
shapes = (
{
closed = 1;
nodes = (
(37,1026,o),
(28,1037,o),
(28,1049,cs),
(28,1063,o),
(36,1076,o),
(56,1076,cs),
(74,1076,o),
(83,1063,o),
(83,1050,cs),
(83,1033,o),
(71,1020,o),
(59,1009,c)
);
},
{
alignment = -1;
ref = DammaNS;
}
);
};
layerId = "A6411EC5-7A77-465E-9F2B-2C7729D1C516";
shapes = (
{
closed = 1;
nodes = (
(37,1026,o),
(28,1037,o),
(28,1049,cs),
(28,1063,o),
(36,1076,o),
(56,1076,cs),
(74,1076,o),
(83,1063,o),
(83,1050,cs),
(83,1033,o),
(71,1020,o),
(59,1009,c)
);
},
{
alignment = -1;
ref = DammaNS;
}
);
width = 0;
}
);
},
{
glyphname = DammatanAltNS;
layers = (
{
anchors = (
{
name = Anchor31;
position = "{0, 1141}";
},
{
name = _Anchor7;
position = "{0, 968}";
}
);
background = {
shapes = (
{
closed = 1;
nodes = (
(11,859,o),
(57,887,o),
(95,924,cs),
(129,957,o),
(154,994,o),
(154,1038,cs),
(154,1061,o),
(141,1089,o),
(110,1089,cs),
(59,1089,o),
(25,1037,o),
(25,993,cs),
(25,981,o),
(29,965,o),
(47,944,c),
(22,925,o),
(-1,915,o),
(-23,915,cs),
(-55,915,o),
(-65,931,o),
(-65,963,cs),
(-65,984,o),
(-58,1010,o),
(-58,1020,cs),
(-58,1032,o),
(-64,1038,o),
(-79,1038,cs),
(-98,1038,o),
(-141,1017,o),
(-168,984,c),
(-160,971,l),
(-141,984,o),
(-109,988,o),
(-97,988,cs),
(-93,988,l),
(-99,973,o),
(-103,950,o),
(-103,931,cs),
(-103,884,o),
(-81,859,o),
(-31,859,cs)
);
},
{
closed = 1;
nodes = (
(71,997,o),
(62,1008,o),
(62,1020,cs),
(62,1034,o),
(70,1047,o),
(90,1047,cs),
(108,1047,o),
(117,1034,o),
(117,1022,cs),
(117,1007,o),
(112,999,o),
(93,980,c)
);
}
);
};
layerId = "A6411EC5-7A77-465E-9F2B-2C7729D1C516";
shapes = (
{
closed = 1;
nodes = (
(11,859,o),
(57,887,o),
(95,924,cs),
(129,957,o),
(154,994,o),
(154,1038,cs),
(154,1061,o),
(141,1089,o),
(110,1089,cs),
(59,1089,o),
(25,1037,o),
(25,993,cs),
(25,981,o),
(29,965,o),
(47,944,c),
(22,925,o),
(-1,915,o),
(-23,915,cs),
(-55,915,o),
(-65,931,o),
(-65,963,cs),
(-65,984,o),
(-58,1010,o),
(-58,1020,cs),
(-58,1032,o),
(-64,1038,o),
(-79,1038,cs),
(-98,1038,o),
(-141,1017,o),
(-168,984,c),
(-160,971,l),
(-141,984,o),
(-109,988,o),
(-97,988,cs),
(-93,988,l),
(-99,973,o),
(-103,950,o),
(-103,931,cs),
(-103,884,o),
(-81,859,o),
(-31,859,cs)
);
},
{
closed = 1;
nodes = (
(71,997,o),
(62,1008,o),
(62,1020,cs),
(62,1034,o),
(70,1047,o),
(90,1047,cs),
(108,1047,o),
(117,1034,o),
(117,1022,cs),
(117,1007,o),
(112,999,o),
(93,980,c)
);
}
);
width = 0;
}
);
},
{
glyphname = NoonGhunnaMarkAltNS;
layers = (
{
anchors = (
{
name = Anchor31;
position = "{0, 1107}";
},
{
name = _Anchor7;
position = "{0, 977}";
}
);
background = {
shapes = (
{
closed = 1;
nodes = (
(76,875,o),
(142,967,o),
(144,1054,c),
(119,1054,l),
(104,994,o),
(62,957,o),
(-13,957,cs),
(-73,957,o),
(-96,981,o),
(-96,1030,cs),
(-96,1036,o),
(-95,1041,o),
(-94,1045,c),
(-119,1048,l),
(-126,1030,o),
(-128,1005,o),
(-128,988,cs),
(-128,912,o),
(-90,875,o),
(-18,875,cs)
);
}
);
};
layerId = "A6411EC5-7A77-465E-9F2B-2C7729D1C516";
shapes = (
{
closed = 1;
nodes = (
(76,875,o),
(142,967,o),
(144,1054,c),
(119,1054,l),
(104,994,o),
(62,957,o),
(-13,957,cs),
(-73,957,o),
(-96,981,o),
(-96,1030,cs),
(-96,1036,o),
(-95,1041,o),
(-94,1045,c),
(-119,1048,l),
(-126,1030,o),
(-128,1005,o),
(-128,988,cs),
(-128,912,o),
(-90,875,o),
(-18,875,cs)
);
}
);
width = 0;
}
);
},
{
glyphname = RahmatullahAltNS;
layers = (
{
anchors = (
{
name = Anchor31;
position = "{0, 1208}";
},
{
name = _Anchor7;
position = "{0, 962}";
}
);
background = {
shapes = (
{
closed = 1;
nodes = (
(-133,843,l),
(-122,890,o),
(-96,935,o),
(-56,976,cs),
(-16,1017,o),
(18,1045,o),
(47,1061,cs),
(75,1077,o),
(95,1098,o),
(107,1124,c),
(107,1132,l),
(86,1143,o),
(10,1152,o),
(-26,1152,cs),
(-93,1152,o),
(-117,1129,o),
(-138,1062,c),
(-120,1058,l),
(-109,1081,o),
(-96,1086,o),
(-60,1086,cs),
(-34,1086,ls),
(2,1086,o),
(19,1081,o),
(22,1078,c),
(-93,1002,o),
(-138,940,o),
(-166,867,c),
(-143,843,l)
);
},
{
closed = 1;
nodes = (
(-39,856,l),
(-1,865,o),
(55,879,o),
(89,894,c),
(119,919,o),
(160,1002,o),
(183,1111,c),
(167,1114,l),
(150,1068,o),
(134,1034,o),
(119,1011,cs),
(86,959,o),
(-12,889,o),
(-43,872,c)
);
}
);
};
layerId = "A6411EC5-7A77-465E-9F2B-2C7729D1C516";
shapes = (
{
closed = 1;
nodes = (
(-133,843,l),
(-122,890,o),
(-96,935,o),
(-56,976,cs),
(-16,1017,o),
(18,1045,o),
(47,1061,cs),
(75,1077,o),
(95,1098,o),
(107,1124,c),
(107,1132,l),
(86,1143,o),
(10,1152,o),
(-26,1152,cs),
(-93,1152,o),
(-117,1129,o),
(-138,1062,c),
(-120,1058,l),
(-109,1081,o),
(-96,1086,o),
(-60,1086,cs),
(-34,1086,ls),
(2,1086,o),
(19,1081,o),
(22,1078,c),
(-93,1002,o),
(-138,940,o),
(-166,867,c),
(-143,843,l)
);
},
{
closed = 1;
nodes = (
(-39,856,l),
(-1,865,o),
(55,879,o),
(89,894,c),
(119,919,o),
(160,1002,o),
(183,1111,c),
(167,1114,l),
(150,1068,o),
(134,1034,o),
(119,1011,cs),
(86,959,o),
(-12,889,o),
(-43,872,c)
);
}
);
width = 0;
}
);
},
{
glyphname = ShaddaAltNS;
layers = (
{
anchors = (
{
name = Anchor31;
position = "{0, 1090}";
},
{
name = _Anchor7;
position = "{0, 939}";
}
);
background = {
shapes = (
{
closed = 1;
nodes = (
(-45,862,o),
(-18,899,o),
(-6,938,c),
(1,932,o),
(15,928,o),
(27,928,cs),
(92,928,o),
(125,994,o),
(125,1060,cs),
(125,1077,l),
(98,1072,l),
(92,1023,o),
(75,996,o),
(45,996,cs),
(30,996,o),
(19,1003,o),
(13,1016,c),
(-10,1011,l),
(-22,956,o),
(-39,928,o),
(-74,928,cs),
(-93,928,o),
(-103,938,o),
(-105,958,cs),
(-106,970,l),
(-129,966,l),
(-136,948,o),
(-139,934,o),
(-139,917,cs),
(-139,883,o),
(-117,862,o),
(-88,862,cs)
);
}
);
};
layerId = "A6411EC5-7A77-465E-9F2B-2C7729D1C516";
shapes = (
{
closed = 1;
nodes = (
(-45,862,o),
(-18,899,o),
(-6,938,c),
(1,932,o),
(15,928,o),
(27,928,cs),
(92,928,o),
(125,994,o),
(125,1060,cs),
(125,1077,l),
(98,1072,l),
(92,1023,o),
(75,996,o),
(45,996,cs),
(30,996,o),
(19,1003,o),
(13,1016,c),
(-10,1011,l),
(-22,956,o),
(-39,928,o),
(-74,928,cs),
(-93,928,o),
(-103,938,o),
(-105,958,cs),
(-106,970,l),
(-129,966,l),
(-136,948,o),
(-139,934,o),
(-139,917,cs),
(-139,883,o),
(-117,862,o),
(-88,862,cs)
);
}
);
width = 0;
}
);
},
{
glyphname = SukunHahAltNS;
layers = (
{
anchors = (
{
name = Anchor31;
position = "{0, 1103}";
},
{
name = _Anchor7;
position = "{0, 969}";
}
);
background = {
shapes = (
{
closed = 1;
nodes = (
(-109,870,l),
(-72,875,o),
(-48,879,o),
(-13,886,cs),
(37,896,o),
(122,971,o),
(127,981,c),
(123,998,l),
(44,1032,o),
(-6,1038,o),
(-31,1038,cs),
(-71,1038,o),
(-96,998,o),
(-109,968,c),
(-92,963,l),
(-85,970,o),
(-77,974,o),
(-61,974,cs),
(-29,974,o),
(12,963,o),
(41,952,c),
(41,949,l),
(33,938,o),
(-24,916,o),
(-111,892,c)
);
}
);
};
layerId = "A6411EC5-7A77-465E-9F2B-2C7729D1C516";
shapes = (
{
closed = 1;
nodes = (
(-109,870,l),
(-72,875,o),
(-48,879,o),
(-13,886,cs),
(37,896,o),
(122,971,o),
(127,981,c),
(123,998,l),
(44,1032,o),
(-6,1038,o),
(-31,1038,cs),
(-71,1038,o),
(-96,998,o),
(-109,968,c),
(-92,963,l),
(-85,970,o),
(-77,974,o),
(-61,974,cs),
(-29,974,o),
(12,963,o),
(41,952,c),
(41,949,l),
(33,938,o),
(-24,916,o),
(-111,892,c)
);
}
);
width = 0;
}
);
},
{
glyphname = SukunJazmAltNS;
layers = (
{
anchors = (
{
name = Anchor31;
position = "{0, 1123}";
},
{
name = _Anchor7;
position = "{0, 976}";
}
);
background = {
shapes = (
{
closed = 1;
nodes = (
(-137,869,l),
(-105,905,o),
(-54,945,o),
(-6,982,c),
(63,939,o),
(103,916,o),
(133,891,c),
(148,899,l),
(145,925,o),
(138,946,o),
(125,962,cs),
(97,996,o),
(29,1045,o),
(-1,1063,c),
(-14,1061,l),
(-102,981,o),
(-150,931,o),
(-153,872,c)
);
}
);
};
layerId = "A6411EC5-7A77-465E-9F2B-2C7729D1C516";
shapes = (
{
closed = 1;
nodes = (
(-137,869,l),
(-105,905,o),
(-54,945,o),
(-6,982,c),
(63,939,o),
(103,916,o),
(133,891,c),
(148,899,l),
(145,925,o),
(138,946,o),
(125,962,cs),
(97,996,o),
(29,1045,o),
(-1,1063,c),
(-14,1061,l),
(-102,981,o),
(-150,931,o),
(-153,872,c)
);
}
);
width = 0;
}
);
},
{
glyphname = SukunAltNS;
layers = (
{
anchors = (
{
name = Anchor31;
position = "{0, 1127}";
},
{
name = _Anchor7;
position = "{0, 967}";
}
);
background = {
shapes = (
{
closed = 1;
nodes = (
(44,860,o),
(82,901,o),
(82,962,cs),
(82,1016,o),
(50,1065,o),
(7,1065,cs),
(-50,1065,o),
(-84,998,o),
(-84,940,cs),
(-84,897,o),
(-59,860,o),
(-10,860,cs)
);
},
{
closed = 1;
nodes = (
(-27,920,o),
(-50,926,o),
(-50,956,cs),
(-50,983,o),
(-28,1003,o),
(-1,1003,cs),
(30,1003,o),
(49,987,o),
(49,964,cs),
(49,936,o),
(26,920,o),
(-3,920,cs)
);
}
);
};
layerId = "A6411EC5-7A77-465E-9F2B-2C7729D1C516";
shapes = (
{
closed = 1;
nodes = (
(44,860,o),
(82,901,o),
(82,962,cs),
(82,1016,o),
(50,1065,o),
(7,1065,cs),
(-50,1065,o),
(-84,998,o),
(-84,940,cs),
(-84,897,o),
(-59,860,o),
(-10,860,cs)
);
},
{
closed = 1;
nodes = (
(-27,920,o),
(-50,926,o),
(-50,956,cs),
(-50,983,o),
(-28,1003,o),
(-1,1003,cs),
(30,1003,o),
(49,987,o),
(49,964,cs),
(49,936,o),
(26,920,o),
(-3,920,cs)
);
}
);
width = 0;
}
);
},
{
glyphname = SukunZeroAltNS;
layers = (
{
anchors = (
{
name = Anchor31;
position = "{0, 1165}";
},
{
name = _Anchor7;
position = "{0, 955}";
}
);
background = {
shapes = (
{
closed = 1;
nodes = (
(65,845,o),
(111,895,o),
(111,967,cs),
(111,1046,o),
(75,1105,o),
(-3,1105,cs),
(-66,1105,o),
(-113,1054,o),
(-113,983,cs),
(-113,895,o),
(-70,845,o),
(1,845,cs)
);
},
{
closed = 1;
nodes = (
(-23,872,o),
(-35,918,o),
(-35,1011,cs),
(-35,1061,o),
(-25,1078,o),
(-3,1078,cs),
(21,1078,o),
(33,1032,o),
(33,939,cs),
(33,889,o),
(23,872,o),
(1,872,cs)
);
}
);
};
layerId = "A6411EC5-7A77-465E-9F2B-2C7729D1C516";
shapes = (
{
closed = 1;
nodes = (
(65,845,o),
(111,895,o),
(111,967,cs),
(111,1046,o),
(75,1105,o),
(-3,1105,cs),
(-66,1105,o),
(-113,1054,o),
(-113,983,cs),
(-113,895,o),
(-70,845,o),
(1,845,cs)
);
},
{
closed = 1;
nodes = (
(-23,872,o),
(-35,918,o),
(-35,1011,cs),
(-35,1061,o),
(-25,1078,o),
(-3,1078,cs),
(21,1078,o),
(33,1032,o),
(33,939,cs),
(33,889,o),
(23,872,o),
(1,872,cs)
);
}
);
width = 0;
}
);
},
{
glyphname = TahSmallAltNS;
layers = (
{
anchors = (
{
name = Anchor31;
position = "{0, 1244}";
},
{
name = _Anchor7;
position = "{0, 934}";
}
);
background = {
shapes = (
{
closed = 1;
nodes = (
(13,822,o),
(58,840,o),
(92,877,cs),
(125,913,o),
(142,949,o),
(142,984,cs),
(142,1003,o),
(129,1020,o),
(101,1020,cs),
(65,1020,o),
(30,1001,o),
(-5,959,c),
(-6,962,l),
(6,1000,o),
(9,1016,o),
(10,1035,cs),
(12,1068,ls),
(16,1134,o),
(21,1172,o),
(27,1191,c),
(10,1194,l),
(-15,1153,o),
(-27,1121,o),
(-29,1086,cs),
(-37,946,ls),
(-39,914,o),
(-45,899,o),
(-82,862,c),
(-99,857,o),
(-123,854,o),
(-150,850,c),
(-152,829,l),
(-123,823,o),
(-82,822,o),
(-44,822,cs)
);
},
{
closed = 1;
nodes = (
(-15,900,ls),
(14,938,o),
(45,957,o),
(72,957,cs),
(82,957,o),
(99,954,o),
(99,938,cs),
(99,922,o),
(62,894,o),
(-36,872,c)
);
}
);
};
layerId = "A6411EC5-7A77-465E-9F2B-2C7729D1C516";
shapes = (
{
alignment = -1;
pos = (0,1230);
ref = TahSmallBelowNS;
}
);
width = 0;
}
);
},
{
glyphname = TakhallusAltNS;
layers = (
{
anchors = (
{
name = Anchor31;
position = "{0, 1127}";
},
{
name = _Anchor7;
position = "{0, 995}";
}
);
background = {
shapes = (
{
closed = 1;
nodes = (
(-104,882,o),
(-73,890,o),
(-39,906,cs),
(-5,922,o),
(20,938,o),
(36,952,cs),
(52,966,o),
(62,973,o),
(66,973,cs),
(70,973,o),
(77,969,o),
(87,960,cs),
(97,951,o),
(109,947,o),
(123,947,cs),
(159,947,o),
(184,975,o),
(207,1055,c),
(185,1060,l),
(174,1032,o),
(163,1017,o),
(141,1017,cs),
(133,1017,o),
(125,1021,o),
(117,1029,cs),
(108,1037,o),
(100,1041,o),
(93,1041,cs),
(86,1041,o),
(76,1034,o),
(65,1020,cs),
(54,1005,o),
(30,991,o),
(-7,974,cs),
(-44,957,o),
(-119,945,o),
(-234,936,c),
(-237,925,l),
(-224,914,o),
(-161,887,o),
(-132,882,c)
);
}
);
};
layerId = "A6411EC5-7A77-465E-9F2B-2C7729D1C516";
shapes = (
{
closed = 1;
nodes = (
(-104,882,o),
(-73,890,o),
(-39,906,cs),
(-5,922,o),
(20,938,o),
(36,952,cs),
(52,966,o),
(62,973,o),
(66,973,cs),
(70,973,o),
(77,969,o),
(87,960,cs),
(97,951,o),
(109,947,o),
(123,947,cs),
(159,947,o),
(184,975,o),
(207,1055,c),
(185,1060,l),
(174,1032,o),
(163,1017,o),
(141,1017,cs),
(133,1017,o),
(125,1021,o),
(117,1029,c),
(108,1037,o),
(100,1041,o),
(93,1041,cs),
(86,1041,o),
(76,1034,o),
(65,1020,cs),
(54,1005,o),
(30,991,o),
(-7,974,cs),
(-44,957,o),
(-119,945,o),
(-234,936,c),
(-237,925,l),
(-224,914,o),
(-161,887,o),
(-132,882,c)
);
}
);
width = 0;
}
);
},
{
glyphname = OneDotBelowAltNS;
layers = (
{
anchors = (
{
name = Anchor33;
position = "{0, -257}";
},
{
name = _Anchor11;
position = "{0, -99}";
}
);
background = {
shapes = (
{
closed = 1;
nodes = (
(3,-196,l),
(49,-164,o),
(95,-124,o),
(95,-91,cs),
(95,-59,o),
(64,-34,o),
(9,1,c),
(-1,1,l),
(-18,-10,o),
(-79,-77,o),
(-97,-105,c),
(-97,-115,l),
(-68,-136,o),
(-48,-154,o),
(-5,-196,c)
);
}
);
};
layerId = "A6411EC5-7A77-465E-9F2B-2C7729D1C516";
shapes = (
{
closed = 1;
nodes = (
(3,-196,l),
(49,-164,o),
(95,-124,o),
(95,-91,cs),
(95,-59,o),
(64,-34,o),
(9,1,c),
(-1,1,l),
(-18,-10,o),
(-79,-77,o),
(-97,-105,c),
(-97,-115,l),
(-68,-136,o),
(-48,-154,o),
(-5,-196,c)
);
}
);
width = 0;
}
);
},
{
glyphname = TwoDotsBelowAltNS;
layers = (
{
anchors = (
{
name = Anchor33;
position = "{0, -268}";
},
{
name = _Anchor11;
position = "{0, -99}";
}
);
background = {
shapes = (
{
closed = 1;
nodes = (
(-70,-207,l),
(-33,-182,o),
(-5,-157,o),
(10,-134,c),
(26,-147,o),
(42,-162,o),
(70,-189,c),
(78,-189,l),
(124,-157,o),
(170,-117,o),
(170,-84,cs),
(170,-52,o),
(139,-27,o),
(84,8,c),
(74,8,l),
(62,0,o),
(32,-31,o),
(4,-64,c),
(-9,-49,o),
(-30,-32,o),
(-64,-10,c),
(-74,-10,l),
(-91,-21,o),
(-152,-88,o),
(-170,-116,c),
(-170,-126,l),
(-141,-147,o),
(-129,-158,o),
(-78,-207,c)
);
}
);
};
layerId = "A6411EC5-7A77-465E-9F2B-2C7729D1C516";
shapes = (
{
closed = 1;
nodes = (
(-70,-207,l),
(-33,-182,o),
(-5,-157,o),
(10,-134,c),
(26,-147,o),
(42,-162,o),
(70,-189,c),
(78,-189,l),
(124,-157,o),
(170,-117,o),
(170,-84,cs),
(170,-52,o),
(139,-27,o),
(84,8,c),
(74,8,l),
(62,0,o),
(32,-31,o),
(4,-64,c),
(-9,-49,o),
(-30,-32,o),
(-64,-10,c),
(-74,-10,l),
(-91,-21,o),
(-152,-88,o),
(-170,-116,c),
(-170,-126,l),
(-141,-147,o),
(-129,-158,o),
(-78,-207,c)
);
}
);
width = 0;
}
);
},
{
glyphname = ThreeDotsDownBelowAltNS;
layers = (
{
anchors = (
{
name = Anchor33;
position = "{0, -412}";
},
{
name = _Anchor11;
position = "{0, -98}";
}
);
background = {
shapes = (
{
closed = 1;
nodes = (
(-72,-207,l),
(-35,-180,o),
(-8,-154,o),
(6,-133,c),
(53,-174,o),
(60,-180,o),
(68,-189,c),
(76,-189,l),
(122,-157,o),
(168,-117,o),
(168,-84,cs),
(168,-52,o),
(137,-27,o),
(82,8,c),
(72,8,l),
(61,1,o),
(32,-29,o),
(2,-63,c),
(-11,-49,o),
(-32,-32,o),
(-66,-10,c),
(-76,-10,l),
(-93,-21,o),
(-154,-88,o),
(-172,-116,c),
(-172,-126,l),
(-143,-147,o),
(-127,-162,o),
(-80,-207,c)
);
},
{
closed = 1;
nodes = (
(4,-343,l),
(56,-304,o),
(82,-280,o),
(82,-256,cs),
(82,-229,o),
(43,-198,o),
(11,-176,c),
(3,-176,l),
(-19,-190,o),
(-62,-233,o),
(-83,-264,c),
(-83,-272,l),
(-50,-298,o),
(-43,-306,o),
(-5,-343,c)
);
}
);
};
layerId = "A6411EC5-7A77-465E-9F2B-2C7729D1C516";
shapes = (
{
closed = 1;
nodes = (
(-72,-207,l),
(-35,-180,o),
(-8,-154,o),
(6,-133,c),
(53,-174,o),
(60,-180,o),
(68,-189,c),
(76,-189,l),
(122,-157,o),
(168,-117,o),
(168,-84,cs),
(168,-52,o),
(137,-27,o),
(82,8,c),
(72,8,l),
(61,1,o),
(32,-29,o),
(2,-63,c),
(-11,-49,o),
(-32,-32,o),
(-66,-10,c),
(-76,-10,l),
(-93,-21,o),
(-154,-88,o),
(-172,-116,c),
(-172,-126,l),
(-143,-147,o),
(-127,-162,o),
(-80,-207,c)
);
},
{
closed = 1;
nodes = (
(4,-343,l),
(56,-304,o),
(82,-280,o),
(82,-256,cs),
(82,-229,o),
(43,-198,o),
(11,-176,c),
(3,-176,l),
(-19,-190,o),
(-62,-233,o),
(-83,-264,c),
(-83,-272,l),
(-50,-298,o),
(-43,-306,o),
(-5,-343,c)
);
}
);
width = 0;
}
);
},
{
glyphname = HamzaBelowAF_AltNS;
layers = (
{
anchors = (
{
name = Anchor33;
position = "{0, -308}";
},
{
name = _Anchor11;
position = "{0, -173}";
}
);
background = {
shapes = (
{
closed = 1;
nodes = (
(-107,-338,l),
(-79,-317,o),
(-42,-296,o),
(4,-275,cs),
(93,-234,o),
(125,-220,o),
(145,-160,c),
(131,-151,l),
(104,-176,o),
(67,-197,o),
(46,-197,cs),
(11,-197,o),
(-13,-181,o),
(-13,-157,cs),
(-13,-132,o),
(10,-113,o),
(39,-113,cs),
(53,-113,o),
(69,-120,o),
(77,-132,c),
(85,-132,l),
(93,-126,o),
(103,-116,o),
(103,-97,cs),
(103,-85,o),
(98,-77,o),
(89,-72,cs),
(79,-67,o),
(69,-65,o),
(58,-65,cs),
(5,-65,o),
(-81,-150,o),
(-81,-203,cs),
(-81,-225,o),
(-68,-241,o),
(-57,-248,c),
(-58,-252,l),
(-82,-266,o),
(-108,-291,o),
(-119,-327,c)
);
}
);
};
layerId = "A6411EC5-7A77-465E-9F2B-2C7729D1C516";
shapes = (
{
closed = 1;
nodes = (
(-107,-338,l),
(-79,-317,o),
(-42,-296,o),
(4,-275,cs),
(93,-234,o),
(125,-220,o),
(145,-160,c),
(131,-151,l),
(104,-176,o),
(67,-197,o),
(46,-197,cs),
(11,-197,o),
(-13,-181,o),
(-13,-157,cs),
(-13,-132,o),
(10,-113,o),
(39,-113,cs),
(53,-113,o),
(69,-120,o),
(77,-132,c),
(85,-132,l),
(93,-126,o),
(103,-116,o),
(103,-97,cs),
(103,-85,o),
(98,-77,o),
(89,-72,c),
(79,-67,o),
(69,-65,o),
(58,-65,cs),
(5,-65,o),
(-81,-150,o),
(-81,-203,cs),
(-81,-225,o),
(-68,-241,o),
(-57,-248,c),
(-58,-252,l),
(-82,-266,o),
(-108,-291,o),
(-119,-327,c)
);
}
);
width = 0;
}
);
},
{
glyphname = AlefInferiorAltNS;
layers = (
{
anchors = (
{
name = Anchor33;
position = "{1, -338}";
},
{
name = _Anchor11;
position = "{2, -108}";
}
);
background = {
shapes = (
{
closed = 1;
nodes = (
(-6,-281,l),
(16,-229,o),
(31,-177,o),
(34,-129,cs),
(35,-109,ls),
(38,-34,o),
(40,-11,o),
(45,1,c),
(28,4,l),
(0,-50,o),
(-9,-69,o),
(-11,-125,cs),
(-13,-173,ls),
(-15,-227,o),
(-19,-259,o),
(-23,-278,c)
);
}
);
};
layerId = "A6411EC5-7A77-465E-9F2B-2C7729D1C516";
shapes = (
{
closed = 1;
nodes = (
(-6,-281,l),
(16,-229,o),
(31,-177,o),
(34,-129,cs),
(35,-109,ls),
(38,-34,o),
(40,-11,o),
(45,1,c),
(28,4,l),
(0,-50,o),
(-9,-69,o),
(-11,-125,cs),
(-13,-173,ls),
(-15,-227,o),
(-19,-259,o),
(-23,-278,c)
);
}
);
width = 0;
}
);
},
{
glyphname = Fatha2dotsNS;
layers = (
{
anchors = (
{
name = Anchor31;
position = "{0, 1172}";
},
{
name = _Anchor31;
position = "{0, 844}";
},
{
name = _Anchor5;
position = "{0, 940}";
}
);
background = {
shapes = (
{
closed = 1;
nodes = (
(56,836,l),
(81,854,o),
(97,870,o),
(97,884,cs),
(97,895,o),
(84,909,o),
(58,925,c),
(54,925,l),
(47,919,o),
(24,897,o),
(10,877,c),
(10,873,l),
(20,865,o),
(41,848,o),
(51,836,c)
);
},
{
closed = 1;
nodes = (
(-46,1019,l),
(-19,1037,o),
(-5,1055,o),
(-5,1066,cs),
(-5,1077,o),
(-18,1091,o),
(-43,1108,c),
(-48,1108,l),
(-73,1082,o),
(-80,1076,o),
(-91,1059,c),
(-91,1055,l),
(-82,1048,o),
(-62,1031,o),
(-50,1019,c)
);
},
{
alignment = -1;
ref = FathaNS;
}
);
};
layerId = "A6411EC5-7A77-465E-9F2B-2C7729D1C516";
shapes = (
{
closed = 1;
nodes = (
(56,836,l),
(81,854,o),
(97,870,o),
(97,884,cs),
(97,895,o),
(84,909,o),
(58,925,c),
(54,925,l),
(47,919,o),
(24,897,o),
(10,877,c),
(10,873,l),
(20,865,o),
(41,848,o),
(51,836,c)
);
},
{
closed = 1;
nodes = (
(-46,1019,l),
(-19,1037,o),
(-5,1055,o),
(-5,1066,cs),
(-5,1077,o),
(-18,1091,o),
(-43,1108,c),
(-48,1108,l),
(-73,1082,o),
(-80,1076,o),
(-91,1059,c),
(-91,1055,l),
(-82,1048,o),
(-62,1031,o),
(-50,1019,c)
);
},
{
alignment = -1;
ref = FathaNS;
}
);
width = 0;
}
);
unicode = 1630;
},
{
glyphname = TahDotAboveNS;
layers = (
{
anchors = (
{
name = Anchor31;
position = "{0, 1341}";
},
{
name = _Anchor31;
position = "{-4, 836}";
},
{
name = _Anchor5;
position = "{0, 926}";
}
);
background = {
shapes = (
{
closed = 1;
nodes = (
(42,1059,o),
(115,1108,o),
(115,1175,cs),
(115,1188,o),
(110,1197,o),
(100,1201,cs),
(90,1205,o),
(80,1207,o),
(71,1207,cs),
(46,1207,o),
(9,1192,o),
(-14,1161,c),
(-7,1186,o),
(-2,1217,o),
(1,1254,cs),
(4,1290,o),
(7,1315,o),
(12,1329,c),
(-3,1332,l),
(-25,1295,o),
(-36,1263,o),
(-37,1234,cs),
(-38,1205,o),
(-40,1179,o),
(-41,1157,cs),
(-42,1135,o),
(-53,1113,o),
(-73,1093,cs),
(-75,1091,l),
(-88,1087,o),
(-119,1084,o),
(-129,1082,c),
(-130,1064,l),
(-106,1060,o),
(-76,1059,o),
(-49,1059,cs)
);
},
{
closed = 1;
nodes = (
(1,823,l),
(47,855,o),
(93,895,o),
(93,928,cs),
(93,960,o),
(62,985,o),
(7,1020,c),
(-3,1020,l),
(-20,1009,o),
(-81,942,o),
(-99,914,c),
(-99,904,l),
(-70,883,o),
(-61,875,o),
(-7,823,c)
);
},
{
closed = 1;
nodes = (
(-14,1133,o),
(22,1160,o),
(54,1160,cs),
(71,1160,o),
(79,1153,o),
(79,1144,cs),
(79,1128,o),
(19,1108,o),
(-36,1098,c)
);
}
);
};
layerId = "A6411EC5-7A77-465E-9F2B-2C7729D1C516";
shapes = (
{
closed = 1;
nodes = (
(42,1059,o),
(115,1108,o),
(115,1175,cs),
(115,1188,o),
(110,1197,o),
(100,1201,cs),
(90,1205,o),
(80,1207,o),
(71,1207,cs),
(46,1207,o),
(9,1192,o),
(-14,1161,c),
(-7,1186,o),
(-2,1217,o),
(1,1254,cs),
(4,1290,o),
(7,1315,o),
(12,1329,c),
(-3,1332,l),
(-25,1295,o),
(-36,1263,o),
(-37,1234,cs),
(-38,1205,o),
(-40,1179,o),
(-41,1157,cs),
(-42,1135,o),
(-53,1113,o),
(-73,1093,c),
(-75,1091,l),
(-88,1087,o),
(-119,1084,o),
(-129,1082,c),
(-130,1064,l),
(-106,1060,o),
(-76,1059,o),
(-49,1059,cs)
);
},
{
closed = 1;
nodes = (
(1,823,l),
(47,855,o),
(93,895,o),
(93,928,cs),
(93,960,o),
(62,985,o),
(7,1020,c),
(-3,1020,l),
(-20,1009,o),
(-81,942,o),
(-99,914,c),
(-99,904,l),
(-70,883,o),
(-61,875,o),
(-7,823,c)
);
},
{
closed = 1;
nodes = (
(-14,1133,o),
(22,1160,o),
(54,1160,cs),
(71,1160,o),
(79,1153,o),
(79,1144,cs),
(79,1128,o),
(19,1108,o),
(-36,1098,c)
);
}
);
width = 0;
}
);
},
{
glyphname = ShortVwlAltNS;
layers = (
{
anchors = (
{
name = Anchor31;
position = "{34, 1112}";
},
{
name = _Anchor7;
position = "{31, 805}";
}
);
background = {
shapes = (
{
closed = 1;
nodes = (
(-42,798,l),
(45,800,o),
(136,867,o),
(136,960,cs),
(136,1025,o),
(106,1070,o),
(23,1070,cs),
(5,1070,o),
(-19,1068,o),
(-37,1061,c),
(-34,1036,l),
(-30,1037,o),
(-25,1038,o),
(-19,1038,cs),
(37,1038,o),
(54,1006,o),
(54,955,cs),
(54,881,o),
(19,838,o),
(-43,823,c)
);
}
);
};
layerId = "A6411EC5-7A77-465E-9F2B-2C7729D1C516";
shapes = (
{
closed = 1;
nodes = (
(-42,798,l),
(45,800,o),
(136,867,o),
(136,960,cs),
(136,1025,o),
(106,1070,o),
(23,1070,cs),
(5,1070,o),
(-19,1068,o),
(-37,1061,c),
(-34,1036,l),
(-30,1037,o),
(-25,1038,o),
(-19,1038,cs),
(37,1038,o),
(54,1006,o),
(54,955,cs),
(54,881,o),
(19,838,o),
(-43,823,c)
);
}
);
width = 0;
}
);
},
{
glyphname = ShortVwlNS;
layers = (
{
anchors = (
{
name = Anchor31;
position = "{34, 1112}";
},
{
name = _Anchor31;
position = "{31, 805}";
},
{
name = _Anchor5;
position = "{31, 805}";
}
);
background = {
shapes = (
{
closed = 1;
nodes = (
(-42,798,l),
(45,800,o),
(136,867,o),
(136,960,cs),
(136,1025,o),
(106,1070,o),
(23,1070,cs),
(5,1070,o),
(-19,1068,o),
(-37,1061,c),
(-34,1036,l),
(-30,1037,o),
(-25,1038,o),
(-19,1038,cs),
(37,1038,o),
(54,1006,o),
(54,955,cs),
(54,881,o),
(19,838,o),
(-43,823,c)
);
}
);
};
layerId = "A6411EC5-7A77-465E-9F2B-2C7729D1C516";
shapes = (
{
closed = 1;
nodes = (
(-42,798,l),
(45,800,o),
(136,867,o),
(136,960,cs),
(136,1025,o),
(106,1070,o),
(23,1070,cs),
(5,1070,o),
(-19,1068,o),
(-37,1061,c),
(-34,1036,l),
(-30,1037,o),
(-25,1038,o),
(-19,1038,cs),
(37,1038,o),
(54,1006,o),
(54,955,cs),
(54,881,o),
(19,838,o),
(-43,823,c)
);
}
);
width = 0;
}
);
unicode = 2303;
},
{
glyphname = Small2AboveNS;
layers = (
{
anchors = (
{
name = Anchor31;
position = "{0, 771}";
},
{
name = _Anchor31;
position = "{5, 465}";
},
{
name = _Anchor5;
position = "{0, 560}";
}
);
background = {
shapes = (
{
closed = 1;
nodes = (
(5,467,l),
(15,498,o),
(17,526,o),
(17,577,cs),
(17,589,o),
(16,598,o),
(16,606,c),
(22,604,o),
(31,601,o),
(45,601,cs),
(83,601,o),
(112,624,o),
(124,701,c),
(109,703,l),
(97,673,o),
(74,668,o),
(55,668,cs),
(28,668,o),
(14,676,o),
(6,690,cs),
(4,693,o),
(3,698,o),
(3,702,c),
(-7,703,l),
(-17,680,ls),
(-22,669,o),
(-25,662,o),
(-26,656,c),
(-14,601,o),
(-7,542,o),
(-7,512,cs),
(-7,496,o),
(-10,476,o),
(-10,470,c)
);
}
);
};
layerId = "A6411EC5-7A77-465E-9F2B-2C7729D1C516";
shapes = (
{
closed = 1;
nodes = (
(5,467,l),
(15,498,o),
(17,526,o),
(17,577,cs),
(17,589,o),
(16,598,o),
(16,606,c),
(22,604,o),
(31,601,o),
(45,601,cs),
(83,601,o),
(112,624,o),
(124,701,c),
(109,703,l),
(97,673,o),
(74,668,o),
(55,668,cs),
(28,668,o),
(14,676,o),
(6,690,c),
(4,693,o),
(3,698,o),
(3,702,c),
(-7,703,l),
(-17,680,ls),
(-22,669,o),
(-25,662,o),
(-26,656,c),
(-14,601,o),
(-7,542,o),
(-7,512,cs),
(-7,496,o),
(-10,476,o),
(-10,470,c)
);
}
);
width = 0;
}
);
},
{
glyphname = Small3AboveNS;
layers = (
{
anchors = (
{
name = Anchor31;
position = "{0, 771}";
},
{
name = _Anchor31;
position = "{3, 464}";
},
{
name = _Anchor5;
position = "{0, 560}";
}
);
background = {
shapes = (
{
closed = 1;
nodes = (
(6,466,l),
(16,497,o),
(18,525,o),
(18,574,cs),
(18,584,o),
(17,595,o),
(16,605,c),
(19,604,o),
(26,602,o),
(33,602,cs),
(44,602,o),
(54,605,o),
(62,612,c),
(70,606,o),
(79,603,o),
(90,603,cs),
(129,603,o),
(149,640,o),
(155,701,c),
(140,702,l),
(133,678,o),
(125,667,o),
(106,667,cs),
(103,667,o),
(87,669,o),
(84,677,c),
(86,681,o),
(87,685,o),
(87,689,c),
(88,700,l),
(73,701,l),
(68,678,o),
(59,667,o),
(36,667,cs),
(21,667,o),
(12,672,o),
(9,682,cs),
(6,693,ls),
(5,696,o),
(4,698,o),
(3,701,c),
(-6,702,l),
(-13,689,o),
(-22,667,o),
(-26,655,c),
(-25,651,o),
(-25,647,o),
(-24,643,cs),
(-15,601,o),
(-7,544,o),
(-7,511,cs),
(-7,490,o),
(-8,476,o),
(-9,469,c)
);
}
);
};
layerId = "A6411EC5-7A77-465E-9F2B-2C7729D1C516";
shapes = (
{
closed = 1;
nodes = (
(6,466,l),
(16,497,o),
(18,525,o),
(18,574,cs),
(18,584,o),
(17,595,o),
(16,605,c),
(19,604,o),
(26,602,o),
(33,602,cs),
(44,602,o),
(54,605,o),
(62,612,c),
(70,606,o),
(79,603,o),
(90,603,cs),
(129,603,o),
(149,640,o),
(155,701,c),
(140,702,l),
(133,678,o),
(125,667,o),
(106,667,cs),
(103,667,o),
(87,669,o),
(84,677,c),
(86,681,o),
(87,685,o),
(87,689,c),
(88,700,l),
(73,701,l),
(68,678,o),
(59,667,o),
(36,667,cs),
(21,667,o),
(12,672,o),
(9,682,cs),
(6,693,l),
(5,696,o),
(4,698,o),
(3,701,c),
(-6,702,l),
(-13,689,o),
(-22,667,o),
(-26,655,c),
(-25,651,o),
(-25,647,o),
(-24,643,cs),
(-15,601,o),
(-7,544,o),
(-7,511,cs),
(-7,490,o),
(-8,476,o),
(-9,469,c)
);
}
);
width = 0;
}
);
},
{
glyphname = TwoDotsVertAboveAltNS;
layers = (
{
anchors = (
{
name = Anchor31;
position = "{112, 406}";
},
{
name = _Anchor7;
position = "{119, 106}";
}
);
background = {
shapes = (
{
closed = 1;
nodes = (
(118,2,l),
(169,36,o),
(209,78,o),
(209,107,cs),
(209,129,o),
(192,149,o),
(155,178,c),
(187,206,o),
(207,232,o),
(207,253,cs),
(207,286,o),
(172,313,o),
(121,345,c),
(111,345,l),
(94,334,o),
(33,267,o),
(15,239,c),
(15,229,l),
(34,215,o),
(46,205,o),
(83,171,c),
(59,147,o),
(36,119,o),
(17,93,c),
(17,83,l),
(46,62,o),
(55,54,o),
(109,2,c)
);
}
);
};
layerId = "A6411EC5-7A77-465E-9F2B-2C7729D1C516";
shapes = (
{
closed = 1;
nodes = (
(118,2,l),
(169,36,o),
(209,78,o),
(209,107,cs),
(209,129,o),
(192,149,o),
(155,178,c),
(187,206,o),
(207,232,o),
(207,253,cs),
(207,286,o),
(172,313,o),
(121,345,c),
(111,345,l),
(94,334,o),
(33,267,o),
(15,239,c),
(15,229,l),
(34,215,o),
(46,205,o),
(83,171,c),
(59,147,o),
(36,119,o),
(17,93,c),
(17,83,l),
(46,62,o),
(55,54,o),
(109,2,c)
);
}
);
width = 0;
}
);
},
{
glyphname = TwoDotsVertBelowAltNS;
layers = (
{
anchors = (
{
name = Anchor33;
position = "{117, -413}";
},
{
name = _Anchor11;
position = "{119, -98}";
}
);
background = {
shapes = (
{
closed = 1;
nodes = (
(118,-350,l),
(169,-316,o),
(209,-274,o),
(209,-245,cs),
(209,-223,o),
(192,-203,o),
(155,-174,c),
(187,-146,o),
(207,-120,o),
(207,-99,cs),
(207,-66,o),
(172,-39,o),
(121,-7,c),
(111,-7,l),
(94,-18,o),
(33,-85,o),
(15,-113,c),
(15,-123,l),
(34,-137,o),
(46,-147,o),
(83,-181,c),
(59,-205,o),
(36,-233,o),
(17,-259,c),
(17,-269,l),
(46,-290,o),
(64,-306,o),
(109,-350,c)
);
}
);
};
layerId = "A6411EC5-7A77-465E-9F2B-2C7729D1C516";
shapes = (
{
closed = 1;
nodes = (
(118,-350,l),
(169,-316,o),
(209,-274,o),
(209,-245,cs),
(209,-223,o),
(192,-203,o),
(155,-174,c),
(187,-146,o),
(207,-120,o),
(207,-99,cs),
(207,-66,o),
(172,-39,o),
(121,-7,c),
(111,-7,l),
(94,-18,o),
(33,-85,o),
(15,-113,c),
(15,-123,l),
(34,-137,o),
(46,-147,o),
(83,-181,c),
(59,-205,o),
(36,-233,o),
(17,-259,c),
(17,-269,l),
(46,-290,o),
(64,-306,o),
(109,-350,c)
);
}
);
width = 0;
}
);
},
{
glyphname = ZwarakayNS;
layers = (
{
anchors = (
{
name = Anchor31;
position = "{0, 1032}";
},
{
name = _Anchor31;
position = "{0, 892}";
},
{
name = _Anchor5;
position = "{0, 989}";
}
);
background = {
shapes = (
{
closed = 1;
nodes = (
(-153,888,l),
(-143,889,o),
(-132,890,o),
(-119,892,c),
(-75,896,o),
(-6,902,o),
(109,907,c),
(158,954,l),
(153,963,l),
(106,962,o),
(65,960,o),
(31,959,cs),
(-41,956,o),
(-84,952,o),
(-99,948,cs),
(-121,942,o),
(-141,925,o),
(-158,900,c)
);
}
);
};
layerId = "A6411EC5-7A77-465E-9F2B-2C7729D1C516";
shapes = (
{
closed = 1;
nodes = (
(-153,888,l),
(-143,889,o),
(-132,890,o),
(-119,892,c),
(-75,896,o),
(-6,902,o),
(109,907,c),
(158,954,l),
(153,963,l),
(106,962,o),
(65,960,o),
(31,959,cs),
(-41,956,o),
(-84,952,o),
(-99,948,cs),
(-121,942,o),
(-141,925,o),
(-158,900,c)
);
}
);
width = 0;
}
);
unicode = 1625;
},
{
glyphname = DammaRevAltNS;
layers = (
{
anchors = (
{
name = Anchor31;
position = "{9, 1172}";
},
{
name = _Anchor7;
position = "{11, 958}";
}
);
background = {
shapes = (
{
closed = 1;
nodes = (
(139,857,l),
(111,883,o),
(81,909,o),
(49,934,cs),
(-1,973,l),
(16,993,o),
(21,1008,o),
(21,1022,cs),
(21,1068,o),
(-15,1118,o),
(-64,1118,cs),
(-98,1118,o),
(-108,1086,o),
(-108,1067,cs),
(-108,1011,o),
(-69,960,o),
(1,915,cs),
(29,897,o),
(110,853,o),
(131,846,c)
);
},
{
closed = 1;
nodes = (
(-62,1022,o),
(-71,1038,o),
(-71,1050,cs),
(-71,1067,o),
(-60,1076,o),
(-44,1076,cs),
(-25,1076,o),
(-16,1062,o),
(-16,1049,cs),
(-16,1034,o),
(-27,1025,o),
(-47,1009,c)
);
}
);
};
layerId = "A6411EC5-7A77-465E-9F2B-2C7729D1C516";
shapes = (
{
alignment = -1;
ref = DammaRevNS;
}
);
width = 0;
}
);
},
{
glyphname = DammaRevNS;
layers = (
{
anchors = (
{
name = Anchor31;
position = "{9, 1172}";
},
{
name = _Anchor31;
position = "{9, 926}";
},
{
name = _Anchor5;
position = "{11, 958}";
}
);
background = {
shapes = (
{
closed = 1;
nodes = (
(139,857,l),
(111,883,o),
(81,909,o),
(49,934,cs),
(-1,973,l),
(16,993,o),
(21,1008,o),
(21,1022,cs),
(21,1068,o),
(-15,1118,o),
(-64,1118,cs),
(-98,1118,o),
(-108,1086,o),
(-108,1067,cs),
(-108,1011,o),
(-69,960,o),
(1,915,cs),
(29,897,o),
(110,853,o),
(131,846,c)
);
},
{
closed = 1;
nodes = (
(-62,1022,o),
(-71,1038,o),
(-71,1050,cs),
(-71,1067,o),
(-60,1076,o),
(-44,1076,cs),
(-25,1076,o),
(-16,1062,o),
(-16,1049,cs),
(-16,1034,o),
(-27,1025,o),
(-47,1009,c)
);
}
);
};
layerId = "A6411EC5-7A77-465E-9F2B-2C7729D1C516";
shapes = (
{
closed = 1;
nodes = (
(139,857,l),
(111,883,o),
(81,909,o),
(49,934,cs),
(-1,973,l),
(16,993,o),
(21,1008,o),
(21,1022,cs),
(21,1068,o),
(-15,1118,o),
(-64,1118,cs),
(-98,1118,o),
(-108,1086,o),
(-108,1067,cs),
(-108,1011,o),
(-69,960,o),
(1,915,cs),
(29,897,o),
(110,853,o),
(131,846,c)
);
},
{
closed = 1;
nodes = (
(-62,1022,o),
(-71,1038,o),
(-71,1050,cs),
(-71,1067,o),
(-60,1076,o),
(-44,1076,cs),
(-25,1076,o),
(-16,1062,o),
(-16,1049,cs),
(-16,1034,o),
(-27,1025,o),
(-47,1009,c)
);
}
);
width = 0;
}
);
unicode = 1629;
},
{
glyphname = OneDotSmallAbove;
layers = (
{
anchors = (
{
name = _Anchor21;
position = "{138, 81}";
}
);
background = {
shapes = (
{
closed = 1;
nodes = (
(133,1,l),
(176,31,o),
(205,60,o),
(205,85,cs),
(205,106,o),
(190,124,o),
(136,158,c),
(128,158,l),
(118,150,o),
(64,94,o),
(52,74,c),
(52,66,l),
(81,45,o),
(110,19,o),
(125,1,c)
);
}
);
};
layerId = "A6411EC5-7A77-465E-9F2B-2C7729D1C516";
shapes = (
{
closed = 1;
nodes = (
(133,1,l),
(176,31,o),
(205,60,o),
(205,85,cs),
(205,106,o),
(190,124,o),
(136,158,c),
(128,158,l),
(118,150,o),
(64,94,o),
(52,74,c),
(52,66,l),
(81,45,o),
(110,19,o),
(125,1,c)
);
}
);
width = 0;
}
);
},
{
glyphname = OneDotSmallBelowNS;
layers = (
{
anchors = (
{
name = _Anchor23;
position = "{138, -95}";
}
);
background = {
shapes = (
{
closed = 1;
nodes = (
(133,-175,l),
(176,-145,o),
(205,-116,o),
(205,-91,cs),
(205,-70,o),
(190,-52,o),
(136,-18,c),
(128,-18,l),
(118,-26,o),
(64,-82,o),
(52,-102,c),
(52,-110,l),
(81,-131,o),
(110,-157,o),
(125,-175,c)
);
}
);
};
layerId = "A6411EC5-7A77-465E-9F2B-2C7729D1C516";
shapes = (
{
closed = 1;
nodes = (
(133,-175,l),
(176,-145,o),
(205,-116,o),
(205,-91,cs),
(205,-70,o),
(190,-52,o),
(136,-18,c),
(128,-18,l),
(118,-26,o),
(64,-82,o),
(52,-102,c),
(52,-110,l),
(81,-131,o),
(110,-157,o),
(125,-175,c)
);
}
);
width = 0;
}
);
},
{
glyphname = uni25CC;
layers = (
{
anchors = (
{
name = Anchor11;
position = "{454, -294}";
},
{
name = Anchor13;
position = "{595, 676}";
},
{
name = Anchor15;
position = "{211, 952}";
},
{
name = Anchor17;
position = "{572, 658}";
},
{
name = Anchor19;
position = "{623, 719}";
},
{
name = Anchor21;
position = "{170, 87}";
},
{
name = Anchor23;
position = "{461, -181}";
},
{
name = Anchor25;
position = "{361, 349}";
},
{
name = Anchor28;
position = "{68, -344}";
},
{
name = Anchor31;
position = "{19, 1106}";
},
{
name = Anchor33;
position = "{50, -324}";
},
{
name = Anchor5;
position = "{450, 872}";
},
{
name = Anchor7;
position = "{482, 835}";
},
{
name = Anchor9;
position = "{390, -246}";
}
);
background = {
shapes = (
{
closed = 1;
nodes = (
(227,271,o),
(237,281,o),
(237,301,cs),
(237,321,o),
(227,332,o),
(205,332,cs),
(186,332,o),
(176,321,o),
(176,301,cs),
(176,281,o),
(186,271,o),
(205,271,cs)
);
},
{
closed = 1;
nodes = (
(250,178,o),
(261,187,o),
(261,206,cs),
(261,226,o),
(250,236,o),
(229,236,cs),
(210,236,o),
(200,226,o),
(200,206,cs),
(200,187,o),
(210,178,o),
(229,178,cs)
);
},
{
closed = 1;
nodes = (
(319,107,o),
(330,117,o),
(330,136,cs),
(330,157,o),
(319,167,o),
(299,167,cs),
(280,167,o),
(271,157,o),
(271,136,cs),
(271,117,o),
(280,107,o),
(299,107,cs)
);
},
{
closed = 1;
nodes = (
(415,83,o),
(424,93,o),
(424,113,cs),
(424,133,o),
(415,143,o),
(395,143,cs),
(374,143,o),
(364,133,o),
(364,113,cs),
(364,93,o),
(374,83,o),
(395,83,cs)
);
},
{
closed = 1;
nodes = (
(508,107,o),
(518,117,o),
(518,136,cs),
(518,157,o),
(508,167,o),
(489,167,cs),
(473,167,o),
(457,158,o),
(457,136,cs),
(457,117,o),
(468,107,o),
(489,107,cs)
);
},
{
closed = 1;
nodes = (
(250,365,o),
(261,375,o),
(261,396,cs),
(261,416,o),
(250,425,o),
(229,425,cs),
(210,425,o),
(200,416,o),
(200,396,cs),
(200,375,o),
(210,365,o),
(229,365,cs)
);
},
{
closed = 1;
nodes = (
(578,178,o),
(588,187,o),
(588,206,cs),
(588,226,o),
(578,236,o),
(559,236,cs),
(539,236,o),
(529,226,o),
(529,206,cs),
(529,187,o),
(539,178,o),
(559,178,cs)
);
},
{
closed = 1;
nodes = (
(319,436,o),
(330,446,o),
(330,466,cs),
(330,486,o),
(319,496,o),
(299,496,cs),
(280,496,o),
(271,486,o),
(271,466,cs),
(271,446,o),
(280,436,o),
(299,436,cs)
);
},
{
closed = 1;
nodes = (
(415,458,o),
(424,469,o),
(424,490,cs),
(424,510,o),
(415,520,o),
(395,520,cs),
(374,520,o),
(364,510,o),
(364,490,cs),
(364,469,o),
(374,458,o),
(395,458,cs)
);
},
{
closed = 1;
nodes = (
(603,271,o),
(613,281,o),
(613,301,cs),
(613,321,o),
(603,332,o),
(582,332,cs),
(563,332,o),
(553,321,o),
(553,301,cs),
(553,281,o),
(563,271,o),
(582,271,cs)
);
},
{
closed = 1;
nodes = (
(508,436,o),
(518,446,o),
(518,466,cs),
(518,486,o),
(508,496,o),
(489,496,cs),
(473,496,o),
(457,487,o),
(457,466,cs),
(457,443,o),
(475,436,o),
(489,436,cs)
);
},
{
closed = 1;
nodes = (
(578,365,o),
(588,375,o),
(588,396,cs),
(588,416,o),
(578,425,o),
(559,425,cs),
(539,425,o),
(529,416,o),
(529,396,cs),
(529,375,o),
(539,365,o),
(559,365,cs)
);
}
);
};
layerId = "A6411EC5-7A77-465E-9F2B-2C7729D1C516";
shapes = (
{
closed = 1;
nodes = (
(227,271,o),
(237,281,o),
(237,301,cs),
(237,321,o),
(227,332,o),
(205,332,cs),
(186,332,o),
(176,321,o),
(176,301,cs),
(176,281,o),
(186,271,o),
(205,271,cs)
);
},
{
closed = 1;
nodes = (
(250,178,o),
(261,187,o),
(261,206,cs),
(261,226,o),
(250,236,o),
(229,236,cs),
(210,236,o),
(200,226,o),
(200,206,cs),
(200,187,o),
(210,178,o),
(229,178,cs)
);
},
{
closed = 1;
nodes = (
(319,107,o),
(330,117,o),
(330,136,cs),
(330,157,o),
(319,167,o),
(299,167,cs),
(280,167,o),
(271,157,o),
(271,136,cs),
(271,117,o),
(280,107,o),
(299,107,cs)
);
},
{
closed = 1;
nodes = (
(415,83,o),
(424,93,o),
(424,113,cs),
(424,133,o),
(415,143,o),
(395,143,cs),
(374,143,o),
(364,133,o),
(364,113,cs),
(364,93,o),
(374,83,o),
(395,83,cs)
);
},
{
closed = 1;
nodes = (
(508,107,o),
(518,117,o),
(518,136,cs),
(518,157,o),
(508,167,o),
(489,167,cs),
(473,167,o),
(457,158,o),
(457,136,cs),
(457,117,o),
(468,107,o),
(489,107,cs)
);
},
{
closed = 1;
nodes = (
(250,365,o),
(261,375,o),
(261,396,cs),
(261,416,o),
(250,425,o),
(229,425,cs),
(210,425,o),
(200,416,o),
(200,396,cs),
(200,375,o),
(210,365,o),
(229,365,cs)
);
},
{
closed = 1;
nodes = (
(578,178,o),
(588,187,o),
(588,206,cs),
(588,226,o),
(578,236,o),
(559,236,cs),
(539,236,o),
(529,226,o),
(529,206,cs),
(529,187,o),
(539,178,o),
(559,178,cs)
);
},
{
closed = 1;
nodes = (
(319,436,o),
(330,446,o),
(330,466,cs),
(330,486,o),
(319,496,o),
(299,496,cs),
(280,496,o),
(271,486,o),
(271,466,cs),
(271,446,o),
(280,436,o),
(299,436,cs)
);
},
{
closed = 1;
nodes = (
(415,458,o),
(424,469,o),
(424,490,cs),
(424,510,o),
(415,520,o),
(395,520,cs),
(374,520,o),
(364,510,o),
(364,490,cs),
(364,469,o),
(374,458,o),
(395,458,cs)
);
},
{
closed = 1;
nodes = (
(603,271,o),
(613,281,o),
(613,301,cs),
(613,321,o),
(603,332,o),
(582,332,cs),
(563,332,o),
(553,321,o),
(553,301,cs),
(553,281,o),
(563,271,o),
(582,271,cs)
);
},
{
closed = 1;
nodes = (
(508,436,o),
(518,446,o),
(518,466,cs),
(518,486,o),
(508,496,o),
(489,496,cs),
(473,496,o),
(457,487,o),
(457,466,cs),
(457,443,o),
(475,436,o),
(489,436,cs)
);
},
{
closed = 1;
nodes = (
(578,365,o),
(588,375,o),
(588,396,cs),
(588,416,o),
(578,425,o),
(559,425,cs),
(539,425,o),
(529,416,o),
(529,396,cs),
(529,375,o),
(539,365,o),
(559,365,cs)
);
}
);
width = 789;
}
);
unicode = 9676;
},
{
glyphname = Misra;
layers = (
{
background = {
shapes = (
{
closed = 1;
nodes = (
(103,-441,l),
(112,-419,o),
(122,-398,o),
(131,-378,cs),
(156,-322,l),
(206,-352,o),
(274,-373,o),
(358,-373,cs),
(637,-373,o),
(873,-184,o),
(873,129,cs),
(873,298,o),
(765,359,o),
(659,359,cs),
(493,359,o),
(344,219,o),
(210,-81,c),
(162,-43,o),
(138,10,o),
(138,79,cs),
(138,167,o),
(169,239,o),
(256,321,cs),
(317,378,o),
(446,460,o),
(525,503,cs),
(552,518,o),
(576,539,o),
(595,566,cs),
(614,593,o),
(627,614,o),
(633,629,c),
(616,641,l),
(570,608,o),
(521,577,o),
(474,552,cs),
(439,533,o),
(428,530,o),
(391,530,cs),
(316,530,o),
(254,562,o),
(254,627,cs),
(254,664,o),
(292,717,o),
(383,717,cs),
(419,717,o),
(449,701,o),
(466,685,c),
(478,684,l),
(502,698,o),
(515,727,o),
(515,754,cs),
(515,802,o),
(475,829,o),
(427,829,cs),
(383,829,o),
(337,811,o),
(295,772,cs),
(202,687,o),
(127,608,o),
(127,508,cs),
(127,445,o),
(154,401,o),
(231,373,c),
(86,250,o),
(18,123,o),
(18,-52,cs),
(18,-151,o),
(50,-236,o),
(120,-296,c),
(98,-354,o),
(82,-406,o),
(75,-434,c)
);
},
{
closed = 1;
nodes = (
(353,-139,o),
(299,-129,o),
(256,-108,c),
(328,43,o),
(470,199,o),
(653,199,cs),
(743,199,o),
(822,169,o),
(822,90,cs),
(822,-58,o),
(605,-139,o),
(416,-139,cs)
);
}
);
};
layerId = "A6411EC5-7A77-465E-9F2B-2C7729D1C516";
shapes = (
{
closed = 1;
nodes = (
(103,-441,l),
(112,-419,o),
(122,-398,o),
(131,-378,cs),
(156,-322,l),
(206,-352,o),
(274,-373,o),
(358,-373,cs),
(637,-373,o),
(873,-184,o),
(873,129,cs),
(873,298,o),
(765,359,o),
(659,359,cs),
(493,359,o),
(344,219,o),
(210,-81,c),
(162,-43,o),
(138,10,o),
(138,79,cs),
(138,167,o),
(169,239,o),
(256,321,cs),
(317,378,o),
(446,460,o),
(525,503,cs),
(552,518,o),
(576,539,o),
(595,566,cs),
(614,593,o),
(627,614,o),
(633,629,c),
(616,641,l),
(570,608,o),
(521,577,o),
(474,552,cs),
(439,533,o),
(428,530,o),
(391,530,cs),
(316,530,o),
(254,562,o),
(254,627,cs),
(254,664,o),
(292,717,o),
(383,717,cs),
(419,717,o),
(449,701,o),
(466,685,c),
(478,684,l),
(502,698,o),
(515,727,o),
(515,754,cs),
(515,802,o),
(475,829,o),
(427,829,cs),
(383,829,o),
(337,811,o),
(295,772,cs),
(202,687,o),
(127,608,o),
(127,508,cs),
(127,445,o),
(154,401,o),
(231,373,c),
(86,250,o),
(18,123,o),
(18,-52,cs),
(18,-151,o),
(50,-236,o),
(120,-296,c),
(98,-354,o),
(82,-406,o),
(75,-434,c)
);
},
{
closed = 1;
nodes = (
(353,-139,o),
(299,-129,o),
(256,-108,c),
(328,43,o),
(470,199,o),
(653,199,cs),
(743,199,o),
(822,169,o),
(822,90,cs),
(822,-58,o),
(605,-139,o),
(416,-139,cs)
);
}
);
width = 930;
}
);
unicode = 1551;
},
{
glyphname = Sanah;
layers = (
{
anchors = (
{
name = Anchor25;
position = "{770, 393}";
}
);
background = {
shapes = (
{
closed = 1;
nodes = (
(128,-254,l),
(168,-194,o),
(207,-157,o),
(265,-157,cs),
(297,-157,o),
(341,-173,o),
(387,-173,cs),
(458,-173,o),
(515,-119,o),
(559,-57,cs),
(579,-29,o),
(595,-14,o),
(609,-14,cs),
(620,-14,o),
(640,-20,o),
(670,-32,cs),
(700,-44,o),
(741,-51,o),
(793,-51,cs),
(968,-51,o),
(1160,43,o),
(1290,145,cs),
(1347,190,o),
(1390,218,o),
(1419,225,c),
(1433,245,o),
(1474,344,o),
(1486,382,c),
(1483,391,l),
(1468,389,o),
(1452,378,o),
(1424,355,cs),
(1235,200,o),
(1060,135,o),
(831,135,cs),
(742,135,o),
(692,157,o),
(674,157,cs),
(656,157,o),
(643,144,o),
(632,132,cs),
(566,60,o),
(555,42,o),
(502,42,cs),
(467,42,o),
(424,55,o),
(397,55,cs),
(325,55,o),
(266,30,o),
(219,-21,cs),
(172,-72,o),
(130,-145,o),
(95,-240,c)
);
}
);
};
layerId = "A6411EC5-7A77-465E-9F2B-2C7729D1C516";
shapes = (
{
closed = 1;
nodes = (
(128,-254,l),
(168,-194,o),
(207,-157,o),
(265,-157,cs),
(297,-157,o),
(341,-173,o),
(387,-173,cs),
(458,-173,o),
(515,-119,o),
(559,-57,cs),
(579,-29,o),
(595,-14,o),
(609,-14,cs),
(620,-14,o),
(640,-20,o),
(670,-32,cs),
(700,-44,o),
(741,-51,o),
(793,-51,cs),
(968,-51,o),
(1160,43,o),
(1290,145,cs),
(1347,190,o),
(1390,218,o),
(1419,225,c),
(1433,245,o),
(1474,344,o),
(1486,382,c),
(1483,391,l),
(1468,389,o),
(1452,378,o),
(1424,355,cs),
(1235,200,o),
(1060,135,o),
(831,135,cs),
(742,135,o),
(692,157,o),
(674,157,cs),
(656,157,o),
(643,144,o),
(632,132,cs),
(566,60,o),
(555,42,o),
(502,42,cs),
(467,42,o),
(424,55,o),
(397,55,cs),
(325,55,o),
(266,30,o),
(219,-21,cs),
(172,-72,o),
(130,-145,o),
(95,-240,c)
);
}
);
width = 1582;
}
);
unicode = 1537;
},
{
glyphname = VerseSign;
layers = (
{
background = {
shapes = (
{
closed = 1;
nodes = (
(867,-30,o),
(1328,41,o),
(1606,174,c),
(1630,213,o),
(1652,298,o),
(1655,326,c),
(1644,328,l),
(1534,283,o),
(1406,246,o),
(1270,217,cs),
(1042,169,o),
(790,143,o),
(566,135,c),
(586,184,o),
(596,240,o),
(596,286,cs),
(596,372,o),
(538,459,o),
(416,459,cs),
(347,459,o),
(277,421,o),
(208,346,cs),
(139,270,o),
(104,193,o),
(104,114,cs),
(104,-8,o),
(237,-30,o),
(430,-30,cs)
);
},
{
closed = 1;
nodes = (
(502,135,ls),
(354,135,o),
(269,145,o),
(228,167,cs),
(205,180,o),
(195,195,o),
(195,215,cs),
(195,275,o),
(281,311,o),
(348,311,cs),
(456,311,o),
(522,257,o),
(522,141,cs),
(522,135,l)
);
}
);
};
layerId = "A6411EC5-7A77-465E-9F2B-2C7729D1C516";
shapes = (
{
closed = 1;
nodes = (
(867,-30,o),
(1328,41,o),
(1606,174,c),
(1630,213,o),
(1652,298,o),
(1655,326,c),
(1644,328,l),
(1534,283,o),
(1406,246,o),
(1270,217,cs),
(1042,169,o),
(790,143,o),
(566,135,c),
(586,184,o),
(596,240,o),
(596,286,cs),
(596,372,o),
(538,459,o),
(416,459,cs),
(347,459,o),
(277,421,o),
(208,346,cs),
(139,270,o),
(104,193,o),
(104,114,cs),
(104,-8,o),
(237,-30,o),
(430,-30,cs)
);
},
{
closed = 1;
nodes = (
(502,135,ls),
(354,135,o),
(269,145,o),
(228,167,cs),
(205,180,o),
(195,195,o),
(195,215,cs),
(195,275,o),
(281,311,o),
(348,311,cs),
(456,311,o),
(522,257,o),
(522,141,cs),
(522,135,l)
);
}
);
width = 1750;
}
);
unicode = 1550;
},
{
glyphname = Footnote;
layers = (
{
anchors = (
{
name = Anchor25;
position = "{889, 399}";
}
);
background = {
shapes = (
{
closed = 1;
nodes = (
(812,-43,o),
(1235,41,o),
(1488,160,c),
(1507,191,o),
(1535,261,o),
(1544,323,c),
(1533,325,l),
(1267,214,o),
(923,150,o),
(502,132,c),
(513,165,o),
(522,203,o),
(522,250,cs),
(522,346,o),
(468,395,o),
(382,395,cs),
(315,395,o),
(255,360,o),
(202,290,cs),
(149,219,o),
(122,154,o),
(122,95,cs),
(122,2,o),
(183,-43,o),
(337,-43,cs)
);
},
{
closed = 1;
nodes = (
(405,130,ls),
(241,130,o),
(201,151,o),
(201,185,cs),
(201,225,o),
(251,257,o),
(311,257,cs),
(384,257,o),
(454,226,o),
(458,136,c),
(458,130,l)
);
}
);
};
layerId = "A6411EC5-7A77-465E-9F2B-2C7729D1C516";
shapes = (
{
closed = 1;
nodes = (
(812,-43,o),
(1235,41,o),
(1488,160,c),
(1507,191,o),
(1535,261,o),
(1544,323,c),
(1533,325,l),
(1267,214,o),
(923,150,o),
(502,132,c),
(513,165,o),
(522,203,o),
(522,250,cs),
(522,346,o),
(468,395,o),
(382,395,cs),
(315,395,o),
(255,360,o),
(202,290,cs),
(149,219,o),
(122,154,o),
(122,95,cs),
(122,2,o),
(183,-43,o),
(337,-43,cs)
);
},
{
closed = 1;
nodes = (
(405,130,ls),
(241,130,o),
(201,151,o),
(201,185,cs),
(201,225,o),
(251,257,o),
(311,257,cs),
(384,257,o),
(454,226,o),
(458,136,c),
(458,130,l)
);
}
);
width = 1648;
}
);
unicode = 1538;
},
{
glyphname = Safhah;
layers = (
{
anchors = (
{
name = Anchor25;
position = "{415, 369}";
}
);
background = {
shapes = (
{
closed = 1;
nodes = (
(443,-80,o),
(614,-41,o),
(743,46,cs),
(751,51,o),
(754,54,o),
(762,54,cs),
(770,54,o),
(771,52,o),
(784,44,cs),
(840,9,o),
(896,-2,o),
(959,-2,cs),
(1061,-2,o),
(1148,40,o),
(1219,125,cs),
(1290,209,o),
(1326,289,o),
(1326,365,cs),
(1326,422,o),
(1287,466,o),
(1215,466,cs),
(1081,466,o),
(985,357,o),
(879,203,c),
(850,216,o),
(837,218,o),
(827,218,cs),
(812,218,o),
(800,210,o),
(774,190,cs),
(663,104,o),
(554,45,o),
(448,12,cs),
(341,-21,o),
(226,-41,o),
(101,-48,c),
(94,-73,l),
(114,-75,o),
(170,-80,o),
(227,-80,cs)
);
},
{
closed = 1;
nodes = (
(991,173,o),
(964,174,o),
(924,186,c),
(983,259,o),
(1068,303,o),
(1151,303,cs),
(1199,303,o),
(1239,286,o),
(1239,256,cs),
(1239,210,o),
(1090,173,o),
(1024,173,cs)
);
}
);
};
layerId = "A6411EC5-7A77-465E-9F2B-2C7729D1C516";
shapes = (
{
closed = 1;
nodes = (
(443,-80,o),
(614,-41,o),
(743,46,cs),
(751,51,o),
(754,54,o),
(762,54,cs),
(770,54,o),
(771,52,o),
(784,44,cs),
(840,9,o),
(896,-2,o),
(959,-2,cs),
(1061,-2,o),
(1148,40,o),
(1219,125,cs),
(1290,209,o),
(1326,289,o),
(1326,365,cs),
(1326,422,o),
(1287,466,o),
(1215,466,cs),
(1081,466,o),
(985,357,o),
(879,203,c),
(850,216,o),
(837,218,o),
(827,218,cs),
(812,218,o),
(800,210,o),
(774,190,cs),
(663,104,o),
(554,45,o),
(448,12,cs),
(341,-21,o),
(226,-41,o),
(101,-48,c),
(94,-73,l),
(114,-75,o),
(170,-80,o),
(227,-80,cs)
);
},
{
closed = 1;
nodes = (
(991,173,o),
(964,174,o),
(924,186,c),
(983,259,o),
(1068,303,o),
(1151,303,cs),
(1199,303,o),
(1239,286,o),
(1239,256,cs),
(1239,210,o),
(1090,173,o),
(1024,173,cs)
);
}
);
width = 1463;
}
);
unicode = 1539;
},
{
glyphname = NumberSign;
layers = (
{
anchors = (
{
name = Anchor25;
position = "{800, 379}";
}
);
background = {
shapes = (
{
closed = 1;
nodes = (
(862,-83,o),
(1057,16,o),
(1269,148,cs),
(1307,173,o),
(1328,177,o),
(1363,177,cs),
(1386,177,o),
(1411,164,o),
(1441,148,cs),
(1463,137,o),
(1475,132,o),
(1488,132,cs),
(1553,132,o),
(1607,236,o),
(1607,280,cs),
(1607,312,o),
(1587,326,o),
(1522,355,cs),
(1491,369,o),
(1480,382,o),
(1480,397,cs),
(1480,442,o),
(1528,494,o),
(1557,519,c),
(1569,533,o),
(1621,663,o),
(1624,688,c),
(1613,693,l),
(1573,657,o),
(1508,577,o),
(1454,477,cs),
(1428,427,o),
(1403,366,o),
(1392,327,c),
(1381,317,o),
(1365,303,o),
(1338,277,cs),
(1315,254,o),
(1285,235,o),
(1245,217,cs),
(1069,135,o),
(741,109,o),
(575,109,cs),
(380,109,o),
(222,129,o),
(135,150,c),
(124,139,l),
(118,119,o),
(115,85,o),
(115,64,cs),
(115,26,o),
(127,-30,o),
(213,-53,cs),
(295,-75,o),
(415,-83,o),
(516,-83,cs)
);
}
);
};
layerId = "A6411EC5-7A77-465E-9F2B-2C7729D1C516";
shapes = (
{
closed = 1;
nodes = (
(862,-83,o),
(1057,16,o),
(1269,148,cs),
(1307,173,o),
(1328,177,o),
(1363,177,cs),
(1386,177,o),
(1411,164,o),
(1441,148,cs),
(1463,137,o),
(1475,132,o),
(1488,132,cs),
(1553,132,o),
(1607,236,o),
(1607,280,cs),
(1607,312,o),
(1587,326,o),
(1522,355,cs),
(1491,369,o),
(1480,382,o),
(1480,397,cs),
(1480,442,o),
(1528,494,o),
(1557,519,c),
(1569,533,o),
(1621,663,o),
(1624,688,c),
(1613,693,l),
(1573,657,o),
(1508,577,o),
(1454,477,cs),
(1428,427,o),
(1403,366,o),
(1392,327,c),
(1381,317,o),
(1365,303,o),
(1338,277,cs),
(1315,254,o),
(1285,235,o),
(1245,217,cs),
(1069,135,o),
(741,109,o),
(575,109,cs),
(380,109,o),
(222,129,o),
(135,150,c),
(124,139,l),
(118,119,o),
(115,85,o),
(115,64,cs),
(115,26,o),
(127,-30,o),
(213,-53,cs),
(295,-75,o),
(415,-83,o),
(516,-83,cs)
);
}
);
width = 1699;
}
);
unicode = 1536;
},
{
glyphname = ZeroArabic;
layers = (
{
background = {
shapes = (
{
closed = 1;
nodes = (
(218,176,l),
(300,232,o),
(333,275,o),
(333,306,cs),
(333,342,o),
(305,369,o),
(227,420,c),
(214,420,l),
(198,410,o),
(124,335,o),
(95,290,c),
(95,276,l),
(115,263,o),
(177,210,o),
(210,176,c)
);
}
);
};
layerId = "A6411EC5-7A77-465E-9F2B-2C7729D1C516";
shapes = (
{
closed = 1;
nodes = (
(218,176,l),
(300,232,o),
(333,275,o),
(333,306,cs),
(333,342,o),
(305,369,o),
(227,420,c),
(214,420,l),
(198,410,o),
(124,335,o),
(95,290,c),
(95,276,l),
(115,263,o),
(177,210,o),
(210,176,c)
);
}
);
width = 439;
}
);
unicode = 1632;
},
{
glyphname = OneArabic;
layers = (
{
background = {
shapes = (
{
closed = 1;
nodes = (
(286,-3,l),
(328,99,o),
(335,149,o),
(335,330,cs),
(335,438,o),
(313,650,o),
(300,683,c),
(278,684,l),
(247,616,ls),
(229,577,o),
(220,550,o),
(218,537,c),
(231,463,o),
(239,409,o),
(243,374,cs),
(247,342,o),
(251,309,o),
(255,277,cs),
(265,195,o),
(266,151,o),
(266,124,cs),
(266,65,o),
(264,26,o),
(260,2,c)
);
}
);
};
layerId = "A6411EC5-7A77-465E-9F2B-2C7729D1C516";
shapes = (
{
closed = 1;
nodes = (
(286,-3,l),
(328,99,o),
(335,149,o),
(335,330,cs),
(335,438,o),
(313,650,o),
(300,683,c),
(278,684,l),
(247,616,ls),
(229,577,o),
(220,550,o),
(218,537,c),
(231,463,o),
(239,409,o),
(243,374,cs),
(247,342,o),
(251,309,o),
(255,277,cs),
(265,195,o),
(266,151,o),
(266,124,cs),
(266,65,o),
(264,26,o),
(260,2,c)
);
}
);
width = 564;
}
);
unicode = 1633;
},
{
glyphname = TwoArabic;
layers = (
{
background = {
shapes = (
{
closed = 1;
nodes = (
(181,-3,l),
(219,84,o),
(229,149,o),
(229,316,cs),
(229,338,o),
(226,386,o),
(225,399,c),
(245,392,o),
(279,386,o),
(310,386,cs),
(446,386,o),
(513,487,o),
(538,679,c),
(506,685,l),
(480,609,o),
(410,583,o),
(340,583,cs),
(245,583,o),
(210,621,o),
(200,632,c),
(194,646,o),
(193,650,o),
(185,683,c),
(163,684,l),
(143,641,o),
(136,626,o),
(132,616,cs),
(108,556,o),
(106,552,o),
(106,547,cs),
(106,542,o),
(108,530,o),
(112,512,cs),
(138,394,o),
(161,207,o),
(161,124,cs),
(161,65,o),
(159,26,o),
(155,2,c)
);
}
);
};
layerId = "A6411EC5-7A77-465E-9F2B-2C7729D1C516";
shapes = (
{
closed = 1;
nodes = (
(181,-3,l),
(219,84,o),
(229,149,o),
(229,316,cs),
(229,338,o),
(226,386,o),
(225,399,c),
(245,392,o),
(279,386,o),
(310,386,cs),
(446,386,o),
(513,487,o),
(538,679,c),
(506,685,l),
(480,609,o),
(410,583,o),
(340,583,cs),
(245,583,o),
(210,621,o),
(200,632,c),
(194,646,o),
(193,650,o),
(185,683,c),
(163,684,l),
(143,641,o),
(136,626,o),
(132,616,cs),
(108,556,o),
(106,552,o),
(106,547,cs),
(106,542,o),
(108,530,o),
(112,512,cs),
(138,394,o),
(161,207,o),
(161,124,cs),
(161,65,o),
(159,26,o),
(155,2,c)
);
}
);
width = 601;
}
);
unicode = 1634;
},
{
glyphname = ThreeArabic;
layers = (
{
background = {
shapes = (
{
closed = 1;
nodes = (
(127,-3,l),
(167,95,o),
(175,161,o),
(175,310,cs),
(175,340,o),
(173,369,o),
(172,399,c),
(188,393,o),
(209,392,o),
(220,392,cs),
(258,392,o),
(286,402,o),
(305,422,c),
(323,407,o),
(356,397,o),
(389,397,cs),
(508,397,o),
(557,518,o),
(572,681,c),
(539,684,l),
(518,607,o),
(491,583,o),
(434,583,cs),
(408,583,o),
(377,594,o),
(367,612,c),
(371,633,o),
(373,645,o),
(376,680,c),
(344,683,l),
(324,602,o),
(285,583,o),
(229,583,cs),
(196,583,o),
(158,594,o),
(143,628,c),
(141,638,o),
(139,649,o),
(137,659,cs),
(135,668,o),
(133,676,o),
(130,683,c),
(109,684,l),
(79,616,ls),
(65,585,o),
(60,572,o),
(52,547,c),
(54,535,o),
(55,524,o),
(58,512,cs),
(80,407,o),
(107,233,o),
(107,124,cs),
(107,65,o),
(105,26,o),
(101,2,c)
);
}
);
};
layerId = "A6411EC5-7A77-465E-9F2B-2C7729D1C516";
shapes = (
{
closed = 1;
nodes = (
(127,-3,l),
(167,95,o),
(175,161,o),
(175,310,cs),
(175,340,o),
(173,369,o),
(172,399,c),
(188,393,o),
(209,392,o),
(220,392,cs),
(258,392,o),
(286,402,o),
(305,422,c),
(323,407,o),
(356,397,o),
(389,397,cs),
(508,397,o),
(557,518,o),
(572,681,c),
(539,684,l),
(518,607,o),
(491,583,o),
(434,583,cs),
(408,583,o),
(377,594,o),
(367,612,c),
(371,633,o),
(373,645,o),
(376,680,c),
(344,683,l),
(324,602,o),
(285,583,o),
(229,583,cs),
(196,583,o),
(158,594,o),
(143,628,c),
(141,638,o),
(139,649,o),
(137,659,cs),
(135,668,o),
(133,676,o),
(130,683,c),
(109,684,l),
(79,616,ls),
(65,585,o),
(60,572,o),
(52,547,c),
(54,535,o),
(55,524,o),
(58,512,c),
(80,407,o),
(107,233,o),
(107,124,cs),
(107,65,o),
(105,26,o),
(101,2,c)
);
}
);
width = 583;
}
);
unicode = 1635;
},
{
glyphname = FourArabic;
layers = (
{
background = {
shapes = (
{
closed = 1;
nodes = (
(350,0,o),
(443,52,o),
(539,152,c),
(535,164,l),
(476,164,o),
(416,169,o),
(355,178,cs),
(293,187,o),
(262,203,o),
(262,227,cs),
(262,245,o),
(284,271,o),
(328,305,cs),
(371,339,o),
(393,366,o),
(393,386,cs),
(393,400,o),
(383,416,o),
(351,427,cs),
(219,472,o),
(199,477,o),
(199,500,cs),
(199,521,o),
(243,541,o),
(345,578,c),
(378,615,o),
(426,684,o),
(433,703,c),
(420,707,l),
(327,678,o),
(247,633,o),
(182,572,cs),
(116,511,o),
(83,456,o),
(83,407,cs),
(83,336,o),
(134,306,o),
(221,276,c),
(127,196,o),
(104,148,o),
(104,104,cs),
(104,23,o),
(177,0,o),
(269,0,cs)
);
}
);
};
layerId = "A6411EC5-7A77-465E-9F2B-2C7729D1C516";
shapes = (
{
closed = 1;
nodes = (
(350,0,o),
(443,52,o),
(539,152,c),
(535,164,l),
(476,164,o),
(416,169,o),
(355,178,cs),
(293,187,o),
(262,203,o),
(262,227,cs),
(262,245,o),
(284,271,o),
(328,305,cs),
(371,339,o),
(393,366,o),
(393,386,cs),
(393,400,o),
(383,416,o),
(351,427,cs),
(219,472,o),
(199,477,o),
(199,500,cs),
(199,521,o),
(243,541,o),
(345,578,c),
(378,615,o),
(426,684,o),
(433,703,c),
(420,707,l),
(327,678,o),
(247,633,o),
(182,572,cs),
(116,511,o),
(83,456,o),
(83,407,cs),
(83,336,o),
(134,306,o),
(221,276,c),
(127,196,o),
(104,148,o),
(104,104,cs),
(104,23,o),
(177,0,o),
(269,0,cs)
);
}
);
width = 618;
}
);
unicode = 1636;
},
{
glyphname = FiveArabic;
layers = (
{
background = {
shapes = (
{
closed = 1;
nodes = (
(416,25,o),
(487,140,o),
(487,335,cs),
(487,474,o),
(403,616,o),
(304,616,cs),
(174,616,o),
(69,372,o),
(69,204,cs),
(69,80,o),
(137,25,o),
(240,25,cs)
);
},
{
closed = 1;
nodes = (
(199,223,o),
(142,240,o),
(142,296,cs),
(142,348,o),
(206,417,o),
(267,417,cs),
(330,417,o),
(429,361,o),
(429,294,cs),
(429,255,o),
(384,223,o),
(271,223,cs)
);
}
);
};
layerId = "A6411EC5-7A77-465E-9F2B-2C7729D1C516";
shapes = (
{
closed = 1;
nodes = (
(416,25,o),
(487,140,o),
(487,335,cs),
(487,474,o),
(403,616,o),
(304,616,cs),
(174,616,o),
(69,372,o),
(69,204,cs),
(69,80,o),
(137,25,o),
(240,25,cs)
);
},
{
closed = 1;
nodes = (
(199,223,o),
(142,240,o),
(142,296,cs),
(142,348,o),
(206,417,o),
(267,417,cs),
(330,417,o),
(429,361,o),
(429,294,cs),
(429,255,o),
(384,223,o),
(271,223,cs)
);
}
);
width = 558;
}
);
unicode = 1637;
},
{
glyphname = SixArabic;
layers = (
{
background = {
shapes = (
{
closed = 1;
nodes = (
(424,-1,l),
(445,46,o),
(458,77,o),
(476,132,c),
(447,339,o),
(443,372,o),
(443,549,cs),
(443,624,o),
(445,654,o),
(447,665,c),
(420,670,l),
(381,637,o),
(304,622,o),
(261,622,cs),
(173,622,o),
(118,638,o),
(80,676,c),
(59,674,l),
(42,616,o),
(36,574,o),
(36,526,cs),
(36,480,o),
(57,451,o),
(98,438,cs),
(139,425,o),
(181,419,o),
(222,419,cs),
(282,419,o),
(356,435,o),
(385,451,c),
(379,382,o),
(376,307,o),
(376,267,cs),
(376,184,o),
(387,56,o),
(408,0,c)
);
}
);
};
layerId = "A6411EC5-7A77-465E-9F2B-2C7729D1C516";
shapes = (
{
closed = 1;
nodes = (
(424,-1,l),
(445,46,o),
(458,77,o),
(476,132,c),
(447,339,o),
(443,372,o),
(443,549,cs),
(443,624,o),
(445,654,o),
(447,665,c),
(420,670,l),
(381,637,o),
(304,622,o),
(261,622,cs),
(173,622,o),
(118,638,o),
(80,676,c),
(59,674,l),
(42,616,o),
(36,574,o),
(36,526,cs),
(36,480,o),
(57,451,o),
(98,438,cs),
(139,425,o),
(181,419,o),
(222,419,cs),
(282,419,o),
(356,435,o),
(385,451,c),
(379,382,o),
(376,307,o),
(376,267,cs),
(376,184,o),
(387,56,o),
(408,0,c)
);
}
);
width = 588;
}
);
unicode = 1638;
},
{
glyphname = SevenArabic;
layers = (
{
background = {
shapes = (
{
closed = 1;
nodes = (
(279,0,l),
(282,5,o),
(287,12,o),
(292,21,cs),
(370,162,o),
(439,308,o),
(510,455,cs),
(529,494,o),
(545,525,o),
(557,550,c),
(557,554,o),
(556,560,o),
(541,614,cs),
(528,662,o),
(524,673,o),
(519,684,c),
(505,684,l),
(435,506,ls),
(407,434,o),
(352,282,o),
(338,247,c),
(334,247,l),
(282,396,o),
(194,588,o),
(147,684,c),
(133,684,l),
(117,673,o),
(89,624,o),
(69,585,cs),
(30,509,o),
(20,486,o),
(18,472,c),
(63,377,o),
(109,282,o),
(154,187,cs),
(221,47,o),
(236,15,o),
(249,0,c)
);
}
);
};
layerId = "A6411EC5-7A77-465E-9F2B-2C7729D1C516";
shapes = (
{
closed = 1;
nodes = (
(279,0,l),
(282,5,o),
(287,12,o),
(292,21,cs),
(370,162,o),
(439,308,o),
(510,455,cs),
(529,494,o),
(545,525,o),
(557,550,c),
(557,554,o),
(556,560,o),
(541,614,cs),
(528,662,o),
(524,673,o),
(519,684,c),
(505,684,l),
(435,506,ls),
(407,434,o),
(352,282,o),
(338,247,c),
(334,247,l),
(282,396,o),
(194,588,o),
(147,684,c),
(133,684,l),
(117,673,o),
(89,624,o),
(69,585,cs),
(30,509,o),
(20,486,o),
(18,472,c),
(63,377,o),
(109,282,o),
(154,187,cs),
(221,47,o),
(236,15,o),
(249,0,c)
);
}
);
width = 591;
}
);
unicode = 1639;
},
{
glyphname = EightArabic;
layers = (
{
background = {
shapes = (
{
closed = 1;
nodes = (
(72,0,l),
(103,85,o),
(136,169,o),
(166,254,cs),
(180,295,o),
(195,335,o),
(209,376,cs),
(215,394,o),
(223,415,o),
(232,438,c),
(236,438,l),
(251,397,o),
(296,285,o),
(330,211,cs),
(391,77,o),
(406,44,o),
(430,0,c),
(444,0,l),
(473,23,o),
(549,180,o),
(555,212,c),
(509,307,o),
(370,591,o),
(355,619,cs),
(338,651,o),
(328,669,o),
(317,684,c),
(287,684,l),
(274,662,o),
(217,548,o),
(195,503,cs),
(145,400,o),
(25,152,o),
(18,135,c),
(18,122,o),
(48,21,o),
(58,0,c)
);
}
);
};
layerId = "A6411EC5-7A77-465E-9F2B-2C7729D1C516";
shapes = (
{
closed = 1;
nodes = (
(72,0,l),
(103,85,o),
(136,169,o),
(166,254,cs),
(180,295,o),
(195,335,o),
(209,376,cs),
(215,394,o),
(223,415,o),
(232,438,c),
(236,438,l),
(251,397,o),
(296,285,o),
(330,211,cs),
(391,77,o),
(406,44,o),
(430,0,c),
(444,0,l),
(473,23,o),
(549,180,o),
(555,212,c),
(509,307,o),
(370,591,o),
(355,619,cs),
(338,651,o),
(328,669,o),
(317,684,c),
(287,684,l),
(274,662,o),
(217,548,o),
(195,503,cs),
(145,400,o),
(25,152,o),
(18,135,c),
(18,122,o),
(48,21,o),
(58,0,c)
);
}
);
width = 589;
}
);
unicode = 1640;
},
{
glyphname = NineArabic;
layers = (
{
background = {
shapes = (
{
closed = 1;
nodes = (
(406,-1,l),
(446,85,o),
(458,117,o),
(459,131,c),
(454,165,o),
(435,304,o),
(431,384,cs),
(425,500,o),
(406,595,o),
(383,631,cs),
(360,666,o),
(324,684,o),
(275,684,cs),
(220,684,o),
(175,649,o),
(140,580,cs),
(104,510,o),
(86,441,o),
(86,372,cs),
(86,286,o),
(122,204,o),
(238,204,cs),
(285,204,o),
(337,227,o),
(367,279,c),
(374,129,o),
(380,54,o),
(390,0,c)
);
},
{
closed = 1;
nodes = (
(215,384,o),
(152,401,o),
(152,440,cs),
(152,488,o),
(210,518,o),
(247,518,cs),
(319,518,o),
(363,474,o),
(363,409,c),
(345,391,o),
(299,384,o),
(269,384,cs)
);
}
);
};
layerId = "A6411EC5-7A77-465E-9F2B-2C7729D1C516";
shapes = (
{
closed = 1;
nodes = (
(406,-1,l),
(446,85,o),
(458,117,o),
(459,131,c),
(454,165,o),
(435,304,o),
(431,384,cs),
(425,500,o),
(406,595,o),
(383,631,cs),
(360,666,o),
(324,684,o),
(275,684,cs),
(220,684,o),
(175,649,o),
(140,580,cs),
(104,510,o),
(86,441,o),
(86,372,cs),
(86,286,o),
(122,204,o),
(238,204,cs),
(285,204,o),
(337,227,o),
(367,279,c),
(374,129,o),
(380,54,o),
(390,0,c)
);
},
{
closed = 1;
nodes = (
(215,384,o),
(152,401,o),
(152,440,cs),
(152,488,o),
(210,518,o),
(247,518,cs),
(319,518,o),
(363,474,o),
(363,409,c),
(345,391,o),
(299,384,o),
(269,384,cs)
);
}
);
width = 590;
}
);
unicode = 1641;
},
{
glyphname = FourFarsi;
layers = (
{
background = {
shapes = (
{
closed = 1;
nodes = (
(160,-3,l),
(198,87,o),
(211,169,o),
(211,279,cs),
(211,312,o),
(211,332,o),
(209,361,c),
(232,346,o),
(276,334,o),
(314,334,cs),
(446,334,o),
(528,423,o),
(562,605,c),
(529,609,l),
(502,546,o),
(457,515,o),
(389,515,cs),
(338,515,o),
(283,557,o),
(283,596,cs),
(283,624,o),
(320,656,o),
(378,656,cs),
(407,656,o),
(435,647,o),
(449,634,c),
(456,633,l),
(471,641,o),
(487,666,o),
(487,702,cs),
(487,744,o),
(450,763,o),
(409,763,cs),
(365,763,o),
(323,743,o),
(282,703,cs),
(241,663,o),
(217,614,o),
(210,556,c),
(204,555,l),
(190,569,o),
(182,588,o),
(179,613,cs),
(176,638,o),
(171,661,o),
(163,683,c),
(142,684,l),
(115,627,o),
(95,580,o),
(85,547,c),
(86,539,o),
(89,517,o),
(99,469,cs),
(121,368,o),
(139,232,o),
(139,124,cs),
(139,64,o),
(138,27,o),
(134,2,c)
);
}
);
};
layerId = "A6411EC5-7A77-465E-9F2B-2C7729D1C516";
shapes = (
{
closed = 1;
nodes = (
(160,-3,l),
(198,87,o),
(211,169,o),
(211,279,cs),
(211,312,o),
(211,332,o),
(209,361,c),
(232,346,o),
(276,334,o),
(314,334,cs),
(446,334,o),
(528,423,o),
(562,605,c),
(529,609,l),
(502,546,o),
(457,515,o),
(389,515,cs),
(338,515,o),
(283,557,o),
(283,596,cs),
(283,624,o),
(320,656,o),
(378,656,cs),
(407,656,o),
(435,647,o),
(449,634,c),
(456,633,l),
(471,641,o),
(487,666,o),
(487,702,cs),
(487,744,o),
(450,763,o),
(409,763,cs),
(365,763,o),
(323,743,o),
(282,703,cs),
(241,663,o),
(217,614,o),
(210,556,c),
(204,555,l),
(190,569,o),
(182,588,o),
(179,613,cs),
(176,638,o),
(171,661,o),
(163,683,c),
(142,684,l),
(115,627,o),
(95,580,o),
(85,547,c),
(86,539,o),
(89,517,o),
(99,469,cs),
(121,368,o),
(139,232,o),
(139,124,cs),
(139,64,o),
(138,27,o),
(134,2,c)
);
}
);
width = 598;
}
);
},
{
glyphname = FiveFarsi;
layers = (
{
background = {
shapes = (
{
closed = 1;
nodes = (
(231,17,o),
(262,42,o),
(278,65,c),
(295,41,o),
(321,33,o),
(363,33,cs),
(410,33,o),
(447,63,o),
(475,124,cs),
(503,185,o),
(516,247,o),
(516,312,cs),
(516,445,o),
(427,567,o),
(314,686,c),
(305,688,l),
(267,655,o),
(194,559,o),
(194,519,c),
(195,517,o),
(195,515,o),
(195,510,c),
(88,371,o),
(52,277,o),
(52,161,cs),
(52,80,o),
(98,17,o),
(178,17,cs)
);
},
{
closed = 1;
nodes = (
(158,209,o),
(128,224,o),
(128,266,cs),
(128,307,o),
(172,389,o),
(273,456,c),
(291,444,o),
(308,432,o),
(326,420,cs),
(397,372,o),
(452,310,o),
(452,270,cs),
(452,241,o),
(431,215,o),
(386,215,cs),
(355,215,o),
(330,226,o),
(312,249,c),
(292,250,l),
(267,225,o),
(240,209,o),
(199,209,cs)
);
}
);
};
layerId = "A6411EC5-7A77-465E-9F2B-2C7729D1C516";
shapes = (
{
closed = 1;
nodes = (
(231,17,o),
(262,42,o),
(278,65,c),
(295,41,o),
(321,33,o),
(363,33,cs),
(410,33,o),
(447,63,o),
(475,124,cs),
(503,185,o),
(516,247,o),
(516,312,cs),
(516,445,o),
(427,567,o),
(314,686,c),
(305,688,l),
(267,655,o),
(194,559,o),
(194,519,c),
(195,517,o),
(195,515,o),
(195,510,c),
(88,371,o),
(52,277,o),
(52,161,cs),
(52,80,o),
(98,17,o),
(178,17,cs)
);
},
{
closed = 1;
nodes = (
(158,209,o),
(128,224,o),
(128,266,cs),
(128,307,o),
(172,389,o),
(273,456,c),
(291,444,o),
(308,432,o),
(326,420,cs),
(397,372,o),
(452,310,o),
(452,270,cs),
(452,241,o),
(431,215,o),
(386,215,cs),
(355,215,o),
(330,226,o),
(312,249,c),
(292,250,l),
(267,225,o),
(240,209,o),
(199,209,cs)
);
}
);
width = 575;
}
);
unicode = 1781;
},
{
glyphname = SixFarsi;
layers = (
{
background = {
shapes = (
{
closed = 1;
nodes = (
(96,-1,l),
(160,124,o),
(246,183,o),
(407,300,cs),
(432,318,o),
(435,320,o),
(465,391,cs),
(482,432,o),
(496,470,o),
(505,504,c),
(484,510,l),
(435,470,o),
(375,441,o),
(330,441,cs),
(261,441,o),
(201,469,o),
(201,514,cs),
(201,550,o),
(252,578,o),
(317,578,cs),
(353,578,o),
(387,568,o),
(407,553,c),
(415,552,l),
(428,559,o),
(452,585,o),
(452,620,cs),
(452,665,o),
(411,691,o),
(355,691,cs),
(255,691,o),
(111,585,o),
(111,429,cs),
(111,370,o),
(142,312,o),
(213,290,c),
(137,214,o),
(92,119,o),
(69,4,c)
);
}
);
};
layerId = "A6411EC5-7A77-465E-9F2B-2C7729D1C516";
shapes = (
{
closed = 1;
nodes = (
(96,-1,l),
(160,124,o),
(246,183,o),
(407,300,cs),
(432,318,o),
(435,320,o),
(465,391,cs),
(482,432,o),
(496,470,o),
(505,504,c),
(484,510,l),
(435,470,o),
(375,441,o),
(330,441,cs),
(261,441,o),
(201,469,o),
(201,514,cs),
(201,550,o),
(252,578,o),
(317,578,cs),
(353,578,o),
(387,568,o),
(407,553,c),
(415,552,l),
(428,559,o),
(452,585,o),
(452,620,cs),
(452,665,o),
(411,691,o),
(355,691,cs),
(255,691,o),
(111,585,o),
(111,429,cs),
(111,370,o),
(142,312,o),
(213,290,c),
(137,214,o),
(92,119,o),
(69,4,c)
);
}
);
width = 590;
}
);
},
{
glyphname = FourUrdu;
layers = (
{
background = {
shapes = (
{
closed = 1;
nodes = (
(157,-5,l),
(179,43,o),
(189,112,o),
(189,174,cs),
(189,246,o),
(177,326,o),
(166,383,cs),
(159,424,o),
(153,454,o),
(153,462,cs),
(153,488,o),
(162,501,o),
(188,501,cs),
(253,501,o),
(321,361,o),
(340,285,c),
(365,285,l),
(400,362,o),
(472,451,o),
(498,475,c),
(505,478,o),
(547,635,o),
(560,706,c),
(541,711,l),
(502,672,o),
(466,621,o),
(417,525,c),
(411,525,l),
(373,655,o),
(305,686,o),
(240,686,cs),
(132,686,o),
(71,546,o),
(71,438,cs),
(71,408,o),
(79,370,o),
(104,247,cs),
(127,134,o),
(133,93,o),
(133,23,cs),
(133,10,o),
(133,4,o),
(131,-4,c)
);
}
);
};
layerId = "A6411EC5-7A77-465E-9F2B-2C7729D1C516";
shapes = (
{
closed = 1;
nodes = (
(157,-5,l),
(179,43,o),
(189,112,o),
(189,174,cs),
(189,246,o),
(177,326,o),
(166,383,cs),
(159,424,o),
(153,454,o),
(153,462,cs),
(153,488,o),
(162,501,o),
(188,501,cs),
(253,501,o),
(321,361,o),
(340,285,c),
(365,285,l),
(400,362,o),
(472,451,o),
(498,475,c),
(505,478,o),
(547,635,o),
(560,706,c),
(541,711,l),
(502,672,o),
(466,621,o),
(417,525,c),
(411,525,l),
(373,655,o),
(305,686,o),
(240,686,cs),
(132,686,o),
(71,546,o),
(71,438,cs),
(71,408,o),
(79,370,o),
(104,247,cs),
(127,134,o),
(133,93,o),
(133,23,cs),
(133,10,o),
(133,4,o),
(131,-4,c)
);
}
);
width = 594;
}
);
unicode = 1780;
},
{
glyphname = SixUrdu;
layers = (
{
background = {
shapes = (
{
closed = 1;
nodes = (
(424,-1,l),
(450,59,o),
(458,77,o),
(476,132,c),
(447,339,o),
(443,372,o),
(443,549,cs),
(443,624,o),
(445,654,o),
(447,665,c),
(420,670,l),
(381,637,o),
(304,622,o),
(261,622,cs),
(173,622,o),
(118,638,o),
(80,676,c),
(59,674,l),
(42,616,o),
(36,574,o),
(36,526,cs),
(36,480,o),
(57,451,o),
(98,438,cs),
(139,425,o),
(181,419,o),
(222,419,cs),
(282,419,o),
(356,435,o),
(385,451,c),
(379,382,o),
(376,307,o),
(376,267,cs),
(376,184,o),
(387,56,o),
(408,0,c)
);
}
);
};
layerId = "A6411EC5-7A77-465E-9F2B-2C7729D1C516";
shapes = (
{
closed = 1;
nodes = (
(424,-1,l),
(450,59,o),
(458,77,o),
(476,132,c),
(447,339,o),
(443,372,o),
(443,549,cs),
(443,624,o),
(445,654,o),
(447,665,c),
(420,670,l),
(381,637,o),
(304,622,o),
(261,622,cs),
(173,622,o),
(118,638,o),
(80,676,c),
(59,674,l),
(42,616,o),
(36,574,o),
(36,526,cs),
(36,480,o),
(57,451,o),
(98,438,cs),
(139,425,o),
(181,419,o),
(222,419,cs),
(282,419,o),
(356,435,o),
(385,451,c),
(379,382,o),
(376,307,o),
(376,267,cs),
(376,184,o),
(387,56,o),
(408,0,c)
);
}
);
width = 588;
}
);
unicode = 1782;
},
{
glyphname = SevenUrdu;
layers = (
{
background = {
shapes = (
{
closed = 1;
nodes = (
(473,29,o),
(516,130,o),
(525,166,c),
(524,180,l),
(520,180,o),
(396,196,o),
(358,202,cs),
(237,220,o),
(192,226,o),
(163,233,c),
(163,237,l),
(168,248,o),
(178,263,o),
(193,280,cs),
(220,311,o),
(261,353,o),
(310,400,cs),
(347,435,o),
(383,470,o),
(420,505,c),
(425,517,o),
(431,542,o),
(440,591,cs),
(454,671,l),
(434,675,l),
(395,630,o),
(324,544,o),
(252,447,cs),
(158,319,o),
(62,173,o),
(38,80,c),
(46,60,l),
(82,48,o),
(384,2,o),
(452,2,c)
);
}
);
};
layerId = "A6411EC5-7A77-465E-9F2B-2C7729D1C516";
shapes = (
{
closed = 1;
nodes = (
(473,29,o),
(516,130,o),
(525,166,c),
(524,180,l),
(520,180,o),
(396,196,o),
(358,202,cs),
(237,220,o),
(192,226,o),
(163,233,c),
(163,237,l),
(168,248,o),
(178,263,o),
(193,280,cs),
(220,311,o),
(261,353,o),
(310,400,cs),
(347,435,o),
(383,470,o),
(420,505,c),
(425,517,o),
(431,542,o),
(440,591,cs),
(454,671,l),
(434,675,l),
(395,630,o),
(324,544,o),
(252,447,cs),
(158,319,o),
(62,173,o),
(38,80,c),
(46,60,l),
(82,48,o),
(384,2,o),
(452,2,c)
);
}
);
width = 590;
}
);
unicode = 1783;
},
{
glyphname = PermilleArabic;
layers = (
{
background = {
shapes = (
{
closed = 1;
nodes = (
(482,-8,l),
(541,33,o),
(586,74,o),
(586,110,cs),
(586,137,o),
(569,161,o),
(489,213,c),
(477,213,l),
(462,200,o),
(419,160,o),
(369,94,c),
(369,83,l),
(408,55,o),
(419,44,o),
(473,-8,c)
);
},
{
closed = 1;
nodes = (
(189,444,l),
(253,485,o),
(293,530,o),
(293,562,cs),
(293,589,o),
(276,613,o),
(196,665,c),
(185,665,l),
(170,655,o),
(106,588,o),
(77,546,c),
(77,534,l),
(98,519,o),
(161,464,o),
(181,444,c)
);
},
{
closed = 1;
nodes = (
(753,-8,l),
(813,34,o),
(856,75,o),
(856,110,cs),
(856,145,o),
(825,170,o),
(760,213,c),
(749,213,l),
(734,203,o),
(670,136,o),
(641,94,c),
(641,83,l),
(667,64,o),
(720,17,o),
(745,-8,c)
);
},
{
alignment = -1;
ref = _percentslash;
}
);
};
layerId = "A6411EC5-7A77-465E-9F2B-2C7729D1C516";
shapes = (
{
closed = 1;
nodes = (
(482,-8,l),
(541,33,o),
(586,74,o),
(586,110,cs),
(586,137,o),
(569,161,o),
(489,213,c),
(477,213,l),
(462,200,o),
(419,160,o),
(369,94,c),
(369,83,l),
(408,55,o),
(419,44,o),
(473,-8,c)
);
},
{
closed = 1;
nodes = (
(189,444,l),
(253,485,o),
(293,530,o),
(293,562,cs),
(293,589,o),
(276,613,o),
(196,665,c),
(185,665,l),
(170,655,o),
(106,588,o),
(77,546,c),
(77,534,l),
(98,519,o),
(161,464,o),
(181,444,c)
);
},
{
closed = 1;
nodes = (
(753,-8,l),
(813,34,o),
(856,75,o),
(856,110,cs),
(856,145,o),
(825,170,o),
(760,213,c),
(749,213,l),
(734,203,o),
(670,136,o),
(641,94,c),
(641,83,l),
(667,64,o),
(720,17,o),
(745,-8,c)
);
},
{
alignment = -1;
ref = _percentslash;
}
);
width = 934;
}
);
unicode = 1545;
},
{
glyphname = Per10milleArabic;
layers = (
{
background = {
shapes = (
{
closed = 1;
nodes = (
(482,-8,l),
(541,33,o),
(586,74,o),
(586,110,cs),
(586,137,o),
(569,161,o),
(489,213,c),
(477,213,l),
(462,200,o),
(419,160,o),
(369,94,c),
(369,83,l),
(408,55,o),
(419,44,o),
(473,-8,c)
);
},
{
closed = 1;
nodes = (
(189,444,l),
(253,485,o),
(293,530,o),
(293,562,cs),
(293,589,o),
(276,613,o),
(196,665,c),
(185,665,l),
(170,655,o),
(106,588,o),
(77,546,c),
(77,534,l),
(98,519,o),
(161,464,o),
(181,444,c)
);
},
{
closed = 1;
nodes = (
(753,-8,l),
(813,34,o),
(856,75,o),
(856,110,cs),
(856,145,o),
(825,170,o),
(760,213,c),
(749,213,l),
(734,203,o),
(670,136,o),
(641,94,c),
(641,83,l),
(667,64,o),
(720,17,o),
(745,-8,c)
);
},
{
closed = 1;
nodes = (
(1025,-8,l),
(1084,33,o),
(1129,74,o),
(1129,110,cs),
(1129,137,o),
(1112,161,o),
(1032,213,c),
(1021,213,l),
(1006,200,o),
(963,160,o),
(913,94,c),
(913,83,l),
(952,55,o),
(963,44,o),
(1017,-8,c)
);
},
{
alignment = -1;
ref = _percentslash;
}
);
};
layerId = "A6411EC5-7A77-465E-9F2B-2C7729D1C516";
shapes = (
{
closed = 1;
nodes = (
(482,-8,l),
(541,33,o),
(586,74,o),
(586,110,cs),
(586,137,o),
(569,161,o),
(489,213,c),
(477,213,l),
(462,200,o),
(419,160,o),
(369,94,c),
(369,83,l),
(408,55,o),
(419,44,o),
(473,-8,c)
);
},
{
closed = 1;
nodes = (
(189,444,l),
(253,485,o),
(293,530,o),
(293,562,cs),
(293,589,o),
(276,613,o),
(196,665,c),
(185,665,l),
(170,655,o),
(106,588,o),
(77,546,c),
(77,534,l),
(98,519,o),
(161,464,o),
(181,444,c)
);
},
{
closed = 1;
nodes = (
(753,-8,l),
(813,34,o),
(856,75,o),
(856,110,cs),
(856,145,o),
(825,170,o),
(760,213,c),
(749,213,l),
(734,203,o),
(670,136,o),
(641,94,c),
(641,83,l),
(667,64,o),
(720,17,o),
(745,-8,c)
);
},
{
closed = 1;
nodes = (
(1025,-8,l),
(1084,33,o),
(1129,74,o),
(1129,110,cs),
(1129,137,o),
(1112,161,o),
(1032,213,c),
(1021,213,l),
(1006,200,o),
(963,160,o),
(913,94,c),
(913,83,l),
(952,55,o),
(963,44,o),
(1017,-8,c)
);
},
{
alignment = -1;
ref = _percentslash;
}
);
width = 1207;
}
);
unicode = 1546;
},
{
glyphname = plus;
layers = (
{
background = {
shapes = (
{
closed = 1;
nodes = (
(321,62,l),
(321,287,l),
(554,287,l),
(554,338,l),
(321,338,l),
(321,562,l),
(270,562,l),
(270,338,l),
(40,338,l),
(40,287,l),
(270,287,l),
(270,62,l)
);
}
);
};
layerId = "A6411EC5-7A77-465E-9F2B-2C7729D1C516";
shapes = (
{
closed = 1;
nodes = (
(321,62,l),
(321,287,l),
(554,287,l),
(554,338,l),
(321,338,l),
(321,562,l),
(270,562,l),
(270,338,l),
(40,338,l),
(40,287,l),
(270,287,l),
(270,62,l)
);
}
);
width = 593;
}
);
unicode = 43;
},
{
glyphname = hyphen;
layers = (
{
background = {
shapes = (
{
closed = 1;
nodes = (
(423,270,l),
(431,343,l),
(64,343,l),
(56,270,l)
);
}
);
};
layerId = "A6411EC5-7A77-465E-9F2B-2C7729D1C516";
shapes = (
{
closed = 1;
nodes = (
(423,270,l),
(431,343,l),
(64,343,l),
(56,270,l)
);
}
);
width = 487;
}
);
unicode = 45;
},
{
glyphname = slash;
layers = (
{
background = {
shapes = (
{
closed = 1;
nodes = (
(104,-113,l),
(155,1,o),
(220,140,o),
(286,279,cs),
(370,455,o),
(457,632,o),
(524,762,c),
(469,778,l),
(403,652,o),
(329,504,o),
(255,349,cs),
(211,256,o),
(95,1,o),
(52,-93,c)
);
}
);
};
layerId = "A6411EC5-7A77-465E-9F2B-2C7729D1C516";
shapes = (
{
closed = 1;
nodes = (
(104,-113,l),
(155,1,o),
(220,140,o),
(286,279,cs),
(370,455,o),
(457,632,o),
(524,762,c),
(469,778,l),
(403,652,o),
(329,504,o),
(255,349,cs),
(211,256,o),
(95,1,o),
(52,-93,c)
);
}
);
width = 554;
}
);
unicode = 47;
},
{
glyphname = bracketleft;
layers = (
{
background = {
shapes = (
{
closed = 1;
nodes = (
(377,-191,l),
(377,-149,l),
(235,-149,l),
(235,807,l),
(377,807,l),
(377,849,l),
(132,849,l),
(132,-191,l)
);
}
);
};
layerId = "A6411EC5-7A77-465E-9F2B-2C7729D1C516";
shapes = (
{
closed = 1;
nodes = (
(377,-191,l),
(377,-149,l),
(235,-149,l),
(235,807,l),
(377,807,l),
(377,849,l),
(132,849,l),
(132,-191,l)
);
}
);
width = 399;
}
);
unicode = 91;
},
{
glyphname = backslash;
layers = (
{
background = {
shapes = (
{
closed = 1;
nodes = (
(491,-105,l),
(435,15,o),
(360,183,o),
(287,352,cs),
(221,507,o),
(155,663,o),
(105,785,c),
(52,768,l),
(113,616,o),
(174,468,o),
(234,328,cs),
(303,168,o),
(371,18,o),
(436,-120,c)
);
}
);
};
layerId = "A6411EC5-7A77-465E-9F2B-2C7729D1C516";
shapes = (
{
closed = 1;
nodes = (
(491,-105,l),
(435,15,o),
(360,183,o),
(287,352,cs),
(221,507,o),
(155,663,o),
(105,785,c),
(52,768,l),
(113,616,o),
(174,468,o),
(234,328,cs),
(303,168,o),
(371,18,o),
(436,-120,c)
);
}
);
width = 533;
}
);
unicode = 92;
},
{
glyphname = bracketright;
layers = (
{
background = {
shapes = (
{
closed = 1;
nodes = (
(266,-191,l),
(266,849,l),
(21,849,l),
(21,807,l),
(162,807,l),
(162,-149,l),
(21,-149,l),
(21,-191,l)
);
}
);
};
layerId = "A6411EC5-7A77-465E-9F2B-2C7729D1C516";
shapes = (
{
closed = 1;
nodes = (
(266,-191,l),
(266,849,l),
(21,849,l),
(21,807,l),
(162,807,l),
(162,-149,l),
(21,-149,l),
(21,-191,l)
);
}
);
width = 399;
}
);
unicode = 93;
},
{
glyphname = braceleft;
layers = (
{
background = {
shapes = (
{
closed = 1;
nodes = (
(348,-210,o),
(359,-209,o),
(370,-207,c),
(363,-165,l),
(358,-167,o),
(347,-168,o),
(328,-168,cs),
(264,-168,o),
(239,-126,o),
(239,-31,cs),
(239,1,o),
(247,103,o),
(247,157,cs),
(247,253,o),
(197,304,o),
(97,320,c),
(97,324,l),
(197,338,o),
(247,389,o),
(247,487,cs),
(247,560,o),
(239,610,o),
(239,689,cs),
(239,767,o),
(254,825,o),
(328,825,cs),
(343,825,o),
(354,824,o),
(363,821,c),
(368,864,l),
(349,866,o),
(337,867,o),
(323,867,cs),
(210,867,o),
(92,794,o),
(92,641,cs),
(92,579,o),
(101,524,o),
(101,454,cs),
(101,368,o),
(80,345,o),
(37,342,cs),
(25,341,l),
(25,303,l),
(37,302,ls),
(87,299,o),
(101,269,o),
(101,193,cs),
(101,133,o),
(92,32,o),
(92,16,cs),
(92,-143,o),
(218,-209,o),
(323,-210,cs)
);
}
);
};
layerId = "A6411EC5-7A77-465E-9F2B-2C7729D1C516";
shapes = (
{
closed = 1;
nodes = (
(348,-210,o),
(359,-209,o),
(370,-207,c),
(363,-165,l),
(358,-167,o),
(347,-168,o),
(328,-168,cs),
(264,-168,o),
(239,-126,o),
(239,-31,cs),
(239,1,o),
(247,103,o),
(247,157,cs),
(247,253,o),
(197,304,o),
(97,320,c),
(97,324,l),
(197,338,o),
(247,389,o),
(247,487,cs),
(247,560,o),
(239,610,o),
(239,689,cs),
(239,767,o),
(254,825,o),
(328,825,cs),
(343,825,o),
(354,824,o),
(363,821,c),
(368,864,l),
(349,866,o),
(337,867,o),
(323,867,cs),
(210,867,o),
(92,794,o),
(92,641,cs),
(92,579,o),
(101,524,o),
(101,454,cs),
(101,368,o),
(80,345,o),
(37,342,cs),
(25,341,l),
(25,303,l),
(37,302,ls),
(87,299,o),
(101,269,o),
(101,193,cs),
(101,133,o),
(92,32,o),
(92,16,cs),
(92,-143,o),
(218,-209,o),
(323,-210,cs)
);
}
);
width = 392;
}
);
unicode = 123;
},
{
glyphname = braceright;
layers = (
{
background = {
shapes = (
{
closed = 1;
nodes = (
(179,-210,o),
(300,-139,o),
(300,16,cs),
(300,92,o),
(291,157,o),
(291,203,cs),
(291,291,o),
(313,312,o),
(355,315,cs),
(367,316,l),
(367,354,l),
(355,355,ls),
(294,360,o),
(291,408,o),
(291,464,cs),
(291,520,o),
(300,579,o),
(300,641,cs),
(300,808,o),
(166,867,o),
(69,867,cs),
(39,867,o),
(35,866,o),
(22,864,c),
(29,822,l),
(37,824,o),
(45,825,o),
(64,825,cs),
(137,825,o),
(153,769,o),
(153,688,cs),
(153,657,o),
(145,564,o),
(145,500,cs),
(145,410,o),
(189,354,o),
(295,337,c),
(295,333,l),
(192,319,o),
(145,264,o),
(145,170,cs),
(145,95,o),
(153,25,o),
(153,-32,cs),
(153,-132,o),
(123,-168,o),
(64,-168,cs),
(49,-168,o),
(38,-167,o),
(29,-164,c),
(24,-207,l),
(43,-209,o),
(55,-210,o),
(69,-210,cs)
);
}
);
};
layerId = "A6411EC5-7A77-465E-9F2B-2C7729D1C516";
shapes = (
{
closed = 1;
nodes = (
(179,-210,o),
(300,-139,o),
(300,16,cs),
(300,92,o),
(291,157,o),
(291,203,cs),
(291,291,o),
(313,312,o),
(355,315,cs),
(367,316,l),
(367,354,l),
(355,355,ls),
(294,360,o),
(291,408,o),
(291,464,cs),
(291,520,o),
(300,579,o),
(300,641,cs),
(300,808,o),
(166,867,o),
(69,867,cs),
(39,867,o),
(35,866,o),
(22,864,c),
(29,822,l),
(37,824,o),
(45,825,o),
(64,825,cs),
(137,825,o),
(153,769,o),
(153,688,cs),
(153,657,o),
(145,564,o),
(145,500,cs),
(145,410,o),
(189,354,o),
(295,337,c),
(295,333,l),
(192,319,o),
(145,264,o),
(145,170,cs),
(145,95,o),
(153,25,o),
(153,-32,cs),
(153,-132,o),
(123,-168,o),
(64,-168,cs),
(49,-168,o),
(38,-167,o),
(29,-164,c),
(24,-207,l),
(43,-209,o),
(55,-210,o),
(69,-210,cs)
);
}
);
width = 392;
}
);
unicode = 125;
},
{
glyphname = parenleft;
layers = (
{
background = {
shapes = (
{
closed = 1;
nodes = (
(395,-212,l),
(250,-108,o),
(188,97,o),
(188,340,cs),
(188,553,o),
(243,759,o),
(399,869,c),
(381,898,l),
(203,800,o),
(30,600,o),
(30,324,cs),
(30,58,o),
(147,-120,o),
(377,-240,c)
);
}
);
};
layerId = "A6411EC5-7A77-465E-9F2B-2C7729D1C516";
shapes = (
{
closed = 1;
nodes = (
(395,-212,l),
(250,-108,o),
(188,97,o),
(188,340,cs),
(188,553,o),
(243,759,o),
(399,869,c),
(381,898,l),
(203,800,o),
(30,600,o),
(30,324,cs),
(30,58,o),
(147,-120,o),
(377,-240,c)
);
}
);
width = 400;
}
);
unicode = 40;
},
{
glyphname = parenright;
layers = (
{
background = {
shapes = (
{
closed = 1;
nodes = (
(19,-240,l),
(199,-141,o),
(370,60,o),
(370,334,cs),
(370,605,o),
(248,781,o),
(23,898,c),
(5,870,l),
(140,774,o),
(212,581,o),
(212,318,cs),
(212,74,o),
(140,-115,o),
(1,-211,c)
);
}
);
};
layerId = "A6411EC5-7A77-465E-9F2B-2C7729D1C516";
shapes = (
{
closed = 1;
nodes = (
(19,-240,l),
(199,-141,o),
(370,60,o),
(370,334,cs),
(370,605,o),
(248,781,o),
(23,898,c),
(5,870,l),
(140,774,o),
(212,581,o),
(212,318,cs),
(212,74,o),
(140,-115,o),
(1,-211,c)
);
}
);
width = 400;
}
);
unicode = 41;
},
{
glyphname = uni2010;
layers = (
{
background = {
shapes = (
{
closed = 1;
nodes = (
(423,6,l),
(431,79,l),
(64,79,l),
(56,6,l)
);
}
);
};
layerId = "A6411EC5-7A77-465E-9F2B-2C7729D1C516";
shapes = (
{
closed = 1;
nodes = (
(423,6,l),
(431,79,l),
(64,79,l),
(56,6,l)
);
}
);
width = 487;
}
);
unicode = 8208;
},
{
glyphname = uni2011;
layers = (
{
background = {
shapes = (
{
closed = 1;
nodes = (
(423,6,l),
(431,79,l),
(64,79,l),
(56,6,l)
);
}
);
};
layerId = "A6411EC5-7A77-465E-9F2B-2C7729D1C516";
shapes = (
{
closed = 1;
nodes = (
(423,6,l),
(431,79,l),
(64,79,l),
(56,6,l)
);
}
);
width = 487;
}
);
unicode = 8209;
},
{
glyphname = endash;
layers = (
{
background = {
shapes = (
{
closed = 1;
nodes = (
(559,261,l),
(559,313,l),
(-14,313,l),
(-14,261,l)
);
}
);
};
layerId = "A6411EC5-7A77-465E-9F2B-2C7729D1C516";
shapes = (
{
closed = 1;
nodes = (
(559,261,l),
(559,313,l),
(-14,313,l),
(-14,261,l)
);
}
);
width = 545;
}
);
unicode = 8211;
},
{
glyphname = emdash;
layers = (
{
background = {
shapes = (
{
closed = 1;
nodes = (
(760,261,l),
(760,313,l),
(-14,313,l),
(-14,261,l)
);
}
);
};
layerId = "A6411EC5-7A77-465E-9F2B-2C7729D1C516";
shapes = (
{
closed = 1;
nodes = (
(760,261,l),
(760,313,l),
(-14,313,l),
(-14,261,l)
);
}
);
width = 746;
}
);
unicode = 8212;
},
{
glyphname = MinusArabic;
layers = (
{
background = {
shapes = (
{
closed = 1;
nodes = (
(554,286,l),
(554,338,l),
(40,338,l),
(40,286,l)
);
}
);
};
layerId = "A6411EC5-7A77-465E-9F2B-2C7729D1C516";
shapes = (
{
closed = 1;
nodes = (
(554,286,l),
(554,338,l),
(40,338,l),
(40,286,l)
);
}
);
width = 593;
}
);
unicode = 8722;
},
{
glyphname = MultiplyArabic;
layers = (
{
background = {
shapes = (
{
closed = 1;
nodes = (
(517,123,l),
(327,312,l),
(518,503,l),
(485,534,l),
(296,345,l),
(106,534,l),
(71,502,l),
(261,312,l),
(71,121,l),
(103,90,l),
(292,279,l),
(482,89,l)
);
}
);
};
layerId = "A6411EC5-7A77-465E-9F2B-2C7729D1C516";
shapes = (
{
closed = 1;
nodes = (
(517,123,l),
(327,312,l),
(518,503,l),
(485,534,l),
(296,345,l),
(106,534,l),
(71,502,l),
(261,312,l),
(71,121,l),
(103,90,l),
(292,279,l),
(482,89,l)
);
}
);
width = 589;
}
);
unicode = 215;
},
{
glyphname = DivideArabic;
layers = (
{
background = {
shapes = (
{
closed = 1;
nodes = (
(296,414,l),
(344,448,o),
(374,479,o),
(374,504,cs),
(374,532,o),
(346,555,o),
(300,583,c),
(292,583,l),
(281,575,o),
(227,518,o),
(210,492,c),
(210,484,l),
(236,463,o),
(262,443,o),
(288,414,c)
);
}
);
};
layerId = "A6411EC5-7A77-465E-9F2B-2C7729D1C516";
shapes = (
{
closed = 1;
nodes = (
(554,286,l),
(554,338,l),
(40,338,l),
(40,286,l)
);
},
{
alignment = -1;
ref = _smallmathnukta;
},
{
alignment = -1;
pos = (0,372);
ref = _smallmathnukta;
}
);
width = 593;
}
);
unicode = 247;
},
{
glyphname = equal;
layers = (
{
background = {
shapes = (
{
closed = 1;
nodes = (
(554,377,l),
(554,429,l),
(40,429,l),
(40,377,l)
);
},
{
closed = 1;
nodes = (
(554,190,l),
(554,242,l),
(40,242,l),
(40,190,l)
);
}
);
};
layerId = "A6411EC5-7A77-465E-9F2B-2C7729D1C516";
shapes = (
{
closed = 1;
nodes = (
(554,377,l),
(554,429,l),
(40,429,l),
(40,377,l)
);
},
{
closed = 1;
nodes = (
(554,190,l),
(554,242,l),
(40,242,l),
(40,190,l)
);
}
);
width = 593;
}
);
unicode = 61;
},
{
glyphname = DecimalPointArabic;
layers = (
{
background = {
shapes = (
{
closed = 1;
nodes = (
(115,-175,l),
(190,-94,o),
(246,5,o),
(246,75,cs),
(246,129,o),
(217,170,o),
(159,207,c),
(149,207,l),
(137,200,o),
(72,134,o),
(44,96,c),
(44,86,l),
(121,27,o),
(147,7,o),
(147,-33,cs),
(147,-68,o),
(129,-98,o),
(89,-158,c)
);
}
);
};
layerId = "A6411EC5-7A77-465E-9F2B-2C7729D1C516";
shapes = (
{
closed = 1;
nodes = (
(115,-175,l),
(190,-94,o),
(246,5,o),
(246,75,cs),
(246,129,o),
(217,170,o),
(159,207,c),
(149,207,l),
(137,200,o),
(72,134,o),
(44,96,c),
(44,86,l),
(121,27,o),
(147,7,o),
(147,-33,cs),
(147,-68,o),
(129,-98,o),
(89,-158,c)
);
}
);
width = 289;
}
);
unicode = 1643;
},
{
glyphname = DecimalPointFarsi;
layers = (
{
background = {
shapes = (
{
closed = 1;
nodes = (
(83,-175,l),
(132,-85,o),
(182,-25,o),
(258,20,cs),
(292,40,o),
(312,52,o),
(319,57,cs),
(327,62,o),
(344,111,o),
(357,159,cs),
(366,190,o),
(373,221,o),
(375,239,c),
(358,248,l),
(258,197,o),
(126,73,o),
(55,-164,c)
);
}
);
};
layerId = "A6411EC5-7A77-465E-9F2B-2C7729D1C516";
shapes = (
{
closed = 1;
nodes = (
(83,-175,l),
(132,-85,o),
(182,-25,o),
(258,20,cs),
(292,40,o),
(312,52,o),
(319,57,c),
(327,62,o),
(344,111,o),
(357,159,cs),
(366,190,o),
(373,221,o),
(375,239,c),
(358,248,l),
(258,197,o),
(126,73,o),
(55,-164,c)
);
}
);
width = 414;
}
);
},
{
glyphname = ThousandMarkerArabic;
layers = (
{
background = {
shapes = (
{
closed = 1;
nodes = (
(107,410,l),
(166,473,o),
(227,573,o),
(227,646,cs),
(227,698,o),
(198,735,o),
(148,767,c),
(138,767,l),
(126,760,o),
(74,707,o),
(41,665,c),
(41,656,l),
(100,611,o),
(135,585,o),
(135,547,cs),
(135,512,o),
(112,473,o),
(81,428,c)
);
}
);
};
layerId = "A6411EC5-7A77-465E-9F2B-2C7729D1C516";
shapes = (
{
closed = 1;
nodes = (
(107,410,l),
(166,473,o),
(227,573,o),
(227,646,cs),
(227,698,o),
(198,735,o),
(148,767,c),
(138,767,l),
(126,760,o),
(74,707,o),
(41,665,c),
(41,656,l),
(100,611,o),
(135,585,o),
(135,547,cs),
(135,512,o),
(112,473,o),
(81,428,c)
);
}
);
width = 290;
}
);
unicode = 1644;
},
{
glyphname = comma;
layers = (
{
background = {
shapes = (
{
closed = 1;
nodes = (
(156,-178,l),
(233,-95,o),
(286,8,o),
(286,77,cs),
(286,114,o),
(275,143,o),
(253,167,cs),
(240,182,o),
(222,196,o),
(200,208,c),
(189,208,l),
(162,189,o),
(140,169,o),
(121,147,cs),
(102,125,o),
(93,108,o),
(93,95,cs),
(93,80,o),
(99,69,o),
(108,59,cs),
(116,50,o),
(126,42,o),
(159,13,cs),
(169,5,o),
(175,-2,o),
(180,-9,cs),
(186,-19,o),
(188,-28,o),
(188,-39,cs),
(188,-70,o),
(170,-101,o),
(130,-161,c)
);
}
);
};
layerId = "A6411EC5-7A77-465E-9F2B-2C7729D1C516";
shapes = (
{
closed = 1;
nodes = (
(156,-178,l),
(233,-95,o),
(286,8,o),
(286,77,cs),
(286,114,o),
(275,143,o),
(253,167,cs),
(240,182,o),
(222,196,o),
(200,208,c),
(189,208,l),
(162,189,o),
(140,169,o),
(121,147,cs),
(102,125,o),
(93,108,o),
(93,95,cs),
(93,80,o),
(99,69,o),
(108,59,cs),
(116,50,o),
(126,42,o),
(159,13,cs),
(169,5,o),
(175,-2,o),
(180,-9,cs),
(186,-19,o),
(188,-28,o),
(188,-39,cs),
(188,-70,o),
(170,-101,o),
(130,-161,c)
);
}
);
width = 366;
}
);
unicode = 44;
},
{
glyphname = period;
layers = (
{
background = {
shapes = (
{
closed = 1;
nodes = (
(147,1,l),
(214,45,o),
(254,90,o),
(254,122,cs),
(254,157,o),
(220,185,o),
(155,228,c),
(143,228,l),
(124,216,o),
(63,150,o),
(32,107,c),
(32,95,l),
(67,70,o),
(100,39,o),
(139,1,c)
);
}
);
};
layerId = "A6411EC5-7A77-465E-9F2B-2C7729D1C516";
shapes = (
{
closed = 1;
nodes = (
(147,1,l),
(214,45,o),
(254,90,o),
(254,122,cs),
(254,157,o),
(220,185,o),
(155,228,c),
(143,228,l),
(124,216,o),
(63,150,o),
(32,107,c),
(32,95,l),
(67,70,o),
(100,39,o),
(139,1,c)
);
}
);
width = 286;
}
);
unicode = 46;
},
{
glyphname = PeriodUrdu;
layers = (
{
background = {
shapes = (
{
closed = 1;
nodes = (
(58,59,l),
(79,65,o),
(74,63,o),
(447,98,cs),
(504,103,o),
(549,110,o),
(584,119,cs),
(662,138,o),
(707,228,o),
(733,298,c),
(725,319,l),
(709,315,o),
(677,309,o),
(623,304,cs),
(383,280,o),
(299,275,o),
(241,258,cs),
(152,232,o),
(101,178,o),
(48,77,c)
);
}
);
};
layerId = "A6411EC5-7A77-465E-9F2B-2C7729D1C516";
shapes = (
{
closed = 1;
nodes = (
(58,59,l),
(79,65,o),
(74,63,o),
(447,98,cs),
(504,103,o),
(549,110,o),
(584,119,cs),
(662,138,o),
(707,228,o),
(733,298,c),
(725,319,l),
(709,315,o),
(677,309,o),
(623,304,cs),
(383,280,o),
(299,275,o),
(241,258,cs),
(152,232,o),
(101,178,o),
(48,77,c)
);
}
);
width = 781;
}
);
unicode = 1748;
},
{
glyphname = Afghani;
layers = (
{
background = {
shapes = (
{
closed = 1;
nodes = (
(265,0,o),
(359,217,o),
(359,435,cs),
(359,540,o),
(319,660,o),
(217,660,cs),
(184,660,o),
(154,642,o),
(132,599,cs),
(121,577,o),
(109,556,o),
(98,534,cs),
(82,503,o),
(70,471,o),
(70,441,cs),
(70,382,o),
(126,345,o),
(180,345,cs),
(216,345,o),
(270,360,o),
(285,370,c),
(292,361,o),
(298,344,o),
(298,326,cs),
(298,266,o),
(251,190,o),
(86,190,cs),
(39,190,o),
(13,142,o),
(13,80,cs),
(13,27,o),
(26,0,o),
(53,0,cs)
);
},
{
closed = 1;
nodes = (
(153,-405,l),
(175,-355,o),
(188,-301,o),
(191,-254,cs),
(194,-202,o),
(195,-182,o),
(197,-160,cs),
(203,-89,o),
(206,-66,o),
(211,-50,c),
(194,-46,l),
(169,-95,o),
(150,-144,o),
(148,-226,cs),
(146,-299,ls),
(145,-336,o),
(142,-371,o),
(136,-403,c)
);
},
{
closed = 1;
nodes = (
(188,787,l),
(234,819,o),
(280,859,o),
(280,892,cs),
(280,924,o),
(249,949,o),
(194,984,c),
(184,984,l),
(167,973,o),
(106,906,o),
(88,878,c),
(88,868,l),
(117,847,o),
(129,835,o),
(180,787,c)
);
}
);
};
layerId = "A6411EC5-7A77-465E-9F2B-2C7729D1C516";
shapes = (
{
closed = 1;
nodes = (
(265,0,o),
(359,217,o),
(359,435,cs),
(359,540,o),
(319,660,o),
(217,660,cs),
(184,660,o),
(154,642,o),
(132,599,cs),
(121,577,o),
(109,556,o),
(98,534,cs),
(82,503,o),
(70,471,o),
(70,441,cs),
(70,382,o),
(126,345,o),
(180,345,cs),
(216,345,o),
(270,360,o),
(285,370,c),
(292,361,o),
(298,344,o),
(298,326,cs),
(298,266,o),
(251,190,o),
(86,190,cs),
(39,190,o),
(13,142,o),
(13,80,cs),
(13,27,o),
(26,0,o),
(53,0,cs)
);
},
{
closed = 1;
nodes = (
(153,-405,l),
(175,-355,o),
(188,-301,o),
(191,-254,cs),
(194,-202,o),
(195,-182,o),
(197,-160,cs),
(203,-89,o),
(206,-66,o),
(211,-50,c),
(194,-46,l),
(169,-95,o),
(150,-144,o),
(148,-226,cs),
(146,-299,ls),
(145,-336,o),
(142,-371,o),
(136,-403,c)
);
},
{
closed = 1;
nodes = (
(188,787,l),
(234,819,o),
(280,859,o),
(280,892,cs),
(280,924,o),
(249,949,o),
(194,984,c),
(184,984,l),
(167,973,o),
(106,906,o),
(88,878,c),
(88,868,l),
(117,847,o),
(129,835,o),
(180,787,c)
);
}
);
width = 331;
}
);
unicode = 1547;
},
{
glyphname = FehxIni.outT2N;
layers = (
{
anchors = (
{
name = Anchor5;
position = "{154, 869}";
},
{
name = Anchor9;
position = "{106, -462}";
},
{
name = exit;
position = "{0, 0}";
}
);
background = {
shapes = (
{
closed = 1;
nodes = (
(212,0,o),
(306,217,o),
(306,435,cs),
(306,540,o),
(266,660,o),
(164,660,cs),
(131,660,o),
(101,642,o),
(79,599,cs),
(45,534,ls),
(29,503,o),
(17,471,o),
(17,441,cs),
(17,382,o),
(73,345,o),
(127,345,cs),
(163,345,o),
(217,360,o),
(232,370,c),
(239,361,o),
(245,344,o),
(245,326,cs),
(245,266,o),
(201,190,o),
(33,190,cs),
(-14,190,o),
(-40,142,o),
(-40,80,cs),
(-40,27,o),
(-27,0,o),
(0,0,cs)
);
}
);
};
layerId = "A6411EC5-7A77-465E-9F2B-2C7729D1C516";
shapes = (
{
closed = 1;
nodes = (
(212,0,o),
(306,217,o),
(306,435,cs),
(306,540,o),
(266,660,o),
(164,660,cs),
(131,660,o),
(101,642,o),
(79,599,cs),
(45,534,ls),
(29,503,o),
(17,471,o),
(17,441,cs),
(17,382,o),
(73,345,o),
(127,345,cs),
(163,345,o),
(217,360,o),
(232,370,c),
(239,361,o),
(245,344,o),
(245,326,cs),
(245,266,o),
(201,190,o),
(33,190,cs),
(-14,190,o),
(-40,142,o),
(-40,80,cs),
(-40,27,o),
(-27,0,o),
(0,0,cs)
);
}
);
width = 353;
}
);
},
{
glyphname = CommaArabic;
layers = (
{
background = {
shapes = (
{
closed = 1;
nodes = (
(190,2,l),
(217,21,o),
(239,41,o),
(258,63,cs),
(277,85,o),
(286,102,o),
(286,115,cs),
(286,137,o),
(277,147,o),
(242,178,cs),
(235,184,o),
(227,191,o),
(220,197,cs),
(196,218,o),
(191,232,o),
(191,249,cs),
(191,276,o),
(203,302,o),
(249,371,c),
(223,388,l),
(144,304,o),
(93,201,o),
(93,133,cs),
(93,76,o),
(120,36,o),
(179,2,c)
);
}
);
};
layerId = "A6411EC5-7A77-465E-9F2B-2C7729D1C516";
shapes = (
{
closed = 1;
nodes = (
(190,2,l),
(217,21,o),
(239,41,o),
(258,63,cs),
(277,85,o),
(286,102,o),
(286,115,cs),
(286,137,o),
(277,147,o),
(242,178,cs),
(235,184,o),
(227,191,o),
(220,197,cs),
(196,218,o),
(191,232,o),
(191,249,cs),
(191,276,o),
(203,302,o),
(249,371,c),
(223,388,l),
(144,304,o),
(93,201,o),
(93,133,cs),
(93,76,o),
(120,36,o),
(179,2,c)
);
}
);
width = 366;
}
);
unicode = 1548;
},
{
glyphname = SemicolonArabic;
layers = (
{
background = {
shapes = (
{
closed = 1;
nodes = (
(174,354,l),
(201,373,o),
(223,393,o),
(242,415,cs),
(261,437,o),
(270,454,o),
(270,467,cs),
(270,490,o),
(260,500,o),
(226,530,cs),
(211,543,o),
(200,552,o),
(192,561,cs),
(180,574,o),
(175,584,o),
(175,601,cs),
(175,628,o),
(187,654,o),
(233,723,c),
(207,740,l),
(128,656,o),
(77,553,o),
(77,485,cs),
(77,428,o),
(104,388,o),
(163,354,c)
);
},
{
closed = 1;
nodes = (
(175,1,l),
(234,40,o),
(278,86,o),
(278,122,cs),
(278,155,o),
(253,183,o),
(183,228,c),
(171,228,l),
(150,213,o),
(86,139,o),
(63,106,c),
(63,94,l),
(103,64,o),
(132,35,o),
(167,1,c)
);
}
);
};
layerId = "A6411EC5-7A77-465E-9F2B-2C7729D1C516";
shapes = (
{
closed = 1;
nodes = (
(175,1,l),
(234,40,o),
(278,86,o),
(278,122,cs),
(278,155,o),
(253,183,o),
(183,228,c),
(171,228,l),
(150,213,o),
(86,139,o),
(63,106,c),
(63,94,l),
(103,64,o),
(132,35,o),
(167,1,c)
);
},
{
alignment = -1;
pos = (-16,352);
ref = CommaArabic;
}
);
width = 338;
}
);
unicode = 1563;
},
{
glyphname = colon;
layers = (
{
background = {
shapes = (
{
closed = 1;
nodes = (
(161,346,l),
(207,378,o),
(253,418,o),
(253,451,cs),
(253,483,o),
(222,508,o),
(167,543,c),
(157,543,l),
(140,532,o),
(79,465,o),
(61,437,c),
(61,427,l),
(90,406,o),
(100,398,o),
(153,346,c)
);
},
{
closed = 1;
nodes = (
(163,11,l),
(209,43,o),
(255,83,o),
(255,116,cs),
(255,148,o),
(224,173,o),
(169,208,c),
(159,208,l),
(142,197,o),
(81,130,o),
(63,102,c),
(63,92,l),
(92,71,o),
(103,61,o),
(155,11,c)
);
}
);
};
layerId = "A6411EC5-7A77-465E-9F2B-2C7729D1C516";
shapes = (
{
closed = 1;
nodes = (
(161,346,l),
(207,378,o),
(253,418,o),
(253,451,cs),
(253,483,o),
(222,508,o),
(167,543,c),
(157,543,l),
(140,532,o),
(79,465,o),
(61,437,c),
(61,427,l),
(90,406,o),
(100,398,o),
(153,346,c)
);
},
{
closed = 1;
nodes = (
(163,11,l),
(209,43,o),
(255,83,o),
(255,116,cs),
(255,148,o),
(224,173,o),
(169,208,c),
(159,208,l),
(142,197,o),
(81,130,o),
(63,102,c),
(63,92,l),
(92,71,o),
(103,61,o),
(155,11,c)
);
}
);
width = 315;
}
);
unicode = 58;
},
{
glyphname = periodcentered;
layers = (
{
background = {
shapes = (
{
closed = 1;
nodes = (
(132,257,l),
(178,289,o),
(224,329,o),
(224,362,cs),
(224,394,o),
(193,419,o),
(138,454,c),
(128,454,l),
(111,443,o),
(50,376,o),
(32,348,c),
(32,338,l),
(61,317,o),
(70,309,o),
(124,257,c)
);
}
);
};
layerId = "A6411EC5-7A77-465E-9F2B-2C7729D1C516";
shapes = (
{
closed = 1;
nodes = (
(132,257,l),
(178,289,o),
(224,329,o),
(224,362,cs),
(224,394,o),
(193,419,o),
(138,454,c),
(128,454,l),
(111,443,o),
(50,376,o),
(32,348,c),
(32,338,l),
(61,317,o),
(70,309,o),
(124,257,c)
);
}
);
width = 256;
}
);
unicode = 183;
},
{
glyphname = QuoteSingleLeftArabic;
layers = (
{
background = {
shapes = (
{
closed = 1;
nodes = (
(155,688,l),
(192,713,o),
(240,761,o),
(240,788,cs),
(240,800,o),
(236,812,o),
(222,824,cs),
(208,836,o),
(195,848,o),
(181,860,cs),
(160,879,o),
(156,889,o),
(156,906,cs),
(156,933,o),
(161,938,o),
(207,1014,c),
(184,1028,l),
(116,957,o),
(69,864,o),
(69,803,cs),
(69,751,o),
(94,717,o),
(145,688,c)
);
}
);
};
layerId = "A6411EC5-7A77-465E-9F2B-2C7729D1C516";
shapes = (
{
closed = 1;
nodes = (
(155,688,l),
(192,713,o),
(240,761,o),
(240,788,cs),
(240,800,o),
(236,812,o),
(222,824,cs),
(208,836,o),
(195,848,o),
(181,860,cs),
(160,879,o),
(156,889,o),
(156,906,cs),
(156,933,o),
(161,938,o),
(207,1014,c),
(184,1028,l),
(116,957,o),
(69,864,o),
(69,803,cs),
(69,751,o),
(94,717,o),
(145,688,c)
);
}
);
width = 306;
}
);
unicode = 8216;
},
{
glyphname = QuoteSingleRightArabic;
layers = (
{
background = {
shapes = (
{
closed = 1;
nodes = (
(120,664,l),
(191,742,o),
(237,824,o),
(237,887,cs),
(237,930,o),
(216,968,o),
(159,1004,c),
(150,1004,l),
(135,995,o),
(77,936,o),
(59,904,c),
(59,895,l),
(70,887,o),
(82,878,o),
(93,870,cs),
(117,853,o),
(149,822,o),
(149,790,cs),
(149,761,o),
(135,737,o),
(97,679,c)
);
}
);
};
layerId = "A6411EC5-7A77-465E-9F2B-2C7729D1C516";
shapes = (
{
closed = 1;
nodes = (
(120,664,l),
(191,742,o),
(237,824,o),
(237,887,cs),
(237,930,o),
(216,968,o),
(159,1004,c),
(150,1004,l),
(135,995,o),
(77,936,o),
(59,904,c),
(59,895,l),
(70,887,o),
(82,878,o),
(93,870,cs),
(117,853,o),
(149,822,o),
(149,790,cs),
(149,761,o),
(135,737,o),
(97,679,c)
);
}
);
width = 306;
}
);
unicode = 8217;
},
{
glyphname = quotedblright;
layers = (
{
background = {
shapes = (
{
closed = 1;
nodes = (
(340,664,l),
(411,742,o),
(457,824,o),
(457,887,cs),
(457,930,o),
(436,968,o),
(379,1004,c),
(370,1004,l),
(355,995,o),
(297,936,o),
(279,904,c),
(279,895,l),
(315,868,ls),
(342,848,o),
(369,822,o),
(369,790,cs),
(369,761,o),
(355,737,o),
(317,679,c)
);
},
{
closed = 1;
nodes = (
(120,664,l),
(191,742,o),
(237,824,o),
(237,887,cs),
(237,930,o),
(216,968,o),
(159,1004,c),
(150,1004,l),
(135,995,o),
(77,936,o),
(59,904,c),
(59,895,l),
(95,868,ls),
(122,848,o),
(149,822,o),
(149,790,cs),
(149,761,o),
(135,737,o),
(97,679,c)
);
}
);
};
layerId = "A6411EC5-7A77-465E-9F2B-2C7729D1C516";
shapes = (
{
alignment = -1;
pos = (220,0);
ref = QuoteSingleRightArabic;
},
{
alignment = -1;
ref = QuoteSingleRightArabic;
}
);
width = 526;
}
);
unicode = 8221;
},
{
glyphname = guilsinglleft;
layers = (
{
background = {
shapes = (
{
closed = 1;
nodes = (
(197,19,l),
(201,23,o),
(242,120,o),
(245,140,c),
(184,199,o),
(158,256,o),
(158,347,cs),
(158,417,o),
(188,506,o),
(232,567,c),
(208,585,l),
(139,510,o),
(74,398,o),
(74,255,cs),
(74,168,o),
(99,71,o),
(182,17,c)
);
}
);
};
layerId = "A6411EC5-7A77-465E-9F2B-2C7729D1C516";
shapes = (
{
closed = 1;
nodes = (
(197,19,l),
(201,23,o),
(242,120,o),
(245,140,c),
(184,199,o),
(158,256,o),
(158,347,cs),
(158,417,o),
(188,506,o),
(232,567,c),
(208,585,l),
(139,510,o),
(74,398,o),
(74,255,cs),
(74,168,o),
(99,71,o),
(182,17,c)
);
}
);
width = 319;
}
);
unicode = 8249;
},
{
glyphname = guilsinglright;
layers = (
{
background = {
shapes = (
{
closed = 1;
nodes = (
(111,25,l),
(181,101,o),
(245,213,o),
(245,355,cs),
(245,443,o),
(219,540,o),
(137,593,c),
(122,591,l),
(115,583,o),
(74,481,o),
(74,470,c),
(125,421,o),
(161,364,o),
(161,263,cs),
(161,193,o),
(133,106,o),
(87,43,c)
);
}
);
};
layerId = "A6411EC5-7A77-465E-9F2B-2C7729D1C516";
shapes = (
{
closed = 1;
nodes = (
(111,25,l),
(181,101,o),
(245,213,o),
(245,355,cs),
(245,443,o),
(219,540,o),
(137,593,c),
(122,591,l),
(115,583,o),
(74,481,o),
(74,470,c),
(125,421,o),
(161,364,o),
(161,263,cs),
(161,193,o),
(133,106,o),
(87,43,c)
);
}
);
width = 319;
}
);
unicode = 8250;
},
{
glyphname = guillemotleft;
layers = (
{
background = {
shapes = (
{
closed = 1;
nodes = (
(407,52,l),
(410,55,o),
(446,150,o),
(446,162,c),
(386,216,o),
(358,273,o),
(358,361,cs),
(358,423,o),
(384,508,o),
(430,569,c),
(406,586,l),
(316,491,o),
(274,385,o),
(274,275,cs),
(274,187,o),
(313,103,o),
(392,50,c)
);
},
{
closed = 1;
nodes = (
(191,17,l),
(194,20,o),
(231,117,o),
(234,134,c),
(184,184,o),
(158,242,o),
(158,347,cs),
(158,417,o),
(188,506,o),
(232,567,c),
(208,585,l),
(139,510,o),
(74,398,o),
(74,255,cs),
(74,142,o),
(112,60,o),
(176,15,c)
);
}
);
};
layerId = "A6411EC5-7A77-465E-9F2B-2C7729D1C516";
shapes = (
{
closed = 1;
nodes = (
(407,52,l),
(410,55,o),
(446,150,o),
(446,162,c),
(386,216,o),
(358,273,o),
(358,361,cs),
(358,423,o),
(384,508,o),
(430,569,c),
(406,586,l),
(316,491,o),
(274,385,o),
(274,275,cs),
(274,187,o),
(313,103,o),
(392,50,c)
);
},
{
closed = 1;
nodes = (
(191,17,l),
(194,20,o),
(231,117,o),
(234,134,c),
(184,184,o),
(158,242,o),
(158,347,cs),
(158,417,o),
(188,506,o),
(232,567,c),
(208,585,l),
(139,510,o),
(74,398,o),
(74,255,cs),
(74,142,o),
(112,60,o),
(176,15,c)
);
}
);
width = 520;
}
);
unicode = 171;
},
{
glyphname = guillemotright;
layers = (
{
background = {
shapes = (
{
closed = 1;
nodes = (
(114,24,l),
(184,98,o),
(246,201,o),
(246,335,cs),
(246,434,o),
(198,513,o),
(128,560,c),
(113,558,l),
(111,556,o),
(74,461,o),
(74,448,c),
(132,396,o),
(162,339,o),
(162,249,cs),
(162,196,o),
(141,108,o),
(90,41,c)
);
},
{
closed = 1;
nodes = (
(312,25,l),
(382,101,o),
(446,213,o),
(446,355,cs),
(446,474,o),
(405,552,o),
(344,595,c),
(329,593,l),
(319,571,o),
(286,491,o),
(286,476,c),
(335,427,o),
(362,367,o),
(362,263,cs),
(362,193,o),
(334,106,o),
(288,43,c)
);
}
);
};
layerId = "A6411EC5-7A77-465E-9F2B-2C7729D1C516";
shapes = (
{
closed = 1;
nodes = (
(114,24,l),
(184,98,o),
(246,201,o),
(246,335,cs),
(246,434,o),
(198,513,o),
(128,560,c),
(113,558,l),
(111,556,o),
(74,461,o),
(74,448,c),
(132,396,o),
(162,339,o),
(162,249,cs),
(162,196,o),
(141,108,o),
(90,41,c)
);
},
{
closed = 1;
nodes = (
(312,25,l),
(382,101,o),
(446,213,o),
(446,355,cs),
(446,474,o),
(405,552,o),
(344,595,c),
(329,593,l),
(319,571,o),
(286,491,o),
(286,476,c),
(335,427,o),
(362,367,o),
(362,263,cs),
(362,193,o),
(334,106,o),
(288,43,c)
);
}
);
width = 520;
}
);
unicode = 187;
},
{
glyphname = ThreeDotPunct;
layers = (
{
background = {
shapes = (
{
closed = 1;
nodes = (
(264,226,l),
(310,258,o),
(356,298,o),
(356,331,cs),
(356,363,o),
(325,388,o),
(270,423,c),
(260,423,l),
(243,412,o),
(182,345,o),
(164,317,c),
(164,307,l),
(191,287,o),
(215,267,o),
(256,226,c)
);
},
{
closed = 1;
nodes = (
(141,11,l),
(187,43,o),
(233,83,o),
(233,116,cs),
(233,148,o),
(202,173,o),
(147,208,c),
(137,208,l),
(120,197,o),
(59,130,o),
(41,102,c),
(41,92,l),
(70,71,o),
(104,40,o),
(133,11,c)
);
},
{
closed = 1;
nodes = (
(382,11,l),
(428,43,o),
(474,83,o),
(474,116,cs),
(474,148,o),
(443,173,o),
(388,208,c),
(378,208,l),
(361,197,o),
(300,130,o),
(282,102,c),
(282,92,l),
(309,72,o),
(339,46,o),
(374,11,c)
);
}
);
};
layerId = "A6411EC5-7A77-465E-9F2B-2C7729D1C516";
shapes = (
{
closed = 1;
nodes = (
(264,226,l),
(310,258,o),
(356,298,o),
(356,331,cs),
(356,363,o),
(325,388,o),
(270,423,c),
(260,423,l),
(243,412,o),
(182,345,o),
(164,317,c),
(164,307,l),
(191,287,o),
(215,267,o),
(256,226,c)
);
},
{
closed = 1;
nodes = (
(141,11,l),
(187,43,o),
(233,83,o),
(233,116,cs),
(233,148,o),
(202,173,o),
(147,208,c),
(137,208,l),
(120,197,o),
(59,130,o),
(41,102,c),
(41,92,l),
(70,71,o),
(104,40,o),
(133,11,c)
);
},
{
closed = 1;
nodes = (
(382,11,l),
(428,43,o),
(474,83,o),
(474,116,cs),
(474,148,o),
(443,173,o),
(388,208,c),
(378,208,l),
(361,197,o),
(300,130,o),
(282,102,c),
(282,92,l),
(309,72,o),
(339,46,o),
(374,11,c)
);
}
);
width = 512;
}
);
unicode = 1566;
},
{
glyphname = QuestionmarkArabic;
layers = (
{
background = {
shapes = (
{
closed = 1;
nodes = (
(297,267,l),
(302,290,o),
(305,313,o),
(305,336,cs),
(305,420,o),
(279,475,o),
(217,526,cs),
(159,573,o),
(132,601,o),
(132,635,cs),
(132,699,o),
(211,731,o),
(287,731,cs),
(323,731,o),
(351,727,o),
(364,722,c),
(374,722,l),
(395,745,o),
(408,771,o),
(408,806,cs),
(408,860,o),
(354,876,o),
(307,876,cs),
(181,876,o),
(78,765,o),
(78,643,cs),
(78,580,o),
(94,532,o),
(127,496,cs),
(159,461,o),
(189,430,o),
(216,405,cs),
(243,380,o),
(262,334,o),
(272,268,c)
);
},
{
closed = 1;
nodes = (
(285,1,l),
(352,46,o),
(384,87,o),
(384,114,cs),
(384,145,o),
(354,172,o),
(291,212,c),
(281,212,l),
(262,197,o),
(191,119,o),
(178,98,c),
(178,88,l),
(206,67,o),
(238,39,o),
(277,1,c)
);
}
);
};
layerId = "A6411EC5-7A77-465E-9F2B-2C7729D1C516";
shapes = (
{
closed = 1;
nodes = (
(297,267,l),
(302,290,o),
(305,313,o),
(305,336,cs),
(305,420,o),
(279,475,o),
(217,526,cs),
(159,573,o),
(132,601,o),
(132,635,cs),
(132,699,o),
(211,731,o),
(287,731,cs),
(323,731,o),
(351,727,o),
(364,722,c),
(374,722,l),
(395,745,o),
(408,771,o),
(408,806,cs),
(408,860,o),
(354,876,o),
(307,876,cs),
(181,876,o),
(78,765,o),
(78,643,cs),
(78,580,o),
(94,532,o),
(127,496,cs),
(159,461,o),
(189,430,o),
(216,405,cs),
(243,380,o),
(262,334,o),
(272,268,c)
);
},
{
closed = 1;
nodes = (
(285,1,l),
(352,46,o),
(384,87,o),
(384,114,cs),
(384,145,o),
(354,172,o),
(291,212,c),
(281,212,l),
(262,197,o),
(191,119,o),
(178,98,c),
(178,88,l),
(206,67,o),
(238,39,o),
(277,1,c)
);
}
);
width = 504;
}
);
unicode = 1567;
},
{
glyphname = DateSeparatorArabic;
layers = (
{
background = {
shapes = (
{
closed = 1;
nodes = (
(133,-4,l),
(181,92,o),
(240,149,o),
(300,188,cs),
(331,208,o),
(356,221,o),
(371,228,cs),
(386,235,o),
(400,263,o),
(412,312,cs),
(424,361,o),
(432,397,o),
(435,420,c),
(422,427,l),
(312,382,o),
(172,253,o),
(104,7,c)
);
}
);
};
layerId = "A6411EC5-7A77-465E-9F2B-2C7729D1C516";
shapes = (
{
closed = 1;
nodes = (
(133,-4,l),
(181,92,o),
(240,149,o),
(300,188,cs),
(331,208,o),
(356,221,o),
(371,228,cs),
(386,235,o),
(400,263,o),
(412,312,cs),
(424,361,o),
(432,397,o),
(435,420,c),
(422,427,l),
(312,382,o),
(172,253,o),
(104,7,c)
);
}
);
width = 548;
}
);
unicode = 1549;
},
